G04 #@! TF.FileFunction,Soldermask,Bot*
%FSLAX46Y46*%
G04 Gerber Fmt 4.6, Leading zero omitted, Abs format (unit mm)*
G04 Created by KiCad (PCBNEW 4.0.4-stable) date Sunday, November 27, 2016 'PMt' 03:20:47 PM*
%MOMM*%
%LPD*%
G01*
G04 APERTURE LIST*
%ADD10C,0.100000*%
%ADD11O,2.400000X1.600000*%
%ADD12R,1.150000X1.200000*%
%ADD13R,1.200000X1.150000*%
%ADD14R,2.650000X2.650000*%
%ADD15C,2.650000*%
%ADD16C,7.400000*%
%ADD17C,1.000000*%
%ADD18C,2.300000*%
%ADD19R,2.300000X2.300000*%
G04 APERTURE END LIST*
D10*
G36*
X27628869Y18108229D02*
X27671484Y18012669D01*
X27714099Y17917108D01*
X29193369Y16575981D01*
X30672639Y15234854D01*
X30763434Y15199157D01*
X30854229Y15163460D01*
X32973542Y15163793D01*
X35092854Y15164126D01*
X35178879Y15197548D01*
X35207606Y15208923D01*
X35233300Y15219497D01*
X35254150Y15228494D01*
X35268344Y15235136D01*
X35273655Y15238204D01*
X35278202Y15242208D01*
X35290382Y15253003D01*
X35309922Y15270345D01*
X35336548Y15293990D01*
X35369987Y15323696D01*
X35409963Y15359219D01*
X35456205Y15400315D01*
X35508437Y15446740D01*
X35566386Y15498253D01*
X35629779Y15554608D01*
X35698340Y15615563D01*
X35771798Y15680874D01*
X35849876Y15750297D01*
X35932303Y15823590D01*
X36018804Y15900509D01*
X36109105Y15980810D01*
X36202933Y16064249D01*
X36300013Y16150584D01*
X36400072Y16239572D01*
X36502836Y16330967D01*
X36608031Y16424528D01*
X36715383Y16520010D01*
X36783068Y16580212D01*
X38283729Y17914987D01*
X38327386Y18011566D01*
X38371042Y18108146D01*
X38370783Y20010542D01*
X38370525Y21912938D01*
X38327127Y22008718D01*
X38283729Y22104499D01*
X36774834Y23436848D01*
X35265939Y24769196D01*
X35177102Y24802890D01*
X35088266Y24836584D01*
X34603727Y24836403D01*
X34119188Y24836222D01*
X34005558Y24771246D01*
X33891929Y24706270D01*
X33697748Y24381166D01*
X33503566Y24056063D01*
X33484617Y23988839D01*
X33465667Y23921616D01*
X33465741Y23031048D01*
X33465816Y22140479D01*
X33486265Y22071688D01*
X33506714Y22002896D01*
X34495942Y20431271D01*
X34570427Y20312933D01*
X34643531Y20196791D01*
X34715049Y20083171D01*
X34784774Y19972398D01*
X34852502Y19864800D01*
X34918028Y19760701D01*
X34981145Y19660429D01*
X35041650Y19564309D01*
X35099336Y19472667D01*
X35153998Y19385831D01*
X35205431Y19304125D01*
X35253429Y19227875D01*
X35297788Y19157409D01*
X35338302Y19093052D01*
X35374765Y19035130D01*
X35406973Y18983970D01*
X35434721Y18939897D01*
X35457802Y18903238D01*
X35476011Y18874319D01*
X35489144Y18853465D01*
X35496995Y18841004D01*
X35499274Y18837390D01*
X35513379Y18815135D01*
X34909634Y18243401D01*
X34305890Y17671667D01*
X32970877Y17671667D01*
X31635864Y17671667D01*
X31057192Y18219922D01*
X30990717Y18282909D01*
X30926097Y18344145D01*
X30863775Y18403214D01*
X30804192Y18459695D01*
X30747789Y18513171D01*
X30695010Y18563221D01*
X30646294Y18609427D01*
X30602084Y18651370D01*
X30562821Y18688631D01*
X30528947Y18720792D01*
X30500904Y18747432D01*
X30479133Y18768134D01*
X30464075Y18782479D01*
X30456173Y18790047D01*
X30455499Y18790701D01*
X30432478Y18813224D01*
X31462401Y20407620D01*
X32492324Y22002015D01*
X32513329Y22072229D01*
X32534333Y22142444D01*
X32534333Y23031396D01*
X32534333Y23920348D01*
X32511440Y23994014D01*
X32488546Y24067681D01*
X32272180Y24384365D01*
X32236524Y24436502D01*
X32202406Y24486291D01*
X32170327Y24533007D01*
X32140787Y24575929D01*
X32114285Y24614332D01*
X32091320Y24647494D01*
X32072393Y24674691D01*
X32058004Y24695201D01*
X32048651Y24708299D01*
X32045043Y24713057D01*
X32037323Y24718964D01*
X32021702Y24728818D01*
X31999696Y24741740D01*
X31972820Y24756849D01*
X31942593Y24773265D01*
X31928438Y24780772D01*
X31822604Y24836477D01*
X31338417Y24836488D01*
X30854229Y24836499D01*
X30763215Y24800822D01*
X30672201Y24765146D01*
X29194236Y23434941D01*
X27716271Y22104735D01*
X27672789Y22008837D01*
X27629307Y21912938D01*
X27629088Y20010583D01*
X27628869Y18108229D01*
X27628869Y18108229D01*
X27628869Y18108229D01*
G37*
X27628869Y18108229D02*
X27671484Y18012669D01*
X27714099Y17917108D01*
X29193369Y16575981D01*
X30672639Y15234854D01*
X30763434Y15199157D01*
X30854229Y15163460D01*
X32973542Y15163793D01*
X35092854Y15164126D01*
X35178879Y15197548D01*
X35207606Y15208923D01*
X35233300Y15219497D01*
X35254150Y15228494D01*
X35268344Y15235136D01*
X35273655Y15238204D01*
X35278202Y15242208D01*
X35290382Y15253003D01*
X35309922Y15270345D01*
X35336548Y15293990D01*
X35369987Y15323696D01*
X35409963Y15359219D01*
X35456205Y15400315D01*
X35508437Y15446740D01*
X35566386Y15498253D01*
X35629779Y15554608D01*
X35698340Y15615563D01*
X35771798Y15680874D01*
X35849876Y15750297D01*
X35932303Y15823590D01*
X36018804Y15900509D01*
X36109105Y15980810D01*
X36202933Y16064249D01*
X36300013Y16150584D01*
X36400072Y16239572D01*
X36502836Y16330967D01*
X36608031Y16424528D01*
X36715383Y16520010D01*
X36783068Y16580212D01*
X38283729Y17914987D01*
X38327386Y18011566D01*
X38371042Y18108146D01*
X38370783Y20010542D01*
X38370525Y21912938D01*
X38327127Y22008718D01*
X38283729Y22104499D01*
X36774834Y23436848D01*
X35265939Y24769196D01*
X35177102Y24802890D01*
X35088266Y24836584D01*
X34603727Y24836403D01*
X34119188Y24836222D01*
X34005558Y24771246D01*
X33891929Y24706270D01*
X33697748Y24381166D01*
X33503566Y24056063D01*
X33484617Y23988839D01*
X33465667Y23921616D01*
X33465741Y23031048D01*
X33465816Y22140479D01*
X33486265Y22071688D01*
X33506714Y22002896D01*
X34495942Y20431271D01*
X34570427Y20312933D01*
X34643531Y20196791D01*
X34715049Y20083171D01*
X34784774Y19972398D01*
X34852502Y19864800D01*
X34918028Y19760701D01*
X34981145Y19660429D01*
X35041650Y19564309D01*
X35099336Y19472667D01*
X35153998Y19385831D01*
X35205431Y19304125D01*
X35253429Y19227875D01*
X35297788Y19157409D01*
X35338302Y19093052D01*
X35374765Y19035130D01*
X35406973Y18983970D01*
X35434721Y18939897D01*
X35457802Y18903238D01*
X35476011Y18874319D01*
X35489144Y18853465D01*
X35496995Y18841004D01*
X35499274Y18837390D01*
X35513379Y18815135D01*
X34909634Y18243401D01*
X34305890Y17671667D01*
X32970877Y17671667D01*
X31635864Y17671667D01*
X31057192Y18219922D01*
X30990717Y18282909D01*
X30926097Y18344145D01*
X30863775Y18403214D01*
X30804192Y18459695D01*
X30747789Y18513171D01*
X30695010Y18563221D01*
X30646294Y18609427D01*
X30602084Y18651370D01*
X30562821Y18688631D01*
X30528947Y18720792D01*
X30500904Y18747432D01*
X30479133Y18768134D01*
X30464075Y18782479D01*
X30456173Y18790047D01*
X30455499Y18790701D01*
X30432478Y18813224D01*
X31462401Y20407620D01*
X32492324Y22002015D01*
X32513329Y22072229D01*
X32534333Y22142444D01*
X32534333Y23031396D01*
X32534333Y23920348D01*
X32511440Y23994014D01*
X32488546Y24067681D01*
X32272180Y24384365D01*
X32236524Y24436502D01*
X32202406Y24486291D01*
X32170327Y24533007D01*
X32140787Y24575929D01*
X32114285Y24614332D01*
X32091320Y24647494D01*
X32072393Y24674691D01*
X32058004Y24695201D01*
X32048651Y24708299D01*
X32045043Y24713057D01*
X32037323Y24718964D01*
X32021702Y24728818D01*
X31999696Y24741740D01*
X31972820Y24756849D01*
X31942593Y24773265D01*
X31928438Y24780772D01*
X31822604Y24836477D01*
X31338417Y24836488D01*
X30854229Y24836499D01*
X30763215Y24800822D01*
X30672201Y24765146D01*
X29194236Y23434941D01*
X27716271Y22104735D01*
X27672789Y22008837D01*
X27629307Y21912938D01*
X27629088Y20010583D01*
X27628869Y18108229D01*
X27628869Y18108229D01*
D11*
X43180000Y45720000D03*
X25400000Y45720000D03*
X43180000Y43180000D03*
X25400000Y43180000D03*
X43180000Y40640000D03*
X25400000Y40640000D03*
X43180000Y38100000D03*
X25400000Y38100000D03*
X43180000Y35560000D03*
X25400000Y35560000D03*
X43180000Y33020000D03*
X25400000Y33020000D03*
X43180000Y30480000D03*
X25400000Y30480000D03*
X43180000Y27940000D03*
X25400000Y27940000D03*
X43180000Y25400000D03*
X25400000Y25400000D03*
X43180000Y22860000D03*
X25400000Y22860000D03*
X43180000Y20320000D03*
X25400000Y20320000D03*
X43180000Y17780000D03*
X25400000Y17780000D03*
D12*
X12855000Y40880000D03*
X12855000Y39380000D03*
X12855000Y33260000D03*
X12855000Y31760000D03*
X12855000Y21830000D03*
X12855000Y20330000D03*
X12855000Y14210000D03*
X12855000Y12710000D03*
X12855000Y44055000D03*
X12855000Y42555000D03*
D13*
X12970000Y37590000D03*
X11470000Y37590000D03*
X11470000Y35050000D03*
X12970000Y35050000D03*
D12*
X12855000Y30085000D03*
X12855000Y28585000D03*
X12855000Y25005000D03*
X12855000Y23505000D03*
D13*
X12970000Y18540000D03*
X11470000Y18540000D03*
X11470000Y16000000D03*
X12970000Y16000000D03*
D12*
X12855000Y11035000D03*
X12855000Y9535000D03*
D14*
X3330000Y37775000D03*
D15*
X3330000Y34275000D03*
X3330000Y30775000D03*
X3330000Y27275000D03*
X3330000Y23775000D03*
X3330000Y20275000D03*
X3330000Y16775000D03*
X3330000Y13275000D03*
D12*
X7775000Y42785000D03*
X7775000Y41285000D03*
X7775000Y39610000D03*
X7775000Y38110000D03*
X7775000Y34530000D03*
X7775000Y33030000D03*
X7775000Y31355000D03*
X7775000Y29855000D03*
X7775000Y23735000D03*
X7775000Y22235000D03*
X7775000Y20560000D03*
X7775000Y19060000D03*
X7775000Y15480000D03*
X7775000Y13980000D03*
X7775000Y12305000D03*
X7775000Y10805000D03*
D13*
X11065000Y41400000D03*
X9565000Y41400000D03*
X11065000Y39495000D03*
X9565000Y39495000D03*
X11065000Y33145000D03*
X9565000Y33145000D03*
X11065000Y31240000D03*
X9565000Y31240000D03*
X11065000Y22350000D03*
X9565000Y22350000D03*
X11065000Y20445000D03*
X9565000Y20445000D03*
X11065000Y14095000D03*
X9565000Y14095000D03*
X11065000Y12190000D03*
X9565000Y12190000D03*
D16*
X43180000Y5080000D03*
D17*
X45805000Y5080000D03*
X45036155Y3223845D03*
X43180000Y2455000D03*
X41323845Y3223845D03*
X40555000Y5080000D03*
X41323845Y6936155D03*
X43180000Y7705000D03*
X45036155Y6936155D03*
D16*
X5080000Y46990000D03*
D17*
X7705000Y46990000D03*
X6936155Y45133845D03*
X5080000Y44365000D03*
X3223845Y45133845D03*
X2455000Y46990000D03*
X3223845Y48846155D03*
X5080000Y49615000D03*
X6936155Y48846155D03*
D16*
X5080000Y5080000D03*
D17*
X7705000Y5080000D03*
X6936155Y3223845D03*
X5080000Y2455000D03*
X3223845Y3223845D03*
X2455000Y5080000D03*
X3223845Y6936155D03*
X5080000Y7705000D03*
X6936155Y6936155D03*
D18*
X34290000Y5080000D03*
D19*
X34290000Y7620000D03*
D18*
X31750000Y5080000D03*
X31750000Y7620000D03*
X29210000Y5080000D03*
X29210000Y7620000D03*
X26670000Y5080000D03*
X26670000Y7620000D03*
X24130000Y5080000D03*
X24130000Y7620000D03*
M02*
