G04 #@! TF.FileFunction,Copper,L1,Top,Signal*
%FSLAX46Y46*%
G04 Gerber Fmt 4.6, Leading zero omitted, Abs format (unit mm)*
G04 Created by KiCad (PCBNEW 4.0.4-stable) date Sunday, November 27, 2016 'PMt' 03:20:47 PM*
%MOMM*%
%LPD*%
G01*
G04 APERTURE LIST*
%ADD10C,0.100000*%
%ADD11O,2.000000X1.200000*%
%ADD12R,3.175000X1.270000*%
%ADD13R,1.778000X1.778000*%
%ADD14R,1.143000X1.143000*%
%ADD15R,1.524000X1.778000*%
%ADD16R,0.800000X0.750000*%
%ADD17R,2.250000X2.250000*%
%ADD18C,2.250000*%
%ADD19R,0.300000X1.450000*%
%ADD20C,7.000000*%
%ADD21C,0.600000*%
%ADD22C,1.900000*%
%ADD23R,1.900000X1.900000*%
%ADD24C,0.762000*%
%ADD25C,0.203200*%
%ADD26C,1.270000*%
%ADD27C,0.254000*%
%ADD28C,0.381000*%
%ADD29C,0.304800*%
G04 APERTURE END LIST*
D10*
D11*
X43180000Y45720000D03*
X25400000Y45720000D03*
X43180000Y43180000D03*
X25400000Y43180000D03*
X43180000Y40640000D03*
X25400000Y40640000D03*
X43180000Y38100000D03*
X25400000Y38100000D03*
X43180000Y35560000D03*
X25400000Y35560000D03*
X43180000Y33020000D03*
X25400000Y33020000D03*
X43180000Y30480000D03*
X25400000Y30480000D03*
X43180000Y27940000D03*
X25400000Y27940000D03*
X43180000Y25400000D03*
X25400000Y25400000D03*
X43180000Y22860000D03*
X25400000Y22860000D03*
X43180000Y20320000D03*
X25400000Y20320000D03*
X43180000Y17780000D03*
X25400000Y17780000D03*
D12*
X23495000Y45720000D03*
X23495000Y43180000D03*
X23495000Y40640000D03*
X23495000Y38100000D03*
X23495000Y35560000D03*
X23495000Y33020000D03*
X23495000Y30480000D03*
X23495000Y27940000D03*
X23495000Y25400000D03*
X23495000Y22860000D03*
X23495000Y20320000D03*
X23495000Y17780000D03*
X45085000Y17780000D03*
X45085000Y20320000D03*
X45085000Y22860000D03*
X45085000Y25400000D03*
X45085000Y27940000D03*
X45085000Y30480000D03*
X45085000Y33020000D03*
X45085000Y35560000D03*
X45085000Y38100000D03*
X45085000Y40640000D03*
X45085000Y43180000D03*
X45085000Y45720000D03*
D13*
X27940000Y45720000D03*
X27940000Y38100000D03*
D14*
X27940000Y27940000D03*
X40640000Y43180000D03*
X40640000Y45720000D03*
D15*
X35306000Y48514000D03*
X33274000Y48514000D03*
D16*
X15280000Y29335000D03*
X16780000Y29335000D03*
X15280000Y10285000D03*
X16780000Y10285000D03*
X15280000Y31240000D03*
X16780000Y31240000D03*
X15280000Y12190000D03*
X16780000Y12190000D03*
D17*
X3330000Y37775000D03*
D18*
X3330000Y34275000D03*
X3330000Y30775000D03*
X3330000Y27275000D03*
X3330000Y23775000D03*
X3330000Y20275000D03*
X3330000Y16775000D03*
X3330000Y13275000D03*
D19*
X16395000Y34120000D03*
X16395000Y38520000D03*
X15895000Y34120000D03*
X15895000Y38520000D03*
X15395000Y34120000D03*
X15395000Y38520000D03*
X14895000Y34120000D03*
X14895000Y38520000D03*
X14395000Y34120000D03*
X14395000Y38520000D03*
X16395000Y15070000D03*
X16395000Y19470000D03*
X15895000Y15070000D03*
X15895000Y19470000D03*
X15395000Y15070000D03*
X15395000Y19470000D03*
X14895000Y15070000D03*
X14895000Y19470000D03*
X14395000Y15070000D03*
X14395000Y19470000D03*
D20*
X43180000Y5080000D03*
D21*
X45805000Y5080000D03*
X45036155Y3223845D03*
X43180000Y2455000D03*
X41323845Y3223845D03*
X40555000Y5080000D03*
X41323845Y6936155D03*
X43180000Y7705000D03*
X45036155Y6936155D03*
D20*
X5080000Y46990000D03*
D21*
X7705000Y46990000D03*
X6936155Y45133845D03*
X5080000Y44365000D03*
X3223845Y45133845D03*
X2455000Y46990000D03*
X3223845Y48846155D03*
X5080000Y49615000D03*
X6936155Y48846155D03*
D20*
X5080000Y5080000D03*
D21*
X7705000Y5080000D03*
X6936155Y3223845D03*
X5080000Y2455000D03*
X3223845Y3223845D03*
X2455000Y5080000D03*
X3223845Y6936155D03*
X5080000Y7705000D03*
X6936155Y6936155D03*
D22*
X34290000Y5080000D03*
D23*
X34290000Y7620000D03*
D22*
X31750000Y5080000D03*
X31750000Y7620000D03*
X29210000Y5080000D03*
X29210000Y7620000D03*
X26670000Y5080000D03*
X26670000Y7620000D03*
X24130000Y5080000D03*
X24130000Y7620000D03*
D24*
X13970000Y41148000D03*
X13970000Y40005000D03*
X13970000Y32766800D03*
X13970000Y31750000D03*
X13998000Y21842000D03*
X13998000Y20826000D03*
X13998000Y13714000D03*
X13998000Y12698000D03*
X10033000Y35052000D03*
X12827000Y8255000D03*
X11684000Y9525000D03*
X9017000Y10795000D03*
X7747000Y17907000D03*
X10287000Y18542000D03*
X10287000Y16002000D03*
X11557000Y25019000D03*
X14097000Y25019000D03*
X11557000Y28702000D03*
X9144000Y29845000D03*
X11684000Y44069000D03*
X12827000Y45212000D03*
X10033000Y37592000D03*
X7747000Y36449000D03*
X15367000Y27813000D03*
X15367000Y9017000D03*
X21209000Y27940000D03*
X17653000Y13208000D03*
X17018000Y40005000D03*
X20955000Y30480000D03*
X16791799Y13643851D03*
X16383000Y40767000D03*
X38608000Y22860000D03*
X27178000Y26162000D03*
D25*
X14859774Y40258226D02*
X14350999Y40767001D01*
X14859774Y39483426D02*
X14859774Y40258226D01*
X14895000Y39448200D02*
X14859774Y39483426D01*
X14895000Y38520000D02*
X14895000Y39448200D01*
X14350999Y40767001D02*
X13970000Y41148000D01*
X14395000Y38520000D02*
X14395000Y39580000D01*
X14395000Y39580000D02*
X13970000Y40005000D01*
X14395000Y34120000D02*
X14395000Y33191800D01*
X14395000Y33191800D02*
X13970000Y32766800D01*
X14895000Y32675000D02*
X13970000Y31750000D01*
X14895000Y34120000D02*
X14895000Y32675000D01*
X14895000Y21072000D02*
X14125000Y21842000D01*
X14125000Y21842000D02*
X13998000Y21842000D01*
X14895000Y19470000D02*
X14895000Y21072000D01*
X14395000Y20429000D02*
X13998000Y20826000D01*
X14395000Y19470000D02*
X14395000Y20429000D01*
X14395000Y14111000D02*
X13998000Y13714000D01*
X14395000Y15070000D02*
X14395000Y14111000D01*
X14895000Y13595000D02*
X13998000Y12698000D01*
X14895000Y15070000D02*
X14895000Y13595000D01*
D26*
X23495000Y43180000D02*
X17780000Y43180000D01*
D25*
X16780000Y12190000D02*
X16780000Y10285000D01*
D27*
X15367000Y18463000D02*
X15367000Y17526000D01*
X15395000Y19470000D02*
X15395000Y18491000D01*
X15395000Y18491000D02*
X15367000Y18463000D01*
X15395000Y21588000D02*
X15395000Y23721000D01*
X15395000Y23721000D02*
X14097000Y25019000D01*
X15395000Y38520000D02*
X15395000Y36350000D01*
X15395000Y38520000D02*
X15395000Y37541000D01*
D28*
X15367000Y40259000D02*
X15367000Y41275000D01*
X15395000Y40231000D02*
X15367000Y40259000D01*
D27*
X15395000Y38520000D02*
X15395000Y40231000D01*
D25*
X11049000Y10795000D02*
X11684000Y10160000D01*
X11684000Y10160000D02*
X11684000Y9525000D01*
X9017000Y10795000D02*
X11049000Y10795000D01*
X14097000Y25019000D02*
X11557000Y25019000D01*
X9144000Y29845000D02*
X10287000Y28702000D01*
X10287000Y28702000D02*
X11557000Y28702000D01*
X12827000Y44069000D02*
X11684000Y44069000D01*
X12827000Y45212000D02*
X12827000Y44069000D01*
X8890000Y36449000D02*
X10033000Y37592000D01*
X7747000Y36449000D02*
X8890000Y36449000D01*
D29*
X15395000Y21207000D02*
X15395000Y21588000D01*
D27*
X15395000Y20449000D02*
X15395000Y21207000D01*
X15395000Y19470000D02*
X15395000Y20449000D01*
D25*
X45085000Y45720000D02*
X43180000Y45720000D01*
D27*
X15280000Y27900000D02*
X15367000Y27813000D01*
X15280000Y29335000D02*
X15280000Y27900000D01*
D29*
X15367000Y9017000D02*
X15367000Y10198000D01*
X15367000Y10198000D02*
X15280000Y10285000D01*
X15280000Y29335000D02*
X15280000Y31240000D01*
X15367000Y32766000D02*
X15367000Y32006800D01*
X15367000Y32006800D02*
X15280000Y31919800D01*
X15280000Y31919800D02*
X15280000Y31240000D01*
X15395000Y32794000D02*
X15367000Y32766000D01*
D27*
X15395000Y34120000D02*
X15395000Y32794000D01*
D29*
X15280000Y12190000D02*
X15280000Y10285000D01*
X15395000Y13333000D02*
X15395000Y13841000D01*
X15395000Y13841000D02*
X15395000Y14054918D01*
D27*
X15395000Y15070000D02*
X15395000Y13841000D01*
D29*
X15280000Y13218000D02*
X15395000Y13333000D01*
X15280000Y12190000D02*
X15280000Y13218000D01*
D25*
X45085000Y33020000D02*
X43180000Y33020000D01*
X45085000Y30480000D02*
X43180000Y30480000D01*
X23495000Y27940000D02*
X25400000Y27940000D01*
X27178000Y9652000D02*
X28260001Y8569999D01*
X27178000Y14986000D02*
X27178000Y9652000D01*
X27380186Y26847802D02*
X27507186Y26847802D01*
X25400000Y27940000D02*
X25800000Y27940000D01*
X28448000Y25906988D02*
X28448000Y16256000D01*
X25800000Y27940000D02*
X26603200Y27136800D01*
X26603200Y27136800D02*
X27091188Y27136800D01*
X27091188Y27136800D02*
X27380186Y26847802D01*
X27507186Y26847802D02*
X28448000Y25906988D01*
X28448000Y16256000D02*
X27178000Y14986000D01*
X28260001Y8569999D02*
X29210000Y7620000D01*
X21209000Y27940000D02*
X20383500Y28765500D01*
X20383500Y28765500D02*
X20383500Y30099000D01*
X20383500Y30099000D02*
X17970500Y32512000D01*
X17970500Y32512000D02*
X16129000Y32512000D01*
X16129000Y32512000D02*
X15895000Y32746000D01*
X15895000Y32746000D02*
X15895000Y34120000D01*
X21209000Y27940000D02*
X23495000Y27940000D01*
X16561814Y12901198D02*
X17346198Y12901198D01*
X17346198Y12901198D02*
X17653000Y13208000D01*
X15895000Y13568012D02*
X16561814Y12901198D01*
X15895000Y15070000D02*
X15895000Y13568012D01*
X23495000Y27940000D02*
X21463000Y27940000D01*
X15895000Y33000000D02*
X15895000Y33191800D01*
X15895000Y33191800D02*
X15895000Y34120000D01*
X23495000Y25400000D02*
X25400000Y25400000D01*
X16637000Y40005000D02*
X17018000Y40005000D01*
X16395000Y39763000D02*
X16637000Y40005000D01*
X16395000Y38520000D02*
X16395000Y39763000D01*
X25400000Y24596800D02*
X25400000Y25400000D01*
X26670000Y7620000D02*
X26670000Y15240000D01*
X26670000Y15240000D02*
X27940000Y16510000D01*
X27940000Y16510000D02*
X27940000Y22056800D01*
X27940000Y22056800D02*
X25400000Y24596800D01*
X21704300Y25400000D02*
X23495000Y25400000D01*
X21396800Y25400000D02*
X21704300Y25400000D01*
X16395000Y19470000D02*
X16395000Y20398200D01*
X16395000Y20398200D02*
X21396800Y25400000D01*
X45085000Y25400000D02*
X43180000Y25400000D01*
X45085000Y27940000D02*
X43180000Y27940000D01*
X23495000Y30480000D02*
X25400000Y30480000D01*
X28956000Y29210000D02*
X27686000Y30480000D01*
X27686000Y30480000D02*
X25400000Y30480000D01*
X28956000Y16002000D02*
X28956000Y29210000D01*
X27686000Y14732000D02*
X28956000Y16002000D01*
X27686000Y10795000D02*
X27686000Y14732000D01*
X28956000Y9525000D02*
X27686000Y10795000D01*
X31750000Y7620000D02*
X29845000Y9525000D01*
X29845000Y9525000D02*
X28956000Y9525000D01*
X20701000Y30480000D02*
X20955000Y30480000D01*
X20955000Y30480000D02*
X23495000Y30480000D01*
X16410800Y14024850D02*
X16791799Y13643851D01*
X16395000Y15070000D02*
X16395000Y14040650D01*
X16395000Y14040650D02*
X16410800Y14024850D01*
X16637000Y33020000D02*
X18161000Y33020000D01*
X18161000Y33020000D02*
X20701000Y30480000D01*
X16637000Y33020000D02*
X17399000Y33020000D01*
X16510000Y33020000D02*
X16637000Y33020000D01*
X16395000Y34120000D02*
X16395000Y33135000D01*
X16395000Y33135000D02*
X16510000Y33020000D01*
X23495000Y22860000D02*
X25400000Y22860000D01*
X15895000Y40152000D02*
X16383000Y40640000D01*
X16383000Y40640000D02*
X16383000Y40767000D01*
X15895000Y38520000D02*
X15895000Y40152000D01*
X45085000Y22860000D02*
X43180000Y22860000D01*
X43180000Y22860000D02*
X38608000Y22860000D01*
X21717000Y26670000D02*
X26670000Y26670000D01*
X26670000Y26670000D02*
X27178000Y26162000D01*
X15895000Y19470000D02*
X15895000Y20848000D01*
X15895000Y20848000D02*
X21717000Y26670000D01*
X15895000Y19470000D02*
X15895000Y20975000D01*
X23495000Y45720000D02*
X25400000Y45720000D01*
X45085000Y43180000D02*
X43180000Y43180000D01*
X43180000Y40640000D02*
X45085000Y40640000D01*
X23495000Y40640000D02*
X25400000Y40640000D01*
X25400000Y38100000D02*
X23495000Y38100000D01*
X45085000Y35560000D02*
X43180000Y35560000D01*
X25400000Y35560000D02*
X23495000Y35560000D01*
X25400000Y33020000D02*
X23495000Y33020000D01*
X23495000Y33020000D02*
X25285700Y33020000D01*
X25285700Y33020000D02*
X25527000Y33261300D01*
X45085000Y20320000D02*
X43180000Y20320000D01*
X23495000Y20320000D02*
X25400000Y20320000D01*
X45085000Y17780000D02*
X43180000Y17780000D01*
X25400000Y17780000D02*
X23495000Y17780000D01*
D27*
G36*
X18923000Y44450000D02*
X18931685Y44403841D01*
X18958965Y44361447D01*
X19000590Y44333006D01*
X19050000Y44323000D01*
X21517474Y44323000D01*
X21369173Y44174698D01*
X21272500Y43941309D01*
X21272500Y43465750D01*
X21431250Y43307000D01*
X23368000Y43307000D01*
X23368000Y43327000D01*
X23622000Y43327000D01*
X23622000Y43307000D01*
X26868731Y43307000D01*
X26993462Y43497609D01*
X26989592Y43535281D01*
X26763080Y43963474D01*
X26389947Y44272390D01*
X25927000Y44415000D01*
X25527000Y44415000D01*
X25527000Y44268526D01*
X25442199Y44353327D01*
X25208810Y44450000D01*
X25148613Y44450000D01*
X25317817Y44481838D01*
X25322731Y44485000D01*
X25832032Y44485000D01*
X26304646Y44579009D01*
X26434633Y44665863D01*
X26447838Y44595683D01*
X26586910Y44379559D01*
X26799110Y44234569D01*
X27051000Y44183560D01*
X28829000Y44183560D01*
X29064317Y44227838D01*
X29280441Y44366910D01*
X29425431Y44579110D01*
X29476440Y44831000D01*
X29476440Y46291500D01*
X39421060Y46291500D01*
X39421060Y45148500D01*
X39465338Y44913183D01*
X39604410Y44697059D01*
X39816610Y44552069D01*
X40068500Y44501060D01*
X41211500Y44501060D01*
X41446817Y44545338D01*
X41662941Y44684410D01*
X41807931Y44896610D01*
X41815705Y44935001D01*
X41874691Y44846723D01*
X42275354Y44579009D01*
X42747968Y44485000D01*
X43263234Y44485000D01*
X43433814Y44450457D01*
X43262183Y44418162D01*
X43257269Y44415000D01*
X42747968Y44415000D01*
X42275354Y44320991D01*
X41874691Y44053277D01*
X41818095Y43968574D01*
X41814662Y43986817D01*
X41675590Y44202941D01*
X41463390Y44347931D01*
X41211500Y44398940D01*
X40068500Y44398940D01*
X39833183Y44354662D01*
X39617059Y44215590D01*
X39472069Y44003390D01*
X39421060Y43751500D01*
X39421060Y42608500D01*
X39465338Y42373183D01*
X39604410Y42157059D01*
X39816610Y42012069D01*
X40068500Y41961060D01*
X41211500Y41961060D01*
X41446817Y42005338D01*
X41662941Y42144410D01*
X41807931Y42356610D01*
X41815705Y42395001D01*
X41874691Y42306723D01*
X42275354Y42039009D01*
X42747968Y41945000D01*
X43263234Y41945000D01*
X43433814Y41910457D01*
X43262183Y41878162D01*
X43257269Y41875000D01*
X42747968Y41875000D01*
X42275354Y41780991D01*
X41874691Y41513277D01*
X41606977Y41112614D01*
X41512968Y40640000D01*
X41606977Y40167386D01*
X41874691Y39766723D01*
X42275354Y39499009D01*
X42747968Y39405000D01*
X43263234Y39405000D01*
X43436069Y39370000D01*
X43371190Y39370000D01*
X43137801Y39273327D01*
X43053000Y39188526D01*
X43053000Y39335000D01*
X42653000Y39335000D01*
X42190053Y39192390D01*
X41816920Y38883474D01*
X41590408Y38455281D01*
X41586538Y38417609D01*
X41711269Y38227000D01*
X44958000Y38227000D01*
X44958000Y38247000D01*
X45212000Y38247000D01*
X45212000Y38227000D01*
X47148750Y38227000D01*
X47307500Y38385750D01*
X47307500Y38861309D01*
X47210827Y39094698D01*
X47032199Y39273327D01*
X46798810Y39370000D01*
X46738613Y39370000D01*
X46907817Y39401838D01*
X47123941Y39540910D01*
X47268931Y39753110D01*
X47319940Y40005000D01*
X47319940Y41275000D01*
X47275662Y41510317D01*
X47136590Y41726441D01*
X46924390Y41871431D01*
X46736186Y41909543D01*
X46907817Y41941838D01*
X47123941Y42080910D01*
X47268931Y42293110D01*
X47319940Y42545000D01*
X47319940Y43815000D01*
X47275662Y44050317D01*
X47136590Y44266441D01*
X46924390Y44411431D01*
X46736186Y44449543D01*
X46907817Y44481838D01*
X47123941Y44620910D01*
X47268931Y44833110D01*
X47319940Y45085000D01*
X47319940Y46355000D01*
X47275662Y46590317D01*
X47136590Y46806441D01*
X46924390Y46951431D01*
X46672500Y47002440D01*
X43497500Y47002440D01*
X43262183Y46958162D01*
X43257269Y46955000D01*
X42747968Y46955000D01*
X42275354Y46860991D01*
X41874691Y46593277D01*
X41818095Y46508574D01*
X41814662Y46526817D01*
X41675590Y46742941D01*
X41463390Y46887931D01*
X41211500Y46938940D01*
X40068500Y46938940D01*
X39833183Y46894662D01*
X39617059Y46755590D01*
X39472069Y46543390D01*
X39421060Y46291500D01*
X29476440Y46291500D01*
X29476440Y46609000D01*
X29432162Y46844317D01*
X29293090Y47060441D01*
X29080890Y47205431D01*
X28829000Y47256440D01*
X27051000Y47256440D01*
X26815683Y47212162D01*
X26599559Y47073090D01*
X26454569Y46860890D01*
X26436719Y46772743D01*
X26304646Y46860991D01*
X25832032Y46955000D01*
X25316766Y46955000D01*
X25082500Y47002440D01*
X21907500Y47002440D01*
X21717000Y46966595D01*
X21717000Y49403000D01*
X31864560Y49403000D01*
X31864560Y47625000D01*
X31908838Y47389683D01*
X32047910Y47173559D01*
X32260110Y47028569D01*
X32512000Y46977560D01*
X34036000Y46977560D01*
X34271317Y47021838D01*
X34287099Y47031993D01*
X34292110Y47028569D01*
X34544000Y46977560D01*
X36068000Y46977560D01*
X36303317Y47021838D01*
X36519441Y47160910D01*
X36664431Y47373110D01*
X36715440Y47625000D01*
X36715440Y49403000D01*
X36671162Y49638317D01*
X36532090Y49854441D01*
X36319890Y49999431D01*
X36068000Y50050440D01*
X34544000Y50050440D01*
X34308683Y50006162D01*
X34292901Y49996007D01*
X34287890Y49999431D01*
X34036000Y50050440D01*
X32512000Y50050440D01*
X32276683Y50006162D01*
X32060559Y49867090D01*
X31915569Y49654890D01*
X31864560Y49403000D01*
X21717000Y49403000D01*
X21717000Y51308000D01*
X47498000Y51308000D01*
X47498000Y762000D01*
X21717000Y762000D01*
X21717000Y2122688D01*
X40402293Y2122688D01*
X40805762Y1596076D01*
X42319730Y952693D01*
X43964666Y937654D01*
X45490145Y1553250D01*
X45554238Y1596076D01*
X45957707Y2122688D01*
X43180000Y4900395D01*
X40402293Y2122688D01*
X21717000Y2122688D01*
X21717000Y7620000D01*
X21708315Y7666159D01*
X21681035Y7708553D01*
X21639410Y7736994D01*
X21590000Y7747000D01*
X19050000Y7747000D01*
X19003841Y7738315D01*
X18961447Y7711035D01*
X18933006Y7669410D01*
X18923000Y7620000D01*
X18923000Y762000D01*
X762000Y762000D01*
X762000Y2122688D01*
X2302293Y2122688D01*
X2705762Y1596076D01*
X4219730Y952693D01*
X5864666Y937654D01*
X7390145Y1553250D01*
X7454238Y1596076D01*
X7857707Y2122688D01*
X5080000Y4900395D01*
X2302293Y2122688D01*
X762000Y2122688D01*
X762000Y4295334D01*
X937654Y4295334D01*
X1553250Y2769855D01*
X1596076Y2705762D01*
X2122688Y2302293D01*
X4900395Y5080000D01*
X5259605Y5080000D01*
X8037312Y2302293D01*
X8563924Y2705762D01*
X9207307Y4219730D01*
X9222346Y5864666D01*
X8606750Y7390145D01*
X8563924Y7454238D01*
X8037312Y7857707D01*
X5259605Y5080000D01*
X4900395Y5080000D01*
X2122688Y7857707D01*
X1596076Y7454238D01*
X952693Y5940270D01*
X937654Y4295334D01*
X762000Y4295334D01*
X762000Y8037312D01*
X2302293Y8037312D01*
X5080000Y5259605D01*
X7692997Y7872602D01*
X22533812Y7872602D01*
X22558648Y7242539D01*
X22751981Y6775792D01*
X23013650Y6683255D01*
X23950395Y7620000D01*
X23013650Y8556745D01*
X22751981Y8464208D01*
X22533812Y7872602D01*
X7692997Y7872602D01*
X7857707Y8037312D01*
X7454238Y8563924D01*
X5940270Y9207307D01*
X4295334Y9222346D01*
X2769855Y8606750D01*
X2705762Y8563924D01*
X2302293Y8037312D01*
X762000Y8037312D01*
X762000Y38900000D01*
X1557560Y38900000D01*
X1557560Y36650000D01*
X1601838Y36414683D01*
X1740910Y36198559D01*
X1953110Y36053569D01*
X2205000Y36002560D01*
X2902203Y36002560D01*
X2334343Y35767925D01*
X1838815Y35273261D01*
X1570307Y34626621D01*
X1569696Y33926450D01*
X1837075Y33279343D01*
X2331739Y32783815D01*
X2955772Y32524694D01*
X2334343Y32267925D01*
X1838815Y31773261D01*
X1570307Y31126621D01*
X1569696Y30426450D01*
X1837075Y29779343D01*
X2331739Y29283815D01*
X2955772Y29024694D01*
X2334343Y28767925D01*
X1838815Y28273261D01*
X1570307Y27626621D01*
X1569696Y26926450D01*
X1837075Y26279343D01*
X2331739Y25783815D01*
X2955772Y25524694D01*
X2334343Y25267925D01*
X1838815Y24773261D01*
X1570307Y24126621D01*
X1569696Y23426450D01*
X1837075Y22779343D01*
X2331739Y22283815D01*
X2955772Y22024694D01*
X2334343Y21767925D01*
X1838815Y21273261D01*
X1570307Y20626621D01*
X1569696Y19926450D01*
X1837075Y19279343D01*
X2331739Y18783815D01*
X2955772Y18524694D01*
X2334343Y18267925D01*
X1838815Y17773261D01*
X1570307Y17126621D01*
X1569696Y16426450D01*
X1837075Y15779343D01*
X2331739Y15283815D01*
X2955772Y15024694D01*
X2334343Y14767925D01*
X1838815Y14273261D01*
X1570307Y13626621D01*
X1569696Y12926450D01*
X1837075Y12279343D01*
X2331739Y11783815D01*
X2978379Y11515307D01*
X3678550Y11514696D01*
X4325657Y11782075D01*
X4821185Y12276739D01*
X5089693Y12923379D01*
X5090207Y13512792D01*
X12981824Y13512792D01*
X13108709Y13205706D01*
X12982176Y12900982D01*
X12981824Y12496792D01*
X13136175Y12123234D01*
X13421731Y11837179D01*
X13795018Y11682176D01*
X14199208Y11681824D01*
X14253405Y11704218D01*
X14276838Y11579683D01*
X14415910Y11363559D01*
X14492600Y11311159D01*
X14492600Y11165299D01*
X14428559Y11124090D01*
X14283569Y10911890D01*
X14232560Y10660000D01*
X14232560Y9910000D01*
X14276838Y9674683D01*
X14415910Y9458559D01*
X14442654Y9440285D01*
X14351176Y9219982D01*
X14350824Y8815792D01*
X14505175Y8442234D01*
X14790731Y8156179D01*
X15164018Y8001176D01*
X15568208Y8000824D01*
X15941766Y8155175D01*
X16227821Y8440731D01*
X16350573Y8736350D01*
X23193255Y8736350D01*
X24130000Y7799605D01*
X25066745Y8736350D01*
X24974208Y8998019D01*
X24382602Y9216188D01*
X23752539Y9191352D01*
X23285792Y8998019D01*
X23193255Y8736350D01*
X16350573Y8736350D01*
X16382824Y8814018D01*
X16383176Y9218208D01*
X16359710Y9275000D01*
X16494250Y9275000D01*
X16653000Y9433750D01*
X16653000Y10158000D01*
X16907000Y10158000D01*
X16907000Y9433750D01*
X17065750Y9275000D01*
X17306309Y9275000D01*
X17539698Y9371673D01*
X17718327Y9550301D01*
X17815000Y9783690D01*
X17815000Y9999250D01*
X17656250Y10158000D01*
X16907000Y10158000D01*
X16653000Y10158000D01*
X16633000Y10158000D01*
X16633000Y10412000D01*
X16653000Y10412000D01*
X16653000Y11136250D01*
X16551750Y11237500D01*
X16653000Y11338750D01*
X16653000Y12063000D01*
X16907000Y12063000D01*
X16907000Y11338750D01*
X17008250Y11237500D01*
X16907000Y11136250D01*
X16907000Y10412000D01*
X17656250Y10412000D01*
X17815000Y10570750D01*
X17815000Y10786310D01*
X17718327Y11019699D01*
X17539698Y11198327D01*
X17445126Y11237500D01*
X17539698Y11276673D01*
X17718327Y11455301D01*
X17815000Y11688690D01*
X17815000Y11904250D01*
X17656250Y12063000D01*
X16907000Y12063000D01*
X16653000Y12063000D01*
X16633000Y12063000D01*
X16633000Y12164598D01*
X17346198Y12164598D01*
X17484691Y12192146D01*
X17854208Y12191824D01*
X18227766Y12346175D01*
X18513821Y12631731D01*
X18668824Y13005018D01*
X18669176Y13409208D01*
X18514825Y13782766D01*
X18229269Y14068821D01*
X17855982Y14223824D01*
X17648245Y14224005D01*
X17368068Y14504672D01*
X17192440Y14577599D01*
X17192440Y15795000D01*
X17148162Y16030317D01*
X17009090Y16246441D01*
X16796890Y16391431D01*
X16545000Y16442440D01*
X16245000Y16442440D01*
X16141329Y16422933D01*
X16045000Y16442440D01*
X15745000Y16442440D01*
X15641329Y16422933D01*
X15545000Y16442440D01*
X15245000Y16442440D01*
X15141329Y16422933D01*
X15045000Y16442440D01*
X14745000Y16442440D01*
X14641329Y16422933D01*
X14545000Y16442440D01*
X14245000Y16442440D01*
X14009683Y16398162D01*
X13793559Y16259090D01*
X13648569Y16046890D01*
X13597560Y15795000D01*
X13597560Y14647855D01*
X13423234Y14575825D01*
X13137179Y14290269D01*
X12982176Y13916982D01*
X12981824Y13512792D01*
X5090207Y13512792D01*
X5090304Y13623550D01*
X4822925Y14270657D01*
X4328261Y14766185D01*
X3704228Y15025306D01*
X4325657Y15282075D01*
X4821185Y15776739D01*
X5089693Y16423379D01*
X5090304Y17123550D01*
X4822925Y17770657D01*
X4328261Y18266185D01*
X3704228Y18525306D01*
X4325657Y18782075D01*
X4821185Y19276739D01*
X5089693Y19923379D01*
X5090304Y20623550D01*
X4822925Y21270657D01*
X4328261Y21766185D01*
X3704228Y22025306D01*
X4325657Y22282075D01*
X4821185Y22776739D01*
X5089693Y23423379D01*
X5090304Y24123550D01*
X4822925Y24770657D01*
X4328261Y25266185D01*
X3704228Y25525306D01*
X4325657Y25782075D01*
X4821185Y26276739D01*
X5089693Y26923379D01*
X5090304Y27623550D01*
X4822925Y28270657D01*
X4328261Y28766185D01*
X3704228Y29025306D01*
X4325657Y29282075D01*
X4821185Y29776739D01*
X5089693Y30423379D01*
X5090304Y31123550D01*
X4822925Y31770657D01*
X4328261Y32266185D01*
X3704228Y32525306D01*
X3801727Y32565592D01*
X12953824Y32565592D01*
X13080875Y32258105D01*
X12954176Y31952982D01*
X12953824Y31548792D01*
X13108175Y31175234D01*
X13393731Y30889179D01*
X13767018Y30734176D01*
X14171208Y30733824D01*
X14251036Y30766808D01*
X14276838Y30629683D01*
X14415910Y30413559D01*
X14492600Y30361159D01*
X14492600Y30215299D01*
X14428559Y30174090D01*
X14283569Y29961890D01*
X14232560Y29710000D01*
X14232560Y28960000D01*
X14276838Y28724683D01*
X14415910Y28508559D01*
X14518000Y28438804D01*
X14518000Y28401069D01*
X14506179Y28389269D01*
X14351176Y28015982D01*
X14350824Y27611792D01*
X14505175Y27238234D01*
X14790731Y26952179D01*
X15164018Y26797176D01*
X15568208Y26796824D01*
X15941766Y26951175D01*
X16227821Y27236731D01*
X16382824Y27610018D01*
X16383176Y28014208D01*
X16254759Y28325000D01*
X16494250Y28325000D01*
X16653000Y28483750D01*
X16653000Y29208000D01*
X16907000Y29208000D01*
X16907000Y28483750D01*
X17065750Y28325000D01*
X17306309Y28325000D01*
X17539698Y28421673D01*
X17718327Y28600301D01*
X17815000Y28833690D01*
X17815000Y29049250D01*
X17656250Y29208000D01*
X16907000Y29208000D01*
X16653000Y29208000D01*
X16633000Y29208000D01*
X16633000Y29462000D01*
X16653000Y29462000D01*
X16653000Y30186250D01*
X16551750Y30287500D01*
X16653000Y30388750D01*
X16653000Y31113000D01*
X16907000Y31113000D01*
X16907000Y30388750D01*
X17008250Y30287500D01*
X16907000Y30186250D01*
X16907000Y29462000D01*
X17656250Y29462000D01*
X17815000Y29620750D01*
X17815000Y29836310D01*
X17718327Y30069699D01*
X17539698Y30248327D01*
X17445126Y30287500D01*
X17539698Y30326673D01*
X17718327Y30505301D01*
X17815000Y30738690D01*
X17815000Y30954250D01*
X17656250Y31113000D01*
X16907000Y31113000D01*
X16653000Y31113000D01*
X16633000Y31113000D01*
X16633000Y31367000D01*
X16653000Y31367000D01*
X16653000Y31387000D01*
X16907000Y31387000D01*
X16907000Y31367000D01*
X17656250Y31367000D01*
X17815000Y31525750D01*
X17815000Y31625790D01*
X18923000Y30517790D01*
X18923000Y24917710D01*
X15672665Y21667375D01*
X15613115Y21655530D01*
X15447789Y21545062D01*
X15415855Y21592855D01*
X15014134Y21994576D01*
X15014176Y22043208D01*
X14859825Y22416766D01*
X14574269Y22702821D01*
X14200982Y22857824D01*
X13796792Y22858176D01*
X13423234Y22703825D01*
X13137179Y22418269D01*
X12982176Y22044982D01*
X12981824Y21640792D01*
X13108709Y21333706D01*
X12982176Y21028982D01*
X12981824Y20624792D01*
X13136175Y20251234D01*
X13421731Y19965179D01*
X13597560Y19892168D01*
X13597560Y18745000D01*
X13641838Y18509683D01*
X13780910Y18293559D01*
X13993110Y18148569D01*
X14245000Y18097560D01*
X14545000Y18097560D01*
X14648671Y18117067D01*
X14745000Y18097560D01*
X15045000Y18097560D01*
X15116324Y18110981D01*
X15118691Y18110000D01*
X15161250Y18110000D01*
X15172871Y18121621D01*
X15280317Y18141838D01*
X15394978Y18215620D01*
X15493110Y18148569D01*
X15614830Y18123920D01*
X15628750Y18110000D01*
X15671309Y18110000D01*
X15675335Y18111668D01*
X15745000Y18097560D01*
X16045000Y18097560D01*
X16148671Y18117067D01*
X16245000Y18097560D01*
X16545000Y18097560D01*
X16780317Y18141838D01*
X16996441Y18280910D01*
X17141431Y18493110D01*
X17192440Y18745000D01*
X17192440Y20153930D01*
X18923000Y21884490D01*
X18923000Y10160000D01*
X18931685Y10113841D01*
X18958965Y10071447D01*
X19000590Y10043006D01*
X19050000Y10033000D01*
X21590000Y10033000D01*
X21636159Y10041685D01*
X21678553Y10068965D01*
X21706994Y10110590D01*
X21717000Y10160000D01*
X21717000Y16536137D01*
X21907500Y16497560D01*
X25082500Y16497560D01*
X25317817Y16541838D01*
X25322731Y16545000D01*
X25832032Y16545000D01*
X26304646Y16639009D01*
X26705309Y16906723D01*
X26973023Y17307386D01*
X27067032Y17780000D01*
X26973023Y18252614D01*
X26705309Y18653277D01*
X26304646Y18920991D01*
X25832032Y19015000D01*
X25316766Y19015000D01*
X25146186Y19049543D01*
X25317817Y19081838D01*
X25322731Y19085000D01*
X25832032Y19085000D01*
X26304646Y19179009D01*
X26705309Y19446723D01*
X26973023Y19847386D01*
X27067032Y20320000D01*
X26973023Y20792614D01*
X26705309Y21193277D01*
X26304646Y21460991D01*
X25832032Y21555000D01*
X25316766Y21555000D01*
X25146186Y21589543D01*
X25317817Y21621838D01*
X25322731Y21625000D01*
X25832032Y21625000D01*
X26304646Y21719009D01*
X26705309Y21986723D01*
X26810675Y22144415D01*
X27203400Y21751690D01*
X27203400Y16815110D01*
X26149145Y15760855D01*
X25989470Y15521885D01*
X25933400Y15240000D01*
X25933400Y9030615D01*
X25773343Y8964481D01*
X25333884Y8525789D01*
X25246350Y8556745D01*
X24309605Y7620000D01*
X25246350Y6683255D01*
X25334439Y6714407D01*
X25698471Y6349739D01*
X25399739Y6051529D01*
X25035789Y6416116D01*
X25066745Y6503650D01*
X24130000Y7440395D01*
X23193255Y6503650D01*
X23224407Y6415561D01*
X22787086Y5979003D01*
X22545276Y5396659D01*
X22544725Y4766107D01*
X22785519Y4183343D01*
X23230997Y3737086D01*
X23813341Y3495276D01*
X24443893Y3494725D01*
X25026657Y3735519D01*
X25400261Y4108471D01*
X25770997Y3737086D01*
X26353341Y3495276D01*
X26983893Y3494725D01*
X27566657Y3735519D01*
X27940261Y4108471D01*
X28310997Y3737086D01*
X28893341Y3495276D01*
X29523893Y3494725D01*
X30106657Y3735519D01*
X30480261Y4108471D01*
X30850997Y3737086D01*
X31433341Y3495276D01*
X32063893Y3494725D01*
X32646657Y3735519D01*
X32875186Y3963650D01*
X33353255Y3963650D01*
X33445792Y3701981D01*
X34037398Y3483812D01*
X34667461Y3508648D01*
X35134208Y3701981D01*
X35226745Y3963650D01*
X34290000Y4900395D01*
X33353255Y3963650D01*
X32875186Y3963650D01*
X33086116Y4174211D01*
X33173650Y4143255D01*
X34110395Y5080000D01*
X34096253Y5094142D01*
X34275858Y5273747D01*
X34290000Y5259605D01*
X34304143Y5273747D01*
X34483748Y5094142D01*
X34469605Y5080000D01*
X35406350Y4143255D01*
X35668019Y4235792D01*
X35689976Y4295334D01*
X39037654Y4295334D01*
X39653250Y2769855D01*
X39696076Y2705762D01*
X40222688Y2302293D01*
X43000395Y5080000D01*
X43359605Y5080000D01*
X46137312Y2302293D01*
X46663924Y2705762D01*
X47307307Y4219730D01*
X47322346Y5864666D01*
X46706750Y7390145D01*
X46663924Y7454238D01*
X46137312Y7857707D01*
X43359605Y5080000D01*
X43000395Y5080000D01*
X40222688Y7857707D01*
X39696076Y7454238D01*
X39052693Y5940270D01*
X39037654Y4295334D01*
X35689976Y4295334D01*
X35886188Y4827398D01*
X35861352Y5457461D01*
X35668019Y5924208D01*
X35406352Y6016744D01*
X35452072Y6062464D01*
X35475317Y6066838D01*
X35691441Y6205910D01*
X35836431Y6418110D01*
X35887440Y6670000D01*
X35887440Y8037312D01*
X40402293Y8037312D01*
X43180000Y5259605D01*
X45957707Y8037312D01*
X45554238Y8563924D01*
X44040270Y9207307D01*
X42395334Y9222346D01*
X40869855Y8606750D01*
X40805762Y8563924D01*
X40402293Y8037312D01*
X35887440Y8037312D01*
X35887440Y8570000D01*
X35843162Y8805317D01*
X35704090Y9021441D01*
X35491890Y9166431D01*
X35240000Y9217440D01*
X33340000Y9217440D01*
X33104683Y9173162D01*
X32888559Y9034090D01*
X32762347Y8849372D01*
X32649003Y8962914D01*
X32066659Y9204724D01*
X31436107Y9205275D01*
X31273587Y9138123D01*
X30365855Y10045855D01*
X30126885Y10205530D01*
X29845000Y10261600D01*
X29261110Y10261600D01*
X28422600Y11100110D01*
X28422600Y14426890D01*
X29476855Y15481145D01*
X29636530Y15720115D01*
X29692600Y16002000D01*
X29692600Y22658792D01*
X37591824Y22658792D01*
X37746175Y22285234D01*
X38031731Y21999179D01*
X38405018Y21844176D01*
X38809208Y21843824D01*
X39182766Y21998175D01*
X39308210Y22123400D01*
X41783367Y22123400D01*
X41874691Y21986723D01*
X42275354Y21719009D01*
X42747968Y21625000D01*
X43263234Y21625000D01*
X43433814Y21590457D01*
X43262183Y21558162D01*
X43257269Y21555000D01*
X42747968Y21555000D01*
X42275354Y21460991D01*
X41874691Y21193277D01*
X41606977Y20792614D01*
X41512968Y20320000D01*
X41606977Y19847386D01*
X41874691Y19446723D01*
X42275354Y19179009D01*
X42747968Y19085000D01*
X43263234Y19085000D01*
X43433814Y19050457D01*
X43262183Y19018162D01*
X43257269Y19015000D01*
X42747968Y19015000D01*
X42275354Y18920991D01*
X41874691Y18653277D01*
X41606977Y18252614D01*
X41512968Y17780000D01*
X41606977Y17307386D01*
X41874691Y16906723D01*
X42275354Y16639009D01*
X42747968Y16545000D01*
X43263234Y16545000D01*
X43497500Y16497560D01*
X46672500Y16497560D01*
X46907817Y16541838D01*
X47123941Y16680910D01*
X47268931Y16893110D01*
X47319940Y17145000D01*
X47319940Y18415000D01*
X47275662Y18650317D01*
X47136590Y18866441D01*
X46924390Y19011431D01*
X46736186Y19049543D01*
X46907817Y19081838D01*
X47123941Y19220910D01*
X47268931Y19433110D01*
X47319940Y19685000D01*
X47319940Y20955000D01*
X47275662Y21190317D01*
X47136590Y21406441D01*
X46924390Y21551431D01*
X46736186Y21589543D01*
X46907817Y21621838D01*
X47123941Y21760910D01*
X47268931Y21973110D01*
X47319940Y22225000D01*
X47319940Y23495000D01*
X47275662Y23730317D01*
X47136590Y23946441D01*
X46924390Y24091431D01*
X46736186Y24129543D01*
X46907817Y24161838D01*
X47123941Y24300910D01*
X47268931Y24513110D01*
X47319940Y24765000D01*
X47319940Y26035000D01*
X47275662Y26270317D01*
X47136590Y26486441D01*
X46924390Y26631431D01*
X46736186Y26669543D01*
X46907817Y26701838D01*
X47123941Y26840910D01*
X47268931Y27053110D01*
X47319940Y27305000D01*
X47319940Y28575000D01*
X47275662Y28810317D01*
X47136590Y29026441D01*
X46924390Y29171431D01*
X46736186Y29209543D01*
X46907817Y29241838D01*
X47123941Y29380910D01*
X47268931Y29593110D01*
X47319940Y29845000D01*
X47319940Y31115000D01*
X47275662Y31350317D01*
X47136590Y31566441D01*
X46924390Y31711431D01*
X46736186Y31749543D01*
X46907817Y31781838D01*
X47123941Y31920910D01*
X47268931Y32133110D01*
X47319940Y32385000D01*
X47319940Y33655000D01*
X47275662Y33890317D01*
X47136590Y34106441D01*
X46924390Y34251431D01*
X46736186Y34289543D01*
X46907817Y34321838D01*
X47123941Y34460910D01*
X47268931Y34673110D01*
X47319940Y34925000D01*
X47319940Y36195000D01*
X47275662Y36430317D01*
X47136590Y36646441D01*
X46924390Y36791431D01*
X46733931Y36830000D01*
X46798810Y36830000D01*
X47032199Y36926673D01*
X47210827Y37105302D01*
X47307500Y37338691D01*
X47307500Y37814250D01*
X47148750Y37973000D01*
X45212000Y37973000D01*
X45212000Y37953000D01*
X44958000Y37953000D01*
X44958000Y37973000D01*
X41711269Y37973000D01*
X41586538Y37782391D01*
X41590408Y37744719D01*
X41816920Y37316526D01*
X42190053Y37007610D01*
X42653000Y36865000D01*
X43053000Y36865000D01*
X43053000Y37011474D01*
X43137801Y36926673D01*
X43371190Y36830000D01*
X43431387Y36830000D01*
X43262183Y36798162D01*
X43257269Y36795000D01*
X42747968Y36795000D01*
X42275354Y36700991D01*
X41874691Y36433277D01*
X41606977Y36032614D01*
X41512968Y35560000D01*
X41606977Y35087386D01*
X41874691Y34686723D01*
X42275354Y34419009D01*
X42747968Y34325000D01*
X43263234Y34325000D01*
X43433814Y34290457D01*
X43262183Y34258162D01*
X43257269Y34255000D01*
X42747968Y34255000D01*
X42275354Y34160991D01*
X41874691Y33893277D01*
X41606977Y33492614D01*
X41512968Y33020000D01*
X41606977Y32547386D01*
X41874691Y32146723D01*
X42275354Y31879009D01*
X42747968Y31785000D01*
X43263234Y31785000D01*
X43433814Y31750457D01*
X43262183Y31718162D01*
X43257269Y31715000D01*
X42747968Y31715000D01*
X42275354Y31620991D01*
X41874691Y31353277D01*
X41606977Y30952614D01*
X41512968Y30480000D01*
X41606977Y30007386D01*
X41874691Y29606723D01*
X42275354Y29339009D01*
X42747968Y29245000D01*
X43263234Y29245000D01*
X43433814Y29210457D01*
X43262183Y29178162D01*
X43257269Y29175000D01*
X42747968Y29175000D01*
X42275354Y29080991D01*
X41874691Y28813277D01*
X41606977Y28412614D01*
X41512968Y27940000D01*
X41606977Y27467386D01*
X41874691Y27066723D01*
X42275354Y26799009D01*
X42747968Y26705000D01*
X43263234Y26705000D01*
X43433814Y26670457D01*
X43262183Y26638162D01*
X43257269Y26635000D01*
X42747968Y26635000D01*
X42275354Y26540991D01*
X41874691Y26273277D01*
X41606977Y25872614D01*
X41512968Y25400000D01*
X41606977Y24927386D01*
X41874691Y24526723D01*
X42275354Y24259009D01*
X42747968Y24165000D01*
X43263234Y24165000D01*
X43433814Y24130457D01*
X43262183Y24098162D01*
X43257269Y24095000D01*
X42747968Y24095000D01*
X42275354Y24000991D01*
X41874691Y23733277D01*
X41783367Y23596600D01*
X39308273Y23596600D01*
X39184269Y23720821D01*
X38810982Y23875824D01*
X38406792Y23876176D01*
X38033234Y23721825D01*
X37747179Y23436269D01*
X37592176Y23062982D01*
X37591824Y22658792D01*
X29692600Y22658792D01*
X29692600Y29210000D01*
X29636530Y29491885D01*
X29476855Y29730855D01*
X28206855Y31000855D01*
X27967885Y31160530D01*
X27686000Y31216600D01*
X26796633Y31216600D01*
X26705309Y31353277D01*
X26304646Y31620991D01*
X25832032Y31715000D01*
X25316766Y31715000D01*
X25146186Y31749543D01*
X25317817Y31781838D01*
X25322731Y31785000D01*
X25832032Y31785000D01*
X26304646Y31879009D01*
X26705309Y32146723D01*
X26973023Y32547386D01*
X27067032Y33020000D01*
X26973023Y33492614D01*
X26705309Y33893277D01*
X26304646Y34160991D01*
X25832032Y34255000D01*
X25316766Y34255000D01*
X25146186Y34289543D01*
X25317817Y34321838D01*
X25322731Y34325000D01*
X25832032Y34325000D01*
X26304646Y34419009D01*
X26705309Y34686723D01*
X26973023Y35087386D01*
X27067032Y35560000D01*
X26973023Y36032614D01*
X26705309Y36433277D01*
X26304646Y36700991D01*
X25832032Y36795000D01*
X25316766Y36795000D01*
X25146186Y36829543D01*
X25317817Y36861838D01*
X25322731Y36865000D01*
X25832032Y36865000D01*
X26304646Y36959009D01*
X26434633Y37045863D01*
X26447838Y36975683D01*
X26586910Y36759559D01*
X26799110Y36614569D01*
X27051000Y36563560D01*
X28829000Y36563560D01*
X29064317Y36607838D01*
X29280441Y36746910D01*
X29425431Y36959110D01*
X29476440Y37211000D01*
X29476440Y38989000D01*
X29432162Y39224317D01*
X29293090Y39440441D01*
X29080890Y39585431D01*
X28829000Y39636440D01*
X27051000Y39636440D01*
X26815683Y39592162D01*
X26599559Y39453090D01*
X26454569Y39240890D01*
X26436719Y39152743D01*
X26304646Y39240991D01*
X25832032Y39335000D01*
X25316766Y39335000D01*
X25146186Y39369543D01*
X25317817Y39401838D01*
X25322731Y39405000D01*
X25832032Y39405000D01*
X26304646Y39499009D01*
X26705309Y39766723D01*
X26973023Y40167386D01*
X27067032Y40640000D01*
X26973023Y41112614D01*
X26705309Y41513277D01*
X26304646Y41780991D01*
X25832032Y41875000D01*
X25316766Y41875000D01*
X25143931Y41910000D01*
X25208810Y41910000D01*
X25442199Y42006673D01*
X25527000Y42091474D01*
X25527000Y41945000D01*
X25927000Y41945000D01*
X26389947Y42087610D01*
X26763080Y42396526D01*
X26989592Y42824719D01*
X26993462Y42862391D01*
X26868731Y43053000D01*
X23622000Y43053000D01*
X23622000Y43033000D01*
X23368000Y43033000D01*
X23368000Y43053000D01*
X21431250Y43053000D01*
X21272500Y42894250D01*
X21272500Y42418691D01*
X21369173Y42185302D01*
X21517474Y42037000D01*
X19050000Y42037000D01*
X19003841Y42028315D01*
X18961447Y42001035D01*
X18933006Y41959410D01*
X18923000Y41910000D01*
X18923000Y33299710D01*
X18681855Y33540855D01*
X18442885Y33700530D01*
X18161000Y33756600D01*
X17192440Y33756600D01*
X17192440Y34845000D01*
X17148162Y35080317D01*
X17009090Y35296441D01*
X16796890Y35441431D01*
X16545000Y35492440D01*
X16245000Y35492440D01*
X16141329Y35472933D01*
X16045000Y35492440D01*
X15745000Y35492440D01*
X15641329Y35472933D01*
X15545000Y35492440D01*
X15245000Y35492440D01*
X15141329Y35472933D01*
X15045000Y35492440D01*
X14745000Y35492440D01*
X14641329Y35472933D01*
X14545000Y35492440D01*
X14245000Y35492440D01*
X14009683Y35448162D01*
X13793559Y35309090D01*
X13648569Y35096890D01*
X13597560Y34845000D01*
X13597560Y33712224D01*
X13395234Y33628625D01*
X13109179Y33343069D01*
X12954176Y32969782D01*
X12953824Y32565592D01*
X3801727Y32565592D01*
X4325657Y32782075D01*
X4821185Y33276739D01*
X5089693Y33923379D01*
X5090304Y34623550D01*
X4822925Y35270657D01*
X4328261Y35766185D01*
X3759006Y36002560D01*
X4455000Y36002560D01*
X4690317Y36046838D01*
X4906441Y36185910D01*
X5051431Y36398110D01*
X5102440Y36650000D01*
X5102440Y38900000D01*
X5058162Y39135317D01*
X4919090Y39351441D01*
X4706890Y39496431D01*
X4455000Y39547440D01*
X2205000Y39547440D01*
X1969683Y39503162D01*
X1753559Y39364090D01*
X1608569Y39151890D01*
X1557560Y38900000D01*
X762000Y38900000D01*
X762000Y40946792D01*
X12953824Y40946792D01*
X13107012Y40576049D01*
X12954176Y40207982D01*
X12953824Y39803792D01*
X13108175Y39430234D01*
X13393731Y39144179D01*
X13597560Y39059541D01*
X13597560Y37795000D01*
X13641838Y37559683D01*
X13780910Y37343559D01*
X13993110Y37198569D01*
X14245000Y37147560D01*
X14545000Y37147560D01*
X14648671Y37167067D01*
X14745000Y37147560D01*
X15045000Y37147560D01*
X15116324Y37160981D01*
X15118691Y37160000D01*
X15161250Y37160000D01*
X15172871Y37171621D01*
X15280317Y37191838D01*
X15394978Y37265620D01*
X15493110Y37198569D01*
X15614830Y37173920D01*
X15628750Y37160000D01*
X15671309Y37160000D01*
X15675335Y37161668D01*
X15745000Y37147560D01*
X16045000Y37147560D01*
X16148671Y37167067D01*
X16245000Y37147560D01*
X16545000Y37147560D01*
X16780317Y37191838D01*
X16996441Y37330910D01*
X17141431Y37543110D01*
X17192440Y37795000D01*
X17192440Y38988847D01*
X17219208Y38988824D01*
X17592766Y39143175D01*
X17878821Y39428731D01*
X18033824Y39802018D01*
X18034176Y40206208D01*
X17879825Y40579766D01*
X17594269Y40865821D01*
X17399157Y40946839D01*
X17399176Y40968208D01*
X17244825Y41341766D01*
X16959269Y41627821D01*
X16585982Y41782824D01*
X16181792Y41783176D01*
X15808234Y41628825D01*
X15522179Y41343269D01*
X15367176Y40969982D01*
X15367022Y40792688D01*
X14986023Y41173687D01*
X14986176Y41349208D01*
X14831825Y41722766D01*
X14546269Y42008821D01*
X14172982Y42163824D01*
X13768792Y42164176D01*
X13395234Y42009825D01*
X13109179Y41724269D01*
X12954176Y41350982D01*
X12953824Y40946792D01*
X762000Y40946792D01*
X762000Y44032688D01*
X2302293Y44032688D01*
X2705762Y43506076D01*
X4219730Y42862693D01*
X5864666Y42847654D01*
X7390145Y43463250D01*
X7454238Y43506076D01*
X7857707Y44032688D01*
X5080000Y46810395D01*
X2302293Y44032688D01*
X762000Y44032688D01*
X762000Y46205334D01*
X937654Y46205334D01*
X1553250Y44679855D01*
X1596076Y44615762D01*
X2122688Y44212293D01*
X4900395Y46990000D01*
X5259605Y46990000D01*
X8037312Y44212293D01*
X8563924Y44615762D01*
X9207307Y46129730D01*
X9222346Y47774666D01*
X8606750Y49300145D01*
X8563924Y49364238D01*
X8037312Y49767707D01*
X5259605Y46990000D01*
X4900395Y46990000D01*
X2122688Y49767707D01*
X1596076Y49364238D01*
X952693Y47850270D01*
X937654Y46205334D01*
X762000Y46205334D01*
X762000Y49947312D01*
X2302293Y49947312D01*
X5080000Y47169605D01*
X7857707Y49947312D01*
X7454238Y50473924D01*
X5940270Y51117307D01*
X4295334Y51132346D01*
X2769855Y50516750D01*
X2705762Y50473924D01*
X2302293Y49947312D01*
X762000Y49947312D01*
X762000Y51308000D01*
X18923000Y51308000D01*
X18923000Y44450000D01*
X18923000Y44450000D01*
G37*
X18923000Y44450000D02*
X18931685Y44403841D01*
X18958965Y44361447D01*
X19000590Y44333006D01*
X19050000Y44323000D01*
X21517474Y44323000D01*
X21369173Y44174698D01*
X21272500Y43941309D01*
X21272500Y43465750D01*
X21431250Y43307000D01*
X23368000Y43307000D01*
X23368000Y43327000D01*
X23622000Y43327000D01*
X23622000Y43307000D01*
X26868731Y43307000D01*
X26993462Y43497609D01*
X26989592Y43535281D01*
X26763080Y43963474D01*
X26389947Y44272390D01*
X25927000Y44415000D01*
X25527000Y44415000D01*
X25527000Y44268526D01*
X25442199Y44353327D01*
X25208810Y44450000D01*
X25148613Y44450000D01*
X25317817Y44481838D01*
X25322731Y44485000D01*
X25832032Y44485000D01*
X26304646Y44579009D01*
X26434633Y44665863D01*
X26447838Y44595683D01*
X26586910Y44379559D01*
X26799110Y44234569D01*
X27051000Y44183560D01*
X28829000Y44183560D01*
X29064317Y44227838D01*
X29280441Y44366910D01*
X29425431Y44579110D01*
X29476440Y44831000D01*
X29476440Y46291500D01*
X39421060Y46291500D01*
X39421060Y45148500D01*
X39465338Y44913183D01*
X39604410Y44697059D01*
X39816610Y44552069D01*
X40068500Y44501060D01*
X41211500Y44501060D01*
X41446817Y44545338D01*
X41662941Y44684410D01*
X41807931Y44896610D01*
X41815705Y44935001D01*
X41874691Y44846723D01*
X42275354Y44579009D01*
X42747968Y44485000D01*
X43263234Y44485000D01*
X43433814Y44450457D01*
X43262183Y44418162D01*
X43257269Y44415000D01*
X42747968Y44415000D01*
X42275354Y44320991D01*
X41874691Y44053277D01*
X41818095Y43968574D01*
X41814662Y43986817D01*
X41675590Y44202941D01*
X41463390Y44347931D01*
X41211500Y44398940D01*
X40068500Y44398940D01*
X39833183Y44354662D01*
X39617059Y44215590D01*
X39472069Y44003390D01*
X39421060Y43751500D01*
X39421060Y42608500D01*
X39465338Y42373183D01*
X39604410Y42157059D01*
X39816610Y42012069D01*
X40068500Y41961060D01*
X41211500Y41961060D01*
X41446817Y42005338D01*
X41662941Y42144410D01*
X41807931Y42356610D01*
X41815705Y42395001D01*
X41874691Y42306723D01*
X42275354Y42039009D01*
X42747968Y41945000D01*
X43263234Y41945000D01*
X43433814Y41910457D01*
X43262183Y41878162D01*
X43257269Y41875000D01*
X42747968Y41875000D01*
X42275354Y41780991D01*
X41874691Y41513277D01*
X41606977Y41112614D01*
X41512968Y40640000D01*
X41606977Y40167386D01*
X41874691Y39766723D01*
X42275354Y39499009D01*
X42747968Y39405000D01*
X43263234Y39405000D01*
X43436069Y39370000D01*
X43371190Y39370000D01*
X43137801Y39273327D01*
X43053000Y39188526D01*
X43053000Y39335000D01*
X42653000Y39335000D01*
X42190053Y39192390D01*
X41816920Y38883474D01*
X41590408Y38455281D01*
X41586538Y38417609D01*
X41711269Y38227000D01*
X44958000Y38227000D01*
X44958000Y38247000D01*
X45212000Y38247000D01*
X45212000Y38227000D01*
X47148750Y38227000D01*
X47307500Y38385750D01*
X47307500Y38861309D01*
X47210827Y39094698D01*
X47032199Y39273327D01*
X46798810Y39370000D01*
X46738613Y39370000D01*
X46907817Y39401838D01*
X47123941Y39540910D01*
X47268931Y39753110D01*
X47319940Y40005000D01*
X47319940Y41275000D01*
X47275662Y41510317D01*
X47136590Y41726441D01*
X46924390Y41871431D01*
X46736186Y41909543D01*
X46907817Y41941838D01*
X47123941Y42080910D01*
X47268931Y42293110D01*
X47319940Y42545000D01*
X47319940Y43815000D01*
X47275662Y44050317D01*
X47136590Y44266441D01*
X46924390Y44411431D01*
X46736186Y44449543D01*
X46907817Y44481838D01*
X47123941Y44620910D01*
X47268931Y44833110D01*
X47319940Y45085000D01*
X47319940Y46355000D01*
X47275662Y46590317D01*
X47136590Y46806441D01*
X46924390Y46951431D01*
X46672500Y47002440D01*
X43497500Y47002440D01*
X43262183Y46958162D01*
X43257269Y46955000D01*
X42747968Y46955000D01*
X42275354Y46860991D01*
X41874691Y46593277D01*
X41818095Y46508574D01*
X41814662Y46526817D01*
X41675590Y46742941D01*
X41463390Y46887931D01*
X41211500Y46938940D01*
X40068500Y46938940D01*
X39833183Y46894662D01*
X39617059Y46755590D01*
X39472069Y46543390D01*
X39421060Y46291500D01*
X29476440Y46291500D01*
X29476440Y46609000D01*
X29432162Y46844317D01*
X29293090Y47060441D01*
X29080890Y47205431D01*
X28829000Y47256440D01*
X27051000Y47256440D01*
X26815683Y47212162D01*
X26599559Y47073090D01*
X26454569Y46860890D01*
X26436719Y46772743D01*
X26304646Y46860991D01*
X25832032Y46955000D01*
X25316766Y46955000D01*
X25082500Y47002440D01*
X21907500Y47002440D01*
X21717000Y46966595D01*
X21717000Y49403000D01*
X31864560Y49403000D01*
X31864560Y47625000D01*
X31908838Y47389683D01*
X32047910Y47173559D01*
X32260110Y47028569D01*
X32512000Y46977560D01*
X34036000Y46977560D01*
X34271317Y47021838D01*
X34287099Y47031993D01*
X34292110Y47028569D01*
X34544000Y46977560D01*
X36068000Y46977560D01*
X36303317Y47021838D01*
X36519441Y47160910D01*
X36664431Y47373110D01*
X36715440Y47625000D01*
X36715440Y49403000D01*
X36671162Y49638317D01*
X36532090Y49854441D01*
X36319890Y49999431D01*
X36068000Y50050440D01*
X34544000Y50050440D01*
X34308683Y50006162D01*
X34292901Y49996007D01*
X34287890Y49999431D01*
X34036000Y50050440D01*
X32512000Y50050440D01*
X32276683Y50006162D01*
X32060559Y49867090D01*
X31915569Y49654890D01*
X31864560Y49403000D01*
X21717000Y49403000D01*
X21717000Y51308000D01*
X47498000Y51308000D01*
X47498000Y762000D01*
X21717000Y762000D01*
X21717000Y2122688D01*
X40402293Y2122688D01*
X40805762Y1596076D01*
X42319730Y952693D01*
X43964666Y937654D01*
X45490145Y1553250D01*
X45554238Y1596076D01*
X45957707Y2122688D01*
X43180000Y4900395D01*
X40402293Y2122688D01*
X21717000Y2122688D01*
X21717000Y7620000D01*
X21708315Y7666159D01*
X21681035Y7708553D01*
X21639410Y7736994D01*
X21590000Y7747000D01*
X19050000Y7747000D01*
X19003841Y7738315D01*
X18961447Y7711035D01*
X18933006Y7669410D01*
X18923000Y7620000D01*
X18923000Y762000D01*
X762000Y762000D01*
X762000Y2122688D01*
X2302293Y2122688D01*
X2705762Y1596076D01*
X4219730Y952693D01*
X5864666Y937654D01*
X7390145Y1553250D01*
X7454238Y1596076D01*
X7857707Y2122688D01*
X5080000Y4900395D01*
X2302293Y2122688D01*
X762000Y2122688D01*
X762000Y4295334D01*
X937654Y4295334D01*
X1553250Y2769855D01*
X1596076Y2705762D01*
X2122688Y2302293D01*
X4900395Y5080000D01*
X5259605Y5080000D01*
X8037312Y2302293D01*
X8563924Y2705762D01*
X9207307Y4219730D01*
X9222346Y5864666D01*
X8606750Y7390145D01*
X8563924Y7454238D01*
X8037312Y7857707D01*
X5259605Y5080000D01*
X4900395Y5080000D01*
X2122688Y7857707D01*
X1596076Y7454238D01*
X952693Y5940270D01*
X937654Y4295334D01*
X762000Y4295334D01*
X762000Y8037312D01*
X2302293Y8037312D01*
X5080000Y5259605D01*
X7692997Y7872602D01*
X22533812Y7872602D01*
X22558648Y7242539D01*
X22751981Y6775792D01*
X23013650Y6683255D01*
X23950395Y7620000D01*
X23013650Y8556745D01*
X22751981Y8464208D01*
X22533812Y7872602D01*
X7692997Y7872602D01*
X7857707Y8037312D01*
X7454238Y8563924D01*
X5940270Y9207307D01*
X4295334Y9222346D01*
X2769855Y8606750D01*
X2705762Y8563924D01*
X2302293Y8037312D01*
X762000Y8037312D01*
X762000Y38900000D01*
X1557560Y38900000D01*
X1557560Y36650000D01*
X1601838Y36414683D01*
X1740910Y36198559D01*
X1953110Y36053569D01*
X2205000Y36002560D01*
X2902203Y36002560D01*
X2334343Y35767925D01*
X1838815Y35273261D01*
X1570307Y34626621D01*
X1569696Y33926450D01*
X1837075Y33279343D01*
X2331739Y32783815D01*
X2955772Y32524694D01*
X2334343Y32267925D01*
X1838815Y31773261D01*
X1570307Y31126621D01*
X1569696Y30426450D01*
X1837075Y29779343D01*
X2331739Y29283815D01*
X2955772Y29024694D01*
X2334343Y28767925D01*
X1838815Y28273261D01*
X1570307Y27626621D01*
X1569696Y26926450D01*
X1837075Y26279343D01*
X2331739Y25783815D01*
X2955772Y25524694D01*
X2334343Y25267925D01*
X1838815Y24773261D01*
X1570307Y24126621D01*
X1569696Y23426450D01*
X1837075Y22779343D01*
X2331739Y22283815D01*
X2955772Y22024694D01*
X2334343Y21767925D01*
X1838815Y21273261D01*
X1570307Y20626621D01*
X1569696Y19926450D01*
X1837075Y19279343D01*
X2331739Y18783815D01*
X2955772Y18524694D01*
X2334343Y18267925D01*
X1838815Y17773261D01*
X1570307Y17126621D01*
X1569696Y16426450D01*
X1837075Y15779343D01*
X2331739Y15283815D01*
X2955772Y15024694D01*
X2334343Y14767925D01*
X1838815Y14273261D01*
X1570307Y13626621D01*
X1569696Y12926450D01*
X1837075Y12279343D01*
X2331739Y11783815D01*
X2978379Y11515307D01*
X3678550Y11514696D01*
X4325657Y11782075D01*
X4821185Y12276739D01*
X5089693Y12923379D01*
X5090207Y13512792D01*
X12981824Y13512792D01*
X13108709Y13205706D01*
X12982176Y12900982D01*
X12981824Y12496792D01*
X13136175Y12123234D01*
X13421731Y11837179D01*
X13795018Y11682176D01*
X14199208Y11681824D01*
X14253405Y11704218D01*
X14276838Y11579683D01*
X14415910Y11363559D01*
X14492600Y11311159D01*
X14492600Y11165299D01*
X14428559Y11124090D01*
X14283569Y10911890D01*
X14232560Y10660000D01*
X14232560Y9910000D01*
X14276838Y9674683D01*
X14415910Y9458559D01*
X14442654Y9440285D01*
X14351176Y9219982D01*
X14350824Y8815792D01*
X14505175Y8442234D01*
X14790731Y8156179D01*
X15164018Y8001176D01*
X15568208Y8000824D01*
X15941766Y8155175D01*
X16227821Y8440731D01*
X16350573Y8736350D01*
X23193255Y8736350D01*
X24130000Y7799605D01*
X25066745Y8736350D01*
X24974208Y8998019D01*
X24382602Y9216188D01*
X23752539Y9191352D01*
X23285792Y8998019D01*
X23193255Y8736350D01*
X16350573Y8736350D01*
X16382824Y8814018D01*
X16383176Y9218208D01*
X16359710Y9275000D01*
X16494250Y9275000D01*
X16653000Y9433750D01*
X16653000Y10158000D01*
X16907000Y10158000D01*
X16907000Y9433750D01*
X17065750Y9275000D01*
X17306309Y9275000D01*
X17539698Y9371673D01*
X17718327Y9550301D01*
X17815000Y9783690D01*
X17815000Y9999250D01*
X17656250Y10158000D01*
X16907000Y10158000D01*
X16653000Y10158000D01*
X16633000Y10158000D01*
X16633000Y10412000D01*
X16653000Y10412000D01*
X16653000Y11136250D01*
X16551750Y11237500D01*
X16653000Y11338750D01*
X16653000Y12063000D01*
X16907000Y12063000D01*
X16907000Y11338750D01*
X17008250Y11237500D01*
X16907000Y11136250D01*
X16907000Y10412000D01*
X17656250Y10412000D01*
X17815000Y10570750D01*
X17815000Y10786310D01*
X17718327Y11019699D01*
X17539698Y11198327D01*
X17445126Y11237500D01*
X17539698Y11276673D01*
X17718327Y11455301D01*
X17815000Y11688690D01*
X17815000Y11904250D01*
X17656250Y12063000D01*
X16907000Y12063000D01*
X16653000Y12063000D01*
X16633000Y12063000D01*
X16633000Y12164598D01*
X17346198Y12164598D01*
X17484691Y12192146D01*
X17854208Y12191824D01*
X18227766Y12346175D01*
X18513821Y12631731D01*
X18668824Y13005018D01*
X18669176Y13409208D01*
X18514825Y13782766D01*
X18229269Y14068821D01*
X17855982Y14223824D01*
X17648245Y14224005D01*
X17368068Y14504672D01*
X17192440Y14577599D01*
X17192440Y15795000D01*
X17148162Y16030317D01*
X17009090Y16246441D01*
X16796890Y16391431D01*
X16545000Y16442440D01*
X16245000Y16442440D01*
X16141329Y16422933D01*
X16045000Y16442440D01*
X15745000Y16442440D01*
X15641329Y16422933D01*
X15545000Y16442440D01*
X15245000Y16442440D01*
X15141329Y16422933D01*
X15045000Y16442440D01*
X14745000Y16442440D01*
X14641329Y16422933D01*
X14545000Y16442440D01*
X14245000Y16442440D01*
X14009683Y16398162D01*
X13793559Y16259090D01*
X13648569Y16046890D01*
X13597560Y15795000D01*
X13597560Y14647855D01*
X13423234Y14575825D01*
X13137179Y14290269D01*
X12982176Y13916982D01*
X12981824Y13512792D01*
X5090207Y13512792D01*
X5090304Y13623550D01*
X4822925Y14270657D01*
X4328261Y14766185D01*
X3704228Y15025306D01*
X4325657Y15282075D01*
X4821185Y15776739D01*
X5089693Y16423379D01*
X5090304Y17123550D01*
X4822925Y17770657D01*
X4328261Y18266185D01*
X3704228Y18525306D01*
X4325657Y18782075D01*
X4821185Y19276739D01*
X5089693Y19923379D01*
X5090304Y20623550D01*
X4822925Y21270657D01*
X4328261Y21766185D01*
X3704228Y22025306D01*
X4325657Y22282075D01*
X4821185Y22776739D01*
X5089693Y23423379D01*
X5090304Y24123550D01*
X4822925Y24770657D01*
X4328261Y25266185D01*
X3704228Y25525306D01*
X4325657Y25782075D01*
X4821185Y26276739D01*
X5089693Y26923379D01*
X5090304Y27623550D01*
X4822925Y28270657D01*
X4328261Y28766185D01*
X3704228Y29025306D01*
X4325657Y29282075D01*
X4821185Y29776739D01*
X5089693Y30423379D01*
X5090304Y31123550D01*
X4822925Y31770657D01*
X4328261Y32266185D01*
X3704228Y32525306D01*
X3801727Y32565592D01*
X12953824Y32565592D01*
X13080875Y32258105D01*
X12954176Y31952982D01*
X12953824Y31548792D01*
X13108175Y31175234D01*
X13393731Y30889179D01*
X13767018Y30734176D01*
X14171208Y30733824D01*
X14251036Y30766808D01*
X14276838Y30629683D01*
X14415910Y30413559D01*
X14492600Y30361159D01*
X14492600Y30215299D01*
X14428559Y30174090D01*
X14283569Y29961890D01*
X14232560Y29710000D01*
X14232560Y28960000D01*
X14276838Y28724683D01*
X14415910Y28508559D01*
X14518000Y28438804D01*
X14518000Y28401069D01*
X14506179Y28389269D01*
X14351176Y28015982D01*
X14350824Y27611792D01*
X14505175Y27238234D01*
X14790731Y26952179D01*
X15164018Y26797176D01*
X15568208Y26796824D01*
X15941766Y26951175D01*
X16227821Y27236731D01*
X16382824Y27610018D01*
X16383176Y28014208D01*
X16254759Y28325000D01*
X16494250Y28325000D01*
X16653000Y28483750D01*
X16653000Y29208000D01*
X16907000Y29208000D01*
X16907000Y28483750D01*
X17065750Y28325000D01*
X17306309Y28325000D01*
X17539698Y28421673D01*
X17718327Y28600301D01*
X17815000Y28833690D01*
X17815000Y29049250D01*
X17656250Y29208000D01*
X16907000Y29208000D01*
X16653000Y29208000D01*
X16633000Y29208000D01*
X16633000Y29462000D01*
X16653000Y29462000D01*
X16653000Y30186250D01*
X16551750Y30287500D01*
X16653000Y30388750D01*
X16653000Y31113000D01*
X16907000Y31113000D01*
X16907000Y30388750D01*
X17008250Y30287500D01*
X16907000Y30186250D01*
X16907000Y29462000D01*
X17656250Y29462000D01*
X17815000Y29620750D01*
X17815000Y29836310D01*
X17718327Y30069699D01*
X17539698Y30248327D01*
X17445126Y30287500D01*
X17539698Y30326673D01*
X17718327Y30505301D01*
X17815000Y30738690D01*
X17815000Y30954250D01*
X17656250Y31113000D01*
X16907000Y31113000D01*
X16653000Y31113000D01*
X16633000Y31113000D01*
X16633000Y31367000D01*
X16653000Y31367000D01*
X16653000Y31387000D01*
X16907000Y31387000D01*
X16907000Y31367000D01*
X17656250Y31367000D01*
X17815000Y31525750D01*
X17815000Y31625790D01*
X18923000Y30517790D01*
X18923000Y24917710D01*
X15672665Y21667375D01*
X15613115Y21655530D01*
X15447789Y21545062D01*
X15415855Y21592855D01*
X15014134Y21994576D01*
X15014176Y22043208D01*
X14859825Y22416766D01*
X14574269Y22702821D01*
X14200982Y22857824D01*
X13796792Y22858176D01*
X13423234Y22703825D01*
X13137179Y22418269D01*
X12982176Y22044982D01*
X12981824Y21640792D01*
X13108709Y21333706D01*
X12982176Y21028982D01*
X12981824Y20624792D01*
X13136175Y20251234D01*
X13421731Y19965179D01*
X13597560Y19892168D01*
X13597560Y18745000D01*
X13641838Y18509683D01*
X13780910Y18293559D01*
X13993110Y18148569D01*
X14245000Y18097560D01*
X14545000Y18097560D01*
X14648671Y18117067D01*
X14745000Y18097560D01*
X15045000Y18097560D01*
X15116324Y18110981D01*
X15118691Y18110000D01*
X15161250Y18110000D01*
X15172871Y18121621D01*
X15280317Y18141838D01*
X15394978Y18215620D01*
X15493110Y18148569D01*
X15614830Y18123920D01*
X15628750Y18110000D01*
X15671309Y18110000D01*
X15675335Y18111668D01*
X15745000Y18097560D01*
X16045000Y18097560D01*
X16148671Y18117067D01*
X16245000Y18097560D01*
X16545000Y18097560D01*
X16780317Y18141838D01*
X16996441Y18280910D01*
X17141431Y18493110D01*
X17192440Y18745000D01*
X17192440Y20153930D01*
X18923000Y21884490D01*
X18923000Y10160000D01*
X18931685Y10113841D01*
X18958965Y10071447D01*
X19000590Y10043006D01*
X19050000Y10033000D01*
X21590000Y10033000D01*
X21636159Y10041685D01*
X21678553Y10068965D01*
X21706994Y10110590D01*
X21717000Y10160000D01*
X21717000Y16536137D01*
X21907500Y16497560D01*
X25082500Y16497560D01*
X25317817Y16541838D01*
X25322731Y16545000D01*
X25832032Y16545000D01*
X26304646Y16639009D01*
X26705309Y16906723D01*
X26973023Y17307386D01*
X27067032Y17780000D01*
X26973023Y18252614D01*
X26705309Y18653277D01*
X26304646Y18920991D01*
X25832032Y19015000D01*
X25316766Y19015000D01*
X25146186Y19049543D01*
X25317817Y19081838D01*
X25322731Y19085000D01*
X25832032Y19085000D01*
X26304646Y19179009D01*
X26705309Y19446723D01*
X26973023Y19847386D01*
X27067032Y20320000D01*
X26973023Y20792614D01*
X26705309Y21193277D01*
X26304646Y21460991D01*
X25832032Y21555000D01*
X25316766Y21555000D01*
X25146186Y21589543D01*
X25317817Y21621838D01*
X25322731Y21625000D01*
X25832032Y21625000D01*
X26304646Y21719009D01*
X26705309Y21986723D01*
X26810675Y22144415D01*
X27203400Y21751690D01*
X27203400Y16815110D01*
X26149145Y15760855D01*
X25989470Y15521885D01*
X25933400Y15240000D01*
X25933400Y9030615D01*
X25773343Y8964481D01*
X25333884Y8525789D01*
X25246350Y8556745D01*
X24309605Y7620000D01*
X25246350Y6683255D01*
X25334439Y6714407D01*
X25698471Y6349739D01*
X25399739Y6051529D01*
X25035789Y6416116D01*
X25066745Y6503650D01*
X24130000Y7440395D01*
X23193255Y6503650D01*
X23224407Y6415561D01*
X22787086Y5979003D01*
X22545276Y5396659D01*
X22544725Y4766107D01*
X22785519Y4183343D01*
X23230997Y3737086D01*
X23813341Y3495276D01*
X24443893Y3494725D01*
X25026657Y3735519D01*
X25400261Y4108471D01*
X25770997Y3737086D01*
X26353341Y3495276D01*
X26983893Y3494725D01*
X27566657Y3735519D01*
X27940261Y4108471D01*
X28310997Y3737086D01*
X28893341Y3495276D01*
X29523893Y3494725D01*
X30106657Y3735519D01*
X30480261Y4108471D01*
X30850997Y3737086D01*
X31433341Y3495276D01*
X32063893Y3494725D01*
X32646657Y3735519D01*
X32875186Y3963650D01*
X33353255Y3963650D01*
X33445792Y3701981D01*
X34037398Y3483812D01*
X34667461Y3508648D01*
X35134208Y3701981D01*
X35226745Y3963650D01*
X34290000Y4900395D01*
X33353255Y3963650D01*
X32875186Y3963650D01*
X33086116Y4174211D01*
X33173650Y4143255D01*
X34110395Y5080000D01*
X34096253Y5094142D01*
X34275858Y5273747D01*
X34290000Y5259605D01*
X34304143Y5273747D01*
X34483748Y5094142D01*
X34469605Y5080000D01*
X35406350Y4143255D01*
X35668019Y4235792D01*
X35689976Y4295334D01*
X39037654Y4295334D01*
X39653250Y2769855D01*
X39696076Y2705762D01*
X40222688Y2302293D01*
X43000395Y5080000D01*
X43359605Y5080000D01*
X46137312Y2302293D01*
X46663924Y2705762D01*
X47307307Y4219730D01*
X47322346Y5864666D01*
X46706750Y7390145D01*
X46663924Y7454238D01*
X46137312Y7857707D01*
X43359605Y5080000D01*
X43000395Y5080000D01*
X40222688Y7857707D01*
X39696076Y7454238D01*
X39052693Y5940270D01*
X39037654Y4295334D01*
X35689976Y4295334D01*
X35886188Y4827398D01*
X35861352Y5457461D01*
X35668019Y5924208D01*
X35406352Y6016744D01*
X35452072Y6062464D01*
X35475317Y6066838D01*
X35691441Y6205910D01*
X35836431Y6418110D01*
X35887440Y6670000D01*
X35887440Y8037312D01*
X40402293Y8037312D01*
X43180000Y5259605D01*
X45957707Y8037312D01*
X45554238Y8563924D01*
X44040270Y9207307D01*
X42395334Y9222346D01*
X40869855Y8606750D01*
X40805762Y8563924D01*
X40402293Y8037312D01*
X35887440Y8037312D01*
X35887440Y8570000D01*
X35843162Y8805317D01*
X35704090Y9021441D01*
X35491890Y9166431D01*
X35240000Y9217440D01*
X33340000Y9217440D01*
X33104683Y9173162D01*
X32888559Y9034090D01*
X32762347Y8849372D01*
X32649003Y8962914D01*
X32066659Y9204724D01*
X31436107Y9205275D01*
X31273587Y9138123D01*
X30365855Y10045855D01*
X30126885Y10205530D01*
X29845000Y10261600D01*
X29261110Y10261600D01*
X28422600Y11100110D01*
X28422600Y14426890D01*
X29476855Y15481145D01*
X29636530Y15720115D01*
X29692600Y16002000D01*
X29692600Y22658792D01*
X37591824Y22658792D01*
X37746175Y22285234D01*
X38031731Y21999179D01*
X38405018Y21844176D01*
X38809208Y21843824D01*
X39182766Y21998175D01*
X39308210Y22123400D01*
X41783367Y22123400D01*
X41874691Y21986723D01*
X42275354Y21719009D01*
X42747968Y21625000D01*
X43263234Y21625000D01*
X43433814Y21590457D01*
X43262183Y21558162D01*
X43257269Y21555000D01*
X42747968Y21555000D01*
X42275354Y21460991D01*
X41874691Y21193277D01*
X41606977Y20792614D01*
X41512968Y20320000D01*
X41606977Y19847386D01*
X41874691Y19446723D01*
X42275354Y19179009D01*
X42747968Y19085000D01*
X43263234Y19085000D01*
X43433814Y19050457D01*
X43262183Y19018162D01*
X43257269Y19015000D01*
X42747968Y19015000D01*
X42275354Y18920991D01*
X41874691Y18653277D01*
X41606977Y18252614D01*
X41512968Y17780000D01*
X41606977Y17307386D01*
X41874691Y16906723D01*
X42275354Y16639009D01*
X42747968Y16545000D01*
X43263234Y16545000D01*
X43497500Y16497560D01*
X46672500Y16497560D01*
X46907817Y16541838D01*
X47123941Y16680910D01*
X47268931Y16893110D01*
X47319940Y17145000D01*
X47319940Y18415000D01*
X47275662Y18650317D01*
X47136590Y18866441D01*
X46924390Y19011431D01*
X46736186Y19049543D01*
X46907817Y19081838D01*
X47123941Y19220910D01*
X47268931Y19433110D01*
X47319940Y19685000D01*
X47319940Y20955000D01*
X47275662Y21190317D01*
X47136590Y21406441D01*
X46924390Y21551431D01*
X46736186Y21589543D01*
X46907817Y21621838D01*
X47123941Y21760910D01*
X47268931Y21973110D01*
X47319940Y22225000D01*
X47319940Y23495000D01*
X47275662Y23730317D01*
X47136590Y23946441D01*
X46924390Y24091431D01*
X46736186Y24129543D01*
X46907817Y24161838D01*
X47123941Y24300910D01*
X47268931Y24513110D01*
X47319940Y24765000D01*
X47319940Y26035000D01*
X47275662Y26270317D01*
X47136590Y26486441D01*
X46924390Y26631431D01*
X46736186Y26669543D01*
X46907817Y26701838D01*
X47123941Y26840910D01*
X47268931Y27053110D01*
X47319940Y27305000D01*
X47319940Y28575000D01*
X47275662Y28810317D01*
X47136590Y29026441D01*
X46924390Y29171431D01*
X46736186Y29209543D01*
X46907817Y29241838D01*
X47123941Y29380910D01*
X47268931Y29593110D01*
X47319940Y29845000D01*
X47319940Y31115000D01*
X47275662Y31350317D01*
X47136590Y31566441D01*
X46924390Y31711431D01*
X46736186Y31749543D01*
X46907817Y31781838D01*
X47123941Y31920910D01*
X47268931Y32133110D01*
X47319940Y32385000D01*
X47319940Y33655000D01*
X47275662Y33890317D01*
X47136590Y34106441D01*
X46924390Y34251431D01*
X46736186Y34289543D01*
X46907817Y34321838D01*
X47123941Y34460910D01*
X47268931Y34673110D01*
X47319940Y34925000D01*
X47319940Y36195000D01*
X47275662Y36430317D01*
X47136590Y36646441D01*
X46924390Y36791431D01*
X46733931Y36830000D01*
X46798810Y36830000D01*
X47032199Y36926673D01*
X47210827Y37105302D01*
X47307500Y37338691D01*
X47307500Y37814250D01*
X47148750Y37973000D01*
X45212000Y37973000D01*
X45212000Y37953000D01*
X44958000Y37953000D01*
X44958000Y37973000D01*
X41711269Y37973000D01*
X41586538Y37782391D01*
X41590408Y37744719D01*
X41816920Y37316526D01*
X42190053Y37007610D01*
X42653000Y36865000D01*
X43053000Y36865000D01*
X43053000Y37011474D01*
X43137801Y36926673D01*
X43371190Y36830000D01*
X43431387Y36830000D01*
X43262183Y36798162D01*
X43257269Y36795000D01*
X42747968Y36795000D01*
X42275354Y36700991D01*
X41874691Y36433277D01*
X41606977Y36032614D01*
X41512968Y35560000D01*
X41606977Y35087386D01*
X41874691Y34686723D01*
X42275354Y34419009D01*
X42747968Y34325000D01*
X43263234Y34325000D01*
X43433814Y34290457D01*
X43262183Y34258162D01*
X43257269Y34255000D01*
X42747968Y34255000D01*
X42275354Y34160991D01*
X41874691Y33893277D01*
X41606977Y33492614D01*
X41512968Y33020000D01*
X41606977Y32547386D01*
X41874691Y32146723D01*
X42275354Y31879009D01*
X42747968Y31785000D01*
X43263234Y31785000D01*
X43433814Y31750457D01*
X43262183Y31718162D01*
X43257269Y31715000D01*
X42747968Y31715000D01*
X42275354Y31620991D01*
X41874691Y31353277D01*
X41606977Y30952614D01*
X41512968Y30480000D01*
X41606977Y30007386D01*
X41874691Y29606723D01*
X42275354Y29339009D01*
X42747968Y29245000D01*
X43263234Y29245000D01*
X43433814Y29210457D01*
X43262183Y29178162D01*
X43257269Y29175000D01*
X42747968Y29175000D01*
X42275354Y29080991D01*
X41874691Y28813277D01*
X41606977Y28412614D01*
X41512968Y27940000D01*
X41606977Y27467386D01*
X41874691Y27066723D01*
X42275354Y26799009D01*
X42747968Y26705000D01*
X43263234Y26705000D01*
X43433814Y26670457D01*
X43262183Y26638162D01*
X43257269Y26635000D01*
X42747968Y26635000D01*
X42275354Y26540991D01*
X41874691Y26273277D01*
X41606977Y25872614D01*
X41512968Y25400000D01*
X41606977Y24927386D01*
X41874691Y24526723D01*
X42275354Y24259009D01*
X42747968Y24165000D01*
X43263234Y24165000D01*
X43433814Y24130457D01*
X43262183Y24098162D01*
X43257269Y24095000D01*
X42747968Y24095000D01*
X42275354Y24000991D01*
X41874691Y23733277D01*
X41783367Y23596600D01*
X39308273Y23596600D01*
X39184269Y23720821D01*
X38810982Y23875824D01*
X38406792Y23876176D01*
X38033234Y23721825D01*
X37747179Y23436269D01*
X37592176Y23062982D01*
X37591824Y22658792D01*
X29692600Y22658792D01*
X29692600Y29210000D01*
X29636530Y29491885D01*
X29476855Y29730855D01*
X28206855Y31000855D01*
X27967885Y31160530D01*
X27686000Y31216600D01*
X26796633Y31216600D01*
X26705309Y31353277D01*
X26304646Y31620991D01*
X25832032Y31715000D01*
X25316766Y31715000D01*
X25146186Y31749543D01*
X25317817Y31781838D01*
X25322731Y31785000D01*
X25832032Y31785000D01*
X26304646Y31879009D01*
X26705309Y32146723D01*
X26973023Y32547386D01*
X27067032Y33020000D01*
X26973023Y33492614D01*
X26705309Y33893277D01*
X26304646Y34160991D01*
X25832032Y34255000D01*
X25316766Y34255000D01*
X25146186Y34289543D01*
X25317817Y34321838D01*
X25322731Y34325000D01*
X25832032Y34325000D01*
X26304646Y34419009D01*
X26705309Y34686723D01*
X26973023Y35087386D01*
X27067032Y35560000D01*
X26973023Y36032614D01*
X26705309Y36433277D01*
X26304646Y36700991D01*
X25832032Y36795000D01*
X25316766Y36795000D01*
X25146186Y36829543D01*
X25317817Y36861838D01*
X25322731Y36865000D01*
X25832032Y36865000D01*
X26304646Y36959009D01*
X26434633Y37045863D01*
X26447838Y36975683D01*
X26586910Y36759559D01*
X26799110Y36614569D01*
X27051000Y36563560D01*
X28829000Y36563560D01*
X29064317Y36607838D01*
X29280441Y36746910D01*
X29425431Y36959110D01*
X29476440Y37211000D01*
X29476440Y38989000D01*
X29432162Y39224317D01*
X29293090Y39440441D01*
X29080890Y39585431D01*
X28829000Y39636440D01*
X27051000Y39636440D01*
X26815683Y39592162D01*
X26599559Y39453090D01*
X26454569Y39240890D01*
X26436719Y39152743D01*
X26304646Y39240991D01*
X25832032Y39335000D01*
X25316766Y39335000D01*
X25146186Y39369543D01*
X25317817Y39401838D01*
X25322731Y39405000D01*
X25832032Y39405000D01*
X26304646Y39499009D01*
X26705309Y39766723D01*
X26973023Y40167386D01*
X27067032Y40640000D01*
X26973023Y41112614D01*
X26705309Y41513277D01*
X26304646Y41780991D01*
X25832032Y41875000D01*
X25316766Y41875000D01*
X25143931Y41910000D01*
X25208810Y41910000D01*
X25442199Y42006673D01*
X25527000Y42091474D01*
X25527000Y41945000D01*
X25927000Y41945000D01*
X26389947Y42087610D01*
X26763080Y42396526D01*
X26989592Y42824719D01*
X26993462Y42862391D01*
X26868731Y43053000D01*
X23622000Y43053000D01*
X23622000Y43033000D01*
X23368000Y43033000D01*
X23368000Y43053000D01*
X21431250Y43053000D01*
X21272500Y42894250D01*
X21272500Y42418691D01*
X21369173Y42185302D01*
X21517474Y42037000D01*
X19050000Y42037000D01*
X19003841Y42028315D01*
X18961447Y42001035D01*
X18933006Y41959410D01*
X18923000Y41910000D01*
X18923000Y33299710D01*
X18681855Y33540855D01*
X18442885Y33700530D01*
X18161000Y33756600D01*
X17192440Y33756600D01*
X17192440Y34845000D01*
X17148162Y35080317D01*
X17009090Y35296441D01*
X16796890Y35441431D01*
X16545000Y35492440D01*
X16245000Y35492440D01*
X16141329Y35472933D01*
X16045000Y35492440D01*
X15745000Y35492440D01*
X15641329Y35472933D01*
X15545000Y35492440D01*
X15245000Y35492440D01*
X15141329Y35472933D01*
X15045000Y35492440D01*
X14745000Y35492440D01*
X14641329Y35472933D01*
X14545000Y35492440D01*
X14245000Y35492440D01*
X14009683Y35448162D01*
X13793559Y35309090D01*
X13648569Y35096890D01*
X13597560Y34845000D01*
X13597560Y33712224D01*
X13395234Y33628625D01*
X13109179Y33343069D01*
X12954176Y32969782D01*
X12953824Y32565592D01*
X3801727Y32565592D01*
X4325657Y32782075D01*
X4821185Y33276739D01*
X5089693Y33923379D01*
X5090304Y34623550D01*
X4822925Y35270657D01*
X4328261Y35766185D01*
X3759006Y36002560D01*
X4455000Y36002560D01*
X4690317Y36046838D01*
X4906441Y36185910D01*
X5051431Y36398110D01*
X5102440Y36650000D01*
X5102440Y38900000D01*
X5058162Y39135317D01*
X4919090Y39351441D01*
X4706890Y39496431D01*
X4455000Y39547440D01*
X2205000Y39547440D01*
X1969683Y39503162D01*
X1753559Y39364090D01*
X1608569Y39151890D01*
X1557560Y38900000D01*
X762000Y38900000D01*
X762000Y40946792D01*
X12953824Y40946792D01*
X13107012Y40576049D01*
X12954176Y40207982D01*
X12953824Y39803792D01*
X13108175Y39430234D01*
X13393731Y39144179D01*
X13597560Y39059541D01*
X13597560Y37795000D01*
X13641838Y37559683D01*
X13780910Y37343559D01*
X13993110Y37198569D01*
X14245000Y37147560D01*
X14545000Y37147560D01*
X14648671Y37167067D01*
X14745000Y37147560D01*
X15045000Y37147560D01*
X15116324Y37160981D01*
X15118691Y37160000D01*
X15161250Y37160000D01*
X15172871Y37171621D01*
X15280317Y37191838D01*
X15394978Y37265620D01*
X15493110Y37198569D01*
X15614830Y37173920D01*
X15628750Y37160000D01*
X15671309Y37160000D01*
X15675335Y37161668D01*
X15745000Y37147560D01*
X16045000Y37147560D01*
X16148671Y37167067D01*
X16245000Y37147560D01*
X16545000Y37147560D01*
X16780317Y37191838D01*
X16996441Y37330910D01*
X17141431Y37543110D01*
X17192440Y37795000D01*
X17192440Y38988847D01*
X17219208Y38988824D01*
X17592766Y39143175D01*
X17878821Y39428731D01*
X18033824Y39802018D01*
X18034176Y40206208D01*
X17879825Y40579766D01*
X17594269Y40865821D01*
X17399157Y40946839D01*
X17399176Y40968208D01*
X17244825Y41341766D01*
X16959269Y41627821D01*
X16585982Y41782824D01*
X16181792Y41783176D01*
X15808234Y41628825D01*
X15522179Y41343269D01*
X15367176Y40969982D01*
X15367022Y40792688D01*
X14986023Y41173687D01*
X14986176Y41349208D01*
X14831825Y41722766D01*
X14546269Y42008821D01*
X14172982Y42163824D01*
X13768792Y42164176D01*
X13395234Y42009825D01*
X13109179Y41724269D01*
X12954176Y41350982D01*
X12953824Y40946792D01*
X762000Y40946792D01*
X762000Y44032688D01*
X2302293Y44032688D01*
X2705762Y43506076D01*
X4219730Y42862693D01*
X5864666Y42847654D01*
X7390145Y43463250D01*
X7454238Y43506076D01*
X7857707Y44032688D01*
X5080000Y46810395D01*
X2302293Y44032688D01*
X762000Y44032688D01*
X762000Y46205334D01*
X937654Y46205334D01*
X1553250Y44679855D01*
X1596076Y44615762D01*
X2122688Y44212293D01*
X4900395Y46990000D01*
X5259605Y46990000D01*
X8037312Y44212293D01*
X8563924Y44615762D01*
X9207307Y46129730D01*
X9222346Y47774666D01*
X8606750Y49300145D01*
X8563924Y49364238D01*
X8037312Y49767707D01*
X5259605Y46990000D01*
X4900395Y46990000D01*
X2122688Y49767707D01*
X1596076Y49364238D01*
X952693Y47850270D01*
X937654Y46205334D01*
X762000Y46205334D01*
X762000Y49947312D01*
X2302293Y49947312D01*
X5080000Y47169605D01*
X7857707Y49947312D01*
X7454238Y50473924D01*
X5940270Y51117307D01*
X4295334Y51132346D01*
X2769855Y50516750D01*
X2705762Y50473924D01*
X2302293Y49947312D01*
X762000Y49947312D01*
X762000Y51308000D01*
X18923000Y51308000D01*
X18923000Y44450000D01*
M02*
