M48
;DRILL file {KiCad 4.0.4-stable} date Sunday, November 27, 2016 'PMt' 03:21:02 PM
;FORMAT={-:-/ absolute / inch / decimal}
FMAT,2
INCH,TZ
T1C0.015
T2C0.020
T3C0.040
T4C0.047
T5C0.138
%
G90
G05
M72
T1
X0.305Y1.435
X0.305Y0.705
X0.355Y0.425
X0.36Y1.175
X0.395Y1.48
X0.395Y1.38
X0.405Y0.73
X0.405Y0.63
X0.455Y1.13
X0.455Y0.985
X0.46Y1.735
X0.46Y0.375
X0.505Y1.78
X0.505Y0.325
X0.55Y1.62
X0.55Y1.575
X0.55Y1.29
X0.55Y1.25
X0.5511Y0.8599
X0.5511Y0.8199
X0.5511Y0.5399
X0.5511Y0.4999
X0.555Y0.985
X0.605Y1.095
X0.605Y0.355
X0.645Y1.605
X0.6611Y0.5372
X0.67Y1.575
X0.695Y0.52
X0.825Y1.2
X0.835Y1.1
X1.07Y1.03
X1.52Y0.9
T2
X0.0967Y1.85
X0.0967Y0.2
X0.1269Y1.9231
X0.1269Y1.7769
X0.1269Y0.2731
X0.1269Y0.1269
X0.2Y1.9533
X0.2Y1.7467
X0.2Y0.3033
X0.2Y0.0967
X0.2731Y1.9231
X0.2731Y1.7769
X0.2731Y0.2731
X0.2731Y0.1269
X0.3033Y1.85
X0.3033Y0.2
X1.5967Y0.2
X1.6269Y0.2731
X1.6269Y0.1269
X1.7Y0.3033
X1.7Y0.0967
X1.7731Y0.2731
X1.7731Y0.1269
X1.8033Y0.2
T3
X1.Y1.8
X1.Y1.7
X1.Y1.6
X1.Y1.5
X1.Y1.4
X1.Y1.3
X1.Y1.2
X1.Y1.1
X1.Y1.
X1.Y0.9
X1.Y0.8
X1.Y0.7
X1.7Y1.8
X1.7Y1.7
X1.7Y1.6
X1.7Y1.5
X1.7Y1.4
X1.7Y1.3
X1.7Y1.2
X1.7Y1.1
X1.7Y1.
X1.7Y0.9
X1.7Y0.8
X1.7Y0.7
T4
X0.1311Y1.4872
X0.1311Y1.3494
X0.1311Y1.2116
X0.1311Y1.0738
X0.1311Y0.936
X0.1311Y0.7982
X0.1311Y0.6604
X0.1311Y0.5226
X0.95Y0.3
X0.95Y0.2
X1.05Y0.3
X1.05Y0.2
X1.15Y0.3
X1.15Y0.2
X1.25Y0.3
X1.25Y0.2
X1.35Y0.3
X1.35Y0.2
T5
X0.2Y1.85
X0.2Y0.2
X1.7Y0.2
T0
M30
