G04 #@! TF.FileFunction,Paste,Top*
%FSLAX46Y46*%
G04 Gerber Fmt 4.6, Leading zero omitted, Abs format (unit mm)*
G04 Created by KiCad (PCBNEW 4.0.4-stable) date Sunday, November 27, 2016 'PMt' 03:20:47 PM*
%MOMM*%
%LPD*%
G01*
G04 APERTURE LIST*
%ADD10C,0.100000*%
%ADD11R,3.175000X1.270000*%
%ADD12R,1.778000X1.778000*%
%ADD13R,1.143000X1.143000*%
%ADD14R,1.524000X1.778000*%
%ADD15R,0.800000X0.750000*%
%ADD16R,0.300000X1.450000*%
G04 APERTURE END LIST*
D10*
D11*
X23495000Y45720000D03*
X23495000Y43180000D03*
X23495000Y40640000D03*
X23495000Y38100000D03*
X23495000Y35560000D03*
X23495000Y33020000D03*
X23495000Y30480000D03*
X23495000Y27940000D03*
X23495000Y25400000D03*
X23495000Y22860000D03*
X23495000Y20320000D03*
X23495000Y17780000D03*
X45085000Y17780000D03*
X45085000Y20320000D03*
X45085000Y22860000D03*
X45085000Y25400000D03*
X45085000Y27940000D03*
X45085000Y30480000D03*
X45085000Y33020000D03*
X45085000Y35560000D03*
X45085000Y38100000D03*
X45085000Y40640000D03*
X45085000Y43180000D03*
X45085000Y45720000D03*
D12*
X27940000Y45720000D03*
X27940000Y38100000D03*
D13*
X27940000Y27940000D03*
X40640000Y43180000D03*
X40640000Y45720000D03*
D14*
X35306000Y48514000D03*
X33274000Y48514000D03*
D15*
X15280000Y29335000D03*
X16780000Y29335000D03*
X15280000Y10285000D03*
X16780000Y10285000D03*
X15280000Y31240000D03*
X16780000Y31240000D03*
X15280000Y12190000D03*
X16780000Y12190000D03*
D16*
X16395000Y34120000D03*
X16395000Y38520000D03*
X15895000Y34120000D03*
X15895000Y38520000D03*
X15395000Y34120000D03*
X15395000Y38520000D03*
X14895000Y34120000D03*
X14895000Y38520000D03*
X14395000Y34120000D03*
X14395000Y38520000D03*
X16395000Y15070000D03*
X16395000Y19470000D03*
X15895000Y15070000D03*
X15895000Y19470000D03*
X15395000Y15070000D03*
X15395000Y19470000D03*
X14895000Y15070000D03*
X14895000Y19470000D03*
X14395000Y15070000D03*
X14395000Y19470000D03*
M02*
