G04 #@! TF.FileFunction,Copper,L2,Bot,Signal*
%FSLAX46Y46*%
G04 Gerber Fmt 4.6, Leading zero omitted, Abs format (unit mm)*
G04 Created by KiCad (PCBNEW 4.0.4-stable) date Sunday, November 27, 2016 'PMt' 03:20:47 PM*
%MOMM*%
%LPD*%
G01*
G04 APERTURE LIST*
%ADD10C,0.100000*%
%ADD11O,2.000000X1.200000*%
%ADD12R,0.750000X0.800000*%
%ADD13R,0.800000X0.750000*%
%ADD14R,2.250000X2.250000*%
%ADD15C,2.250000*%
%ADD16C,7.000000*%
%ADD17C,0.600000*%
%ADD18C,1.900000*%
%ADD19R,1.900000X1.900000*%
%ADD20C,0.762000*%
%ADD21C,0.203200*%
%ADD22C,0.254000*%
%ADD23C,0.635000*%
%ADD24C,1.270000*%
%ADD25C,0.304800*%
G04 APERTURE END LIST*
D10*
G36*
X27893542Y18111603D02*
X29373668Y16769802D01*
X30853795Y15428000D01*
X32971730Y15428000D01*
X35089665Y15428000D01*
X36598062Y16769827D01*
X38106458Y18111653D01*
X38106459Y20009706D01*
X38106459Y21907759D01*
X36598024Y23239879D01*
X35089589Y24572000D01*
X34604388Y24571856D01*
X34119188Y24571712D01*
X33924719Y24245554D01*
X33730250Y23919395D01*
X33730250Y23032215D01*
X33730250Y22145035D01*
X34791248Y20458932D01*
X35852246Y18772830D01*
X35803279Y18725685D01*
X35794204Y18717008D01*
X35777870Y18701462D01*
X35754706Y18679453D01*
X35725139Y18651384D01*
X35689599Y18617664D01*
X35648512Y18578697D01*
X35602307Y18534888D01*
X35551412Y18486645D01*
X35496254Y18434372D01*
X35437263Y18378474D01*
X35374865Y18319359D01*
X35309489Y18257431D01*
X35241563Y18193096D01*
X35171514Y18126760D01*
X35099772Y18058828D01*
X35082856Y18042812D01*
X34411400Y17407083D01*
X32970892Y17407083D01*
X31530384Y17407083D01*
X30895575Y18009011D01*
X30824824Y18076095D01*
X30755247Y18142066D01*
X30687317Y18206472D01*
X30621510Y18268865D01*
X30558299Y18328793D01*
X30498158Y18385809D01*
X30441563Y18439462D01*
X30388988Y18489302D01*
X30340906Y18534880D01*
X30297793Y18575746D01*
X30260123Y18611450D01*
X30228369Y18641543D01*
X30203007Y18665575D01*
X30184511Y18683095D01*
X30175754Y18691386D01*
X30090744Y18771834D01*
X31180247Y20458460D01*
X32269750Y22145087D01*
X32269750Y23032113D01*
X32269750Y23919140D01*
X32046594Y24245570D01*
X31823438Y24572000D01*
X31338698Y24572000D01*
X30853958Y24572000D01*
X29373750Y23239836D01*
X27893542Y21907671D01*
X27893542Y20009637D01*
X27893542Y18111603D01*
X27893542Y18111603D01*
X27893542Y18111603D01*
G37*
X27893542Y18111603D02*
X29373668Y16769802D01*
X30853795Y15428000D01*
X32971730Y15428000D01*
X35089665Y15428000D01*
X36598062Y16769827D01*
X38106458Y18111653D01*
X38106459Y20009706D01*
X38106459Y21907759D01*
X36598024Y23239879D01*
X35089589Y24572000D01*
X34604388Y24571856D01*
X34119188Y24571712D01*
X33924719Y24245554D01*
X33730250Y23919395D01*
X33730250Y23032215D01*
X33730250Y22145035D01*
X34791248Y20458932D01*
X35852246Y18772830D01*
X35803279Y18725685D01*
X35794204Y18717008D01*
X35777870Y18701462D01*
X35754706Y18679453D01*
X35725139Y18651384D01*
X35689599Y18617664D01*
X35648512Y18578697D01*
X35602307Y18534888D01*
X35551412Y18486645D01*
X35496254Y18434372D01*
X35437263Y18378474D01*
X35374865Y18319359D01*
X35309489Y18257431D01*
X35241563Y18193096D01*
X35171514Y18126760D01*
X35099772Y18058828D01*
X35082856Y18042812D01*
X34411400Y17407083D01*
X32970892Y17407083D01*
X31530384Y17407083D01*
X30895575Y18009011D01*
X30824824Y18076095D01*
X30755247Y18142066D01*
X30687317Y18206472D01*
X30621510Y18268865D01*
X30558299Y18328793D01*
X30498158Y18385809D01*
X30441563Y18439462D01*
X30388988Y18489302D01*
X30340906Y18534880D01*
X30297793Y18575746D01*
X30260123Y18611450D01*
X30228369Y18641543D01*
X30203007Y18665575D01*
X30184511Y18683095D01*
X30175754Y18691386D01*
X30090744Y18771834D01*
X31180247Y20458460D01*
X32269750Y22145087D01*
X32269750Y23032113D01*
X32269750Y23919140D01*
X32046594Y24245570D01*
X31823438Y24572000D01*
X31338698Y24572000D01*
X30853958Y24572000D01*
X29373750Y23239836D01*
X27893542Y21907671D01*
X27893542Y20009637D01*
X27893542Y18111603D01*
X27893542Y18111603D01*
D11*
X43180000Y45720000D03*
X25400000Y45720000D03*
X43180000Y43180000D03*
X25400000Y43180000D03*
X43180000Y40640000D03*
X25400000Y40640000D03*
X43180000Y38100000D03*
X25400000Y38100000D03*
X43180000Y35560000D03*
X25400000Y35560000D03*
X43180000Y33020000D03*
X25400000Y33020000D03*
X43180000Y30480000D03*
X25400000Y30480000D03*
X43180000Y27940000D03*
X25400000Y27940000D03*
X43180000Y25400000D03*
X25400000Y25400000D03*
X43180000Y22860000D03*
X25400000Y22860000D03*
X43180000Y20320000D03*
X25400000Y20320000D03*
X43180000Y17780000D03*
X25400000Y17780000D03*
D12*
X12855000Y40880000D03*
X12855000Y39380000D03*
X12855000Y33260000D03*
X12855000Y31760000D03*
X12855000Y21830000D03*
X12855000Y20330000D03*
X12855000Y14210000D03*
X12855000Y12710000D03*
X12855000Y44055000D03*
X12855000Y42555000D03*
D13*
X12970000Y37590000D03*
X11470000Y37590000D03*
X11470000Y35050000D03*
X12970000Y35050000D03*
D12*
X12855000Y30085000D03*
X12855000Y28585000D03*
X12855000Y25005000D03*
X12855000Y23505000D03*
D13*
X12970000Y18540000D03*
X11470000Y18540000D03*
X11470000Y16000000D03*
X12970000Y16000000D03*
D12*
X12855000Y11035000D03*
X12855000Y9535000D03*
D14*
X3330000Y37775000D03*
D15*
X3330000Y34275000D03*
X3330000Y30775000D03*
X3330000Y27275000D03*
X3330000Y23775000D03*
X3330000Y20275000D03*
X3330000Y16775000D03*
X3330000Y13275000D03*
D12*
X7775000Y42785000D03*
X7775000Y41285000D03*
X7775000Y39610000D03*
X7775000Y38110000D03*
X7775000Y34530000D03*
X7775000Y33030000D03*
X7775000Y31355000D03*
X7775000Y29855000D03*
X7775000Y23735000D03*
X7775000Y22235000D03*
X7775000Y20560000D03*
X7775000Y19060000D03*
X7775000Y15480000D03*
X7775000Y13980000D03*
X7775000Y12305000D03*
X7775000Y10805000D03*
D13*
X11065000Y41400000D03*
X9565000Y41400000D03*
X11065000Y39495000D03*
X9565000Y39495000D03*
X11065000Y33145000D03*
X9565000Y33145000D03*
X11065000Y31240000D03*
X9565000Y31240000D03*
X11065000Y22350000D03*
X9565000Y22350000D03*
X11065000Y20445000D03*
X9565000Y20445000D03*
X11065000Y14095000D03*
X9565000Y14095000D03*
X11065000Y12190000D03*
X9565000Y12190000D03*
D16*
X43180000Y5080000D03*
D17*
X45805000Y5080000D03*
X45036155Y3223845D03*
X43180000Y2455000D03*
X41323845Y3223845D03*
X40555000Y5080000D03*
X41323845Y6936155D03*
X43180000Y7705000D03*
X45036155Y6936155D03*
D16*
X5080000Y46990000D03*
D17*
X7705000Y46990000D03*
X6936155Y45133845D03*
X5080000Y44365000D03*
X3223845Y45133845D03*
X2455000Y46990000D03*
X3223845Y48846155D03*
X5080000Y49615000D03*
X6936155Y48846155D03*
D16*
X5080000Y5080000D03*
D17*
X7705000Y5080000D03*
X6936155Y3223845D03*
X5080000Y2455000D03*
X3223845Y3223845D03*
X2455000Y5080000D03*
X3223845Y6936155D03*
X5080000Y7705000D03*
X6936155Y6936155D03*
D18*
X34290000Y5080000D03*
D19*
X34290000Y7620000D03*
D18*
X31750000Y5080000D03*
X31750000Y7620000D03*
X29210000Y5080000D03*
X29210000Y7620000D03*
X26670000Y5080000D03*
X26670000Y7620000D03*
X24130000Y5080000D03*
X24130000Y7620000D03*
D20*
X13970000Y41148000D03*
X13970000Y40005000D03*
X13970000Y32766800D03*
X13970000Y31750000D03*
X13998000Y21842000D03*
X13998000Y20826000D03*
X13998000Y13714000D03*
X13998000Y12698000D03*
X10033000Y35052000D03*
X12827000Y8255000D03*
X11684000Y9525000D03*
X9017000Y10795000D03*
X7747000Y17907000D03*
X10287000Y18542000D03*
X10287000Y16002000D03*
X11557000Y25019000D03*
X14097000Y25019000D03*
X11557000Y28702000D03*
X9144000Y29845000D03*
X11684000Y44069000D03*
X12827000Y45212000D03*
X10033000Y37592000D03*
X7747000Y36449000D03*
X15367000Y27813000D03*
X15367000Y9017000D03*
X21209000Y27940000D03*
X17653000Y13208000D03*
X17018000Y40005000D03*
X20955000Y30480000D03*
X16791799Y13643851D03*
X16383000Y40767000D03*
X38608000Y22860000D03*
X27178000Y26162000D03*
D21*
X12855000Y40880000D02*
X12276800Y40880000D01*
X12276800Y40880000D02*
X11756800Y41400000D01*
X11756800Y41400000D02*
X11065000Y41400000D01*
X12855000Y40880000D02*
X12855000Y42555000D01*
X12855000Y40880000D02*
X13702000Y40880000D01*
X13702000Y40880000D02*
X13970000Y41148000D01*
X11065000Y39495000D02*
X12740000Y39495000D01*
X12740000Y39495000D02*
X12855000Y39380000D01*
X12855000Y39380000D02*
X12855000Y37705000D01*
X12855000Y37705000D02*
X12970000Y37590000D01*
X12855000Y39380000D02*
X13345000Y39380000D01*
X13345000Y39380000D02*
X13970000Y40005000D01*
X12855000Y33260000D02*
X13476800Y33260000D01*
X13476800Y33260000D02*
X13970000Y32766800D01*
X12855000Y33260000D02*
X12855000Y34935000D01*
X12855000Y34935000D02*
X12970000Y35050000D01*
X11065000Y33145000D02*
X12740000Y33145000D01*
X12740000Y33145000D02*
X12855000Y33260000D01*
X13970000Y31750000D02*
X12865000Y31750000D01*
X12865000Y31750000D02*
X12855000Y31760000D01*
X12855000Y31760000D02*
X12855000Y30085000D01*
X11065000Y31240000D02*
X11668200Y31240000D01*
X11668200Y31240000D02*
X12188200Y31760000D01*
X12188200Y31760000D02*
X12855000Y31760000D01*
X12855000Y21830000D02*
X12276800Y21830000D01*
X12276800Y21830000D02*
X11756800Y22350000D01*
X11756800Y22350000D02*
X11065000Y22350000D01*
X12855000Y21830000D02*
X12855000Y23505000D01*
X13998000Y21842000D02*
X12867000Y21842000D01*
X12867000Y21842000D02*
X12855000Y21830000D01*
X12855000Y20330000D02*
X12855000Y19558000D01*
X12970000Y18540000D02*
X12970000Y19118200D01*
X12970000Y19118200D02*
X12855000Y19233200D01*
X12855000Y19233200D02*
X12855000Y19558000D01*
X11065000Y20445000D02*
X12740000Y20445000D01*
X12740000Y20445000D02*
X12855000Y20330000D01*
X13490000Y20318000D02*
X13478000Y20330000D01*
X13478000Y20330000D02*
X12855000Y20330000D01*
X13998000Y20826000D02*
X13490000Y20318000D01*
X12855000Y14210000D02*
X12855000Y15885000D01*
X12855000Y15885000D02*
X12970000Y16000000D01*
X11065000Y14095000D02*
X12740000Y14095000D01*
X12740000Y14095000D02*
X12855000Y14210000D01*
X13490000Y14222000D02*
X13478000Y14210000D01*
X13478000Y14210000D02*
X12855000Y14210000D01*
X13998000Y13714000D02*
X13490000Y14222000D01*
X12855000Y11035000D02*
X12855000Y12710000D01*
X11682000Y12190000D02*
X12202000Y12710000D01*
X12202000Y12710000D02*
X12855000Y12710000D01*
X11065000Y12190000D02*
X11682000Y12190000D01*
X12855000Y12710000D02*
X13986000Y12710000D01*
X13986000Y12710000D02*
X13998000Y12698000D01*
X11470000Y35050000D02*
X10035000Y35050000D01*
X10035000Y35050000D02*
X10033000Y35052000D01*
D22*
X12855000Y25005000D02*
X11571000Y25005000D01*
X11571000Y25005000D02*
X11557000Y25019000D01*
X14097000Y25019000D02*
X12869000Y25019000D01*
X12869000Y25019000D02*
X12855000Y25005000D01*
D21*
X12855000Y9535000D02*
X12855000Y8283000D01*
X12855000Y8283000D02*
X12827000Y8255000D01*
X11684000Y9525000D02*
X12845000Y9525000D01*
X12845000Y9525000D02*
X12855000Y9535000D01*
X7775000Y10805000D02*
X9007000Y10805000D01*
X9007000Y10805000D02*
X9017000Y10795000D01*
X7775000Y19060000D02*
X7775000Y17935000D01*
X7775000Y17935000D02*
X7747000Y17907000D01*
X11470000Y18540000D02*
X10289000Y18540000D01*
X10289000Y18540000D02*
X10287000Y18542000D01*
X11470000Y16000000D02*
X10289000Y16000000D01*
X10289000Y16000000D02*
X10287000Y16002000D01*
X11557000Y28702000D02*
X12738000Y28702000D01*
X12738000Y28702000D02*
X12855000Y28585000D01*
X7775000Y29855000D02*
X9134000Y29855000D01*
X9134000Y29855000D02*
X9144000Y29845000D01*
X12855000Y44055000D02*
X12855000Y45184000D01*
X12855000Y45184000D02*
X12827000Y45212000D01*
X7775000Y38110000D02*
X7775000Y36477000D01*
X7775000Y36477000D02*
X7747000Y36449000D01*
D23*
X15367000Y26416000D02*
X15367000Y27813000D01*
X15367000Y27813000D02*
X15367000Y36449000D01*
X12113702Y46113702D02*
X8785000Y42785000D01*
X13259818Y46113702D02*
X12113702Y46113702D01*
X15367000Y44006520D02*
X13259818Y46113702D01*
X15367000Y38735000D02*
X15367000Y44006520D01*
X8785000Y42785000D02*
X7775000Y42785000D01*
X15367000Y36449000D02*
X15367000Y38735000D01*
X9542000Y36322000D02*
X15240000Y36322000D01*
X15240000Y36322000D02*
X15367000Y36449000D01*
X7775000Y34530000D02*
X7775000Y34555000D01*
X7775000Y34555000D02*
X9542000Y36322000D01*
D24*
X38481000Y7620000D02*
X46355000Y15494000D01*
X46355000Y15494000D02*
X46355000Y44815000D01*
X46355000Y44815000D02*
X45450000Y45720000D01*
X45450000Y45720000D02*
X43180000Y45720000D01*
X15367000Y9017000D02*
X20447000Y9017000D01*
X38481000Y7620000D02*
X34290000Y7620000D01*
X20447000Y9017000D02*
X20955000Y8509000D01*
X20955000Y8509000D02*
X20955000Y3556000D01*
X20955000Y3556000D02*
X22733000Y1778000D01*
X22733000Y1778000D02*
X37465000Y1778000D01*
X38481000Y2794000D02*
X38481000Y7620000D01*
X37465000Y1778000D02*
X38481000Y2794000D01*
D23*
X15367000Y9017000D02*
X15367000Y17272000D01*
X9525000Y17272000D02*
X15367000Y17272000D01*
X15367000Y17272000D02*
X15367000Y26416000D01*
D25*
X9525000Y17272000D02*
X14732000Y17272000D01*
D23*
X7775000Y15480000D02*
X7775000Y16515000D01*
X7775000Y16515000D02*
X8532000Y17272000D01*
X8532000Y17272000D02*
X9525000Y17272000D01*
X7775000Y23735000D02*
X7775000Y24770000D01*
X7775000Y24770000D02*
X9421000Y26416000D01*
X9421000Y26416000D02*
X9751200Y26416000D01*
X13081000Y26416000D02*
X9751200Y26416000D01*
D25*
X13081000Y26416000D02*
X14097000Y26416000D01*
D23*
X13081000Y26416000D02*
X15367000Y26416000D01*
X15367000Y38354000D02*
X15367000Y38735000D01*
D25*
X7775000Y23735000D02*
X7775000Y24439800D01*
X15367000Y16637000D02*
X15367000Y9017000D01*
D21*
X9565000Y41400000D02*
X7890000Y41400000D01*
X7890000Y41400000D02*
X7775000Y41285000D01*
X7775000Y41285000D02*
X5511800Y41285000D01*
X5511800Y41285000D02*
X3330000Y39103200D01*
X3330000Y39103200D02*
X3330000Y37775000D01*
X7775000Y39610000D02*
X9450000Y39610000D01*
X9450000Y39610000D02*
X9565000Y39495000D01*
X5969000Y38382200D02*
X5969000Y36914000D01*
X5969000Y36914000D02*
X3330000Y34275000D01*
X7775000Y39610000D02*
X7196800Y39610000D01*
X7196800Y39610000D02*
X5969000Y38382200D01*
X7775000Y33030000D02*
X9450000Y33030000D01*
X9450000Y33030000D02*
X9565000Y33145000D01*
X3330000Y30775000D02*
X5585000Y33030000D01*
X5585000Y33030000D02*
X7775000Y33030000D01*
X7775000Y31355000D02*
X9450000Y31355000D01*
X9450000Y31355000D02*
X9565000Y31240000D01*
X3330000Y27275000D02*
X4826000Y28771000D01*
X5588000Y30480000D02*
X5588000Y29533000D01*
X5588000Y29533000D02*
X4826000Y28771000D01*
X6463000Y31355000D02*
X5588000Y30480000D01*
X7775000Y31355000D02*
X6463000Y31355000D01*
X7775000Y22235000D02*
X9450000Y22235000D01*
X9450000Y22235000D02*
X9565000Y22350000D01*
X7775000Y22235000D02*
X4870000Y22235000D01*
X4870000Y22235000D02*
X3330000Y23775000D01*
X7775000Y20560000D02*
X9450000Y20560000D01*
X9450000Y20560000D02*
X9565000Y20445000D01*
X7775000Y20560000D02*
X3615000Y20560000D01*
X3615000Y20560000D02*
X3330000Y20275000D01*
X7775000Y13980000D02*
X9450000Y13980000D01*
X9450000Y13980000D02*
X9565000Y14095000D01*
X7775000Y13980000D02*
X6125000Y13980000D01*
X6125000Y13980000D02*
X3330000Y16775000D01*
X7775000Y12305000D02*
X9450000Y12305000D01*
X9450000Y12305000D02*
X9565000Y12190000D01*
X7775000Y12305000D02*
X4300000Y12305000D01*
X4300000Y12305000D02*
X3330000Y13275000D01*
X24130000Y5080000D02*
X25384801Y6334801D01*
X25384801Y6334801D02*
X25384801Y8112801D01*
X25384801Y8112801D02*
X29464000Y12192000D01*
X29464000Y12192000D02*
X33909000Y12192000D01*
X33909000Y12192000D02*
X39497000Y17780000D01*
X39497000Y17780000D02*
X39497000Y31496000D01*
X39497000Y31496000D02*
X41021000Y33020000D01*
X41021000Y33020000D02*
X43180000Y33020000D01*
X34077340Y11785589D02*
X31470589Y11785589D01*
X39903411Y17611660D02*
X34077340Y11785589D01*
X27619999Y6029999D02*
X26670000Y5080000D01*
X31470589Y11785589D02*
X27924801Y8239801D01*
X27924801Y8239801D02*
X27924801Y6334801D01*
X27924801Y6334801D02*
X27619999Y6029999D01*
X39903411Y26400211D02*
X39903411Y17611660D01*
X43180000Y29676800D02*
X39903411Y26400211D01*
X43180000Y30480000D02*
X43180000Y29676800D01*
X21590000Y17145000D02*
X21590000Y27559000D01*
X21590000Y27559000D02*
X21209000Y27940000D01*
X17653000Y13208000D02*
X21590000Y17145000D01*
X17018000Y40005000D02*
X19304000Y40005000D01*
X19304000Y40005000D02*
X22606000Y36703000D01*
X22606000Y36703000D02*
X22606000Y26416000D01*
X23622000Y25400000D02*
X25400000Y25400000D01*
X22606000Y26416000D02*
X23622000Y25400000D01*
X43180000Y24596800D02*
X43180000Y25400000D01*
X40792411Y22209211D02*
X43180000Y24596800D01*
X33020000Y6350000D02*
X33020000Y9578748D01*
X33020000Y9578748D02*
X40792411Y17351159D01*
X31750000Y5080000D02*
X33020000Y6350000D01*
X40792411Y17351159D02*
X40792411Y22209211D01*
X43180000Y27940000D02*
X43180000Y27136800D01*
X40386000Y24342800D02*
X40386000Y17519498D01*
X30464801Y8233300D02*
X30464801Y6334801D01*
X33610679Y11379178D02*
X30464801Y8233300D01*
X34245680Y11379178D02*
X33610679Y11379178D01*
X43180000Y27136800D02*
X40386000Y24342800D01*
X30159999Y6029999D02*
X29210000Y5080000D01*
X30464801Y6334801D02*
X30159999Y6029999D01*
X40386000Y17519498D02*
X34245680Y11379178D01*
X16791799Y13643851D02*
X21082000Y17934052D01*
X21082000Y17934052D02*
X21082000Y26797000D01*
X21082000Y26797000D02*
X20320000Y27559000D01*
X20320000Y29845000D02*
X20955000Y30480000D01*
X20320000Y27559000D02*
X20320000Y29845000D01*
X16383000Y40767000D02*
X16002001Y40386001D01*
X16002001Y40386001D02*
X16002001Y39877999D01*
X16002001Y39877999D02*
X16637000Y39243000D01*
X16637000Y39243000D02*
X19177000Y39243000D01*
X19177000Y39243000D02*
X21996411Y36423589D01*
X21996411Y36423589D02*
X21996411Y25863589D01*
X21996411Y25863589D02*
X25000000Y22860000D01*
X25000000Y22860000D02*
X25400000Y22860000D01*
X38608000Y22860000D02*
X35306000Y26162000D01*
X35306000Y26162000D02*
X27178000Y26162000D01*
D22*
G36*
X47498000Y762000D02*
X38186465Y762000D01*
X38363026Y879974D01*
X39379026Y1895974D01*
X39530511Y2122688D01*
X40402293Y2122688D01*
X40805762Y1596076D01*
X42319730Y952693D01*
X43964666Y937654D01*
X45490145Y1553250D01*
X45554238Y1596076D01*
X45957707Y2122688D01*
X43180000Y4900395D01*
X40402293Y2122688D01*
X39530511Y2122688D01*
X39654327Y2307992D01*
X39728507Y2680915D01*
X40222688Y2302293D01*
X43000395Y5080000D01*
X43359605Y5080000D01*
X46137312Y2302293D01*
X46663924Y2705762D01*
X47307307Y4219730D01*
X47322346Y5864666D01*
X46706750Y7390145D01*
X46663924Y7454238D01*
X46137312Y7857707D01*
X43359605Y5080000D01*
X43000395Y5080000D01*
X42986253Y5094142D01*
X43165858Y5273747D01*
X43180000Y5259605D01*
X45957707Y8037312D01*
X45554238Y8563924D01*
X44040270Y9207307D01*
X42395334Y9222346D01*
X41530333Y8873281D01*
X47253023Y14595972D01*
X47253026Y14595974D01*
X47498000Y14962604D01*
X47498000Y762000D01*
X47498000Y762000D01*
G37*
X47498000Y762000D02*
X38186465Y762000D01*
X38363026Y879974D01*
X39379026Y1895974D01*
X39530511Y2122688D01*
X40402293Y2122688D01*
X40805762Y1596076D01*
X42319730Y952693D01*
X43964666Y937654D01*
X45490145Y1553250D01*
X45554238Y1596076D01*
X45957707Y2122688D01*
X43180000Y4900395D01*
X40402293Y2122688D01*
X39530511Y2122688D01*
X39654327Y2307992D01*
X39728507Y2680915D01*
X40222688Y2302293D01*
X43000395Y5080000D01*
X43359605Y5080000D01*
X46137312Y2302293D01*
X46663924Y2705762D01*
X47307307Y4219730D01*
X47322346Y5864666D01*
X46706750Y7390145D01*
X46663924Y7454238D01*
X46137312Y7857707D01*
X43359605Y5080000D01*
X43000395Y5080000D01*
X42986253Y5094142D01*
X43165858Y5273747D01*
X43180000Y5259605D01*
X45957707Y8037312D01*
X45554238Y8563924D01*
X44040270Y9207307D01*
X42395334Y9222346D01*
X41530333Y8873281D01*
X47253023Y14595972D01*
X47253026Y14595974D01*
X47498000Y14962604D01*
X47498000Y762000D01*
G36*
X18923000Y44450000D02*
X18931685Y44403841D01*
X18958965Y44361447D01*
X19000590Y44333006D01*
X19050000Y44323000D01*
X21590000Y44323000D01*
X21636159Y44331685D01*
X21678553Y44358965D01*
X21706994Y44400590D01*
X21717000Y44450000D01*
X21717000Y45720000D01*
X23732968Y45720000D01*
X23826977Y45247386D01*
X24094691Y44846723D01*
X24495354Y44579009D01*
X24967968Y44485000D01*
X25832032Y44485000D01*
X26304646Y44579009D01*
X26705309Y44846723D01*
X26973023Y45247386D01*
X27067032Y45720000D01*
X26973023Y46192614D01*
X26705309Y46593277D01*
X26304646Y46860991D01*
X25832032Y46955000D01*
X24967968Y46955000D01*
X24495354Y46860991D01*
X24094691Y46593277D01*
X23826977Y46192614D01*
X23732968Y45720000D01*
X21717000Y45720000D01*
X21717000Y51308000D01*
X47498000Y51308000D01*
X47498000Y45346396D01*
X47253026Y45713026D01*
X47253023Y45713028D01*
X46348026Y46618026D01*
X45936008Y46893327D01*
X45450000Y46990001D01*
X45449995Y46990000D01*
X43180000Y46990000D01*
X43004043Y46955000D01*
X42747968Y46955000D01*
X42275354Y46860991D01*
X41874691Y46593277D01*
X41606977Y46192614D01*
X41512968Y45720000D01*
X41606977Y45247386D01*
X41874691Y44846723D01*
X42275354Y44579009D01*
X42747968Y44485000D01*
X43004043Y44485000D01*
X43180000Y44450000D01*
X44923948Y44450000D01*
X45085000Y44288949D01*
X45085000Y16020051D01*
X37954948Y8890000D01*
X35788670Y8890000D01*
X35704090Y9021441D01*
X35491890Y9166431D01*
X35240000Y9217440D01*
X33756600Y9217440D01*
X33756600Y9273638D01*
X41313266Y16830304D01*
X41472941Y17069274D01*
X41529011Y17351159D01*
X41529011Y17699347D01*
X41606977Y17307386D01*
X41874691Y16906723D01*
X42275354Y16639009D01*
X42747968Y16545000D01*
X43612032Y16545000D01*
X44084646Y16639009D01*
X44485309Y16906723D01*
X44753023Y17307386D01*
X44847032Y17780000D01*
X44753023Y18252614D01*
X44485309Y18653277D01*
X44084646Y18920991D01*
X43612032Y19015000D01*
X42747968Y19015000D01*
X42275354Y18920991D01*
X41874691Y18653277D01*
X41606977Y18252614D01*
X41529011Y17860653D01*
X41529011Y20239347D01*
X41606977Y19847386D01*
X41874691Y19446723D01*
X42275354Y19179009D01*
X42747968Y19085000D01*
X43612032Y19085000D01*
X44084646Y19179009D01*
X44485309Y19446723D01*
X44753023Y19847386D01*
X44847032Y20320000D01*
X44753023Y20792614D01*
X44485309Y21193277D01*
X44084646Y21460991D01*
X43612032Y21555000D01*
X42747968Y21555000D01*
X42275354Y21460991D01*
X41874691Y21193277D01*
X41606977Y20792614D01*
X41529011Y20400653D01*
X41529011Y21904101D01*
X41769325Y22144415D01*
X41874691Y21986723D01*
X42275354Y21719009D01*
X42747968Y21625000D01*
X43612032Y21625000D01*
X44084646Y21719009D01*
X44485309Y21986723D01*
X44753023Y22387386D01*
X44847032Y22860000D01*
X44753023Y23332614D01*
X44485309Y23733277D01*
X44084646Y24000991D01*
X43701673Y24077169D01*
X43774002Y24185417D01*
X43783096Y24199027D01*
X44084646Y24259009D01*
X44485309Y24526723D01*
X44753023Y24927386D01*
X44847032Y25400000D01*
X44753023Y25872614D01*
X44485309Y26273277D01*
X44084646Y26540991D01*
X43701673Y26617169D01*
X43745563Y26682855D01*
X43783096Y26739027D01*
X44084646Y26799009D01*
X44485309Y27066723D01*
X44753023Y27467386D01*
X44847032Y27940000D01*
X44753023Y28412614D01*
X44485309Y28813277D01*
X44084646Y29080991D01*
X43701673Y29157169D01*
X43760360Y29245000D01*
X43783096Y29279027D01*
X44084646Y29339009D01*
X44485309Y29606723D01*
X44753023Y30007386D01*
X44847032Y30480000D01*
X44753023Y30952614D01*
X44485309Y31353277D01*
X44084646Y31620991D01*
X43612032Y31715000D01*
X42747968Y31715000D01*
X42275354Y31620991D01*
X41874691Y31353277D01*
X41606977Y30952614D01*
X41512968Y30480000D01*
X41606977Y30007386D01*
X41874691Y29606723D01*
X41990699Y29529209D01*
X40233600Y27772110D01*
X40233600Y31190890D01*
X41326110Y32283400D01*
X41783367Y32283400D01*
X41874691Y32146723D01*
X42275354Y31879009D01*
X42747968Y31785000D01*
X43612032Y31785000D01*
X44084646Y31879009D01*
X44485309Y32146723D01*
X44753023Y32547386D01*
X44847032Y33020000D01*
X44753023Y33492614D01*
X44485309Y33893277D01*
X44084646Y34160991D01*
X43612032Y34255000D01*
X42747968Y34255000D01*
X42275354Y34160991D01*
X41874691Y33893277D01*
X41783367Y33756600D01*
X41021000Y33756600D01*
X40739115Y33700530D01*
X40500145Y33540855D01*
X38976145Y32016855D01*
X38816470Y31777885D01*
X38760400Y31496000D01*
X38760400Y23875868D01*
X38633732Y23875978D01*
X35826855Y26682855D01*
X35587885Y26842530D01*
X35306000Y26898600D01*
X27878273Y26898600D01*
X27754269Y27022821D01*
X27380982Y27177824D01*
X26976792Y27178176D01*
X26702480Y27064832D01*
X26705309Y27066723D01*
X26973023Y27467386D01*
X27067032Y27940000D01*
X26973023Y28412614D01*
X26705309Y28813277D01*
X26304646Y29080991D01*
X25832032Y29175000D01*
X24967968Y29175000D01*
X24495354Y29080991D01*
X24094691Y28813277D01*
X23826977Y28412614D01*
X23732968Y27940000D01*
X23826977Y27467386D01*
X24094691Y27066723D01*
X24495354Y26799009D01*
X24967968Y26705000D01*
X25832032Y26705000D01*
X26304646Y26799009D01*
X26526567Y26947291D01*
X26317179Y26738269D01*
X26240555Y26553739D01*
X25832032Y26635000D01*
X24967968Y26635000D01*
X24495354Y26540991D01*
X24094691Y26273277D01*
X24003367Y26136600D01*
X23927110Y26136600D01*
X23342600Y26721110D01*
X23342600Y30480000D01*
X23732968Y30480000D01*
X23826977Y30007386D01*
X24094691Y29606723D01*
X24495354Y29339009D01*
X24967968Y29245000D01*
X25832032Y29245000D01*
X26304646Y29339009D01*
X26705309Y29606723D01*
X26973023Y30007386D01*
X27067032Y30480000D01*
X26973023Y30952614D01*
X26705309Y31353277D01*
X26304646Y31620991D01*
X25832032Y31715000D01*
X24967968Y31715000D01*
X24495354Y31620991D01*
X24094691Y31353277D01*
X23826977Y30952614D01*
X23732968Y30480000D01*
X23342600Y30480000D01*
X23342600Y33020000D01*
X23732968Y33020000D01*
X23826977Y32547386D01*
X24094691Y32146723D01*
X24495354Y31879009D01*
X24967968Y31785000D01*
X25832032Y31785000D01*
X26304646Y31879009D01*
X26705309Y32146723D01*
X26973023Y32547386D01*
X27067032Y33020000D01*
X26973023Y33492614D01*
X26705309Y33893277D01*
X26304646Y34160991D01*
X25832032Y34255000D01*
X24967968Y34255000D01*
X24495354Y34160991D01*
X24094691Y33893277D01*
X23826977Y33492614D01*
X23732968Y33020000D01*
X23342600Y33020000D01*
X23342600Y35560000D01*
X23732968Y35560000D01*
X23826977Y35087386D01*
X24094691Y34686723D01*
X24495354Y34419009D01*
X24967968Y34325000D01*
X25832032Y34325000D01*
X26304646Y34419009D01*
X26705309Y34686723D01*
X26973023Y35087386D01*
X27067032Y35560000D01*
X41512968Y35560000D01*
X41606977Y35087386D01*
X41874691Y34686723D01*
X42275354Y34419009D01*
X42747968Y34325000D01*
X43612032Y34325000D01*
X44084646Y34419009D01*
X44485309Y34686723D01*
X44753023Y35087386D01*
X44847032Y35560000D01*
X44753023Y36032614D01*
X44485309Y36433277D01*
X44084646Y36700991D01*
X43612032Y36795000D01*
X42747968Y36795000D01*
X42275354Y36700991D01*
X41874691Y36433277D01*
X41606977Y36032614D01*
X41512968Y35560000D01*
X27067032Y35560000D01*
X26973023Y36032614D01*
X26705309Y36433277D01*
X26304646Y36700991D01*
X25832032Y36795000D01*
X24967968Y36795000D01*
X24495354Y36700991D01*
X24094691Y36433277D01*
X23826977Y36032614D01*
X23732968Y35560000D01*
X23342600Y35560000D01*
X23342600Y36703000D01*
X23286530Y36984885D01*
X23126855Y37223855D01*
X22250710Y38100000D01*
X23732968Y38100000D01*
X23826977Y37627386D01*
X24094691Y37226723D01*
X24495354Y36959009D01*
X24967968Y36865000D01*
X25832032Y36865000D01*
X26304646Y36959009D01*
X26705309Y37226723D01*
X26973023Y37627386D01*
X27003855Y37782391D01*
X41586538Y37782391D01*
X41590408Y37744719D01*
X41816920Y37316526D01*
X42190053Y37007610D01*
X42653000Y36865000D01*
X43053000Y36865000D01*
X43053000Y37973000D01*
X43307000Y37973000D01*
X43307000Y36865000D01*
X43707000Y36865000D01*
X44169947Y37007610D01*
X44543080Y37316526D01*
X44769592Y37744719D01*
X44773462Y37782391D01*
X44648731Y37973000D01*
X43307000Y37973000D01*
X43053000Y37973000D01*
X41711269Y37973000D01*
X41586538Y37782391D01*
X27003855Y37782391D01*
X27067032Y38100000D01*
X27003856Y38417609D01*
X41586538Y38417609D01*
X41711269Y38227000D01*
X43053000Y38227000D01*
X43053000Y39335000D01*
X43307000Y39335000D01*
X43307000Y38227000D01*
X44648731Y38227000D01*
X44773462Y38417609D01*
X44769592Y38455281D01*
X44543080Y38883474D01*
X44169947Y39192390D01*
X43707000Y39335000D01*
X43307000Y39335000D01*
X43053000Y39335000D01*
X42653000Y39335000D01*
X42190053Y39192390D01*
X41816920Y38883474D01*
X41590408Y38455281D01*
X41586538Y38417609D01*
X27003856Y38417609D01*
X26973023Y38572614D01*
X26705309Y38973277D01*
X26304646Y39240991D01*
X25832032Y39335000D01*
X24967968Y39335000D01*
X24495354Y39240991D01*
X24094691Y38973277D01*
X23826977Y38572614D01*
X23732968Y38100000D01*
X22250710Y38100000D01*
X21717000Y38633710D01*
X21717000Y40640000D01*
X23732968Y40640000D01*
X23826977Y40167386D01*
X24094691Y39766723D01*
X24495354Y39499009D01*
X24967968Y39405000D01*
X25832032Y39405000D01*
X26304646Y39499009D01*
X26705309Y39766723D01*
X26973023Y40167386D01*
X27067032Y40640000D01*
X41512968Y40640000D01*
X41606977Y40167386D01*
X41874691Y39766723D01*
X42275354Y39499009D01*
X42747968Y39405000D01*
X43612032Y39405000D01*
X44084646Y39499009D01*
X44485309Y39766723D01*
X44753023Y40167386D01*
X44847032Y40640000D01*
X44753023Y41112614D01*
X44485309Y41513277D01*
X44084646Y41780991D01*
X43612032Y41875000D01*
X42747968Y41875000D01*
X42275354Y41780991D01*
X41874691Y41513277D01*
X41606977Y41112614D01*
X41512968Y40640000D01*
X27067032Y40640000D01*
X26973023Y41112614D01*
X26705309Y41513277D01*
X26304646Y41780991D01*
X25832032Y41875000D01*
X24967968Y41875000D01*
X24495354Y41780991D01*
X24094691Y41513277D01*
X23826977Y41112614D01*
X23732968Y40640000D01*
X21717000Y40640000D01*
X21717000Y41910000D01*
X21708315Y41956159D01*
X21681035Y41998553D01*
X21639410Y42026994D01*
X21590000Y42037000D01*
X19050000Y42037000D01*
X19003841Y42028315D01*
X18961447Y42001035D01*
X18933006Y41959410D01*
X18923000Y41910000D01*
X18923000Y40741600D01*
X17718273Y40741600D01*
X17594269Y40865821D01*
X17399157Y40946839D01*
X17399176Y40968208D01*
X17244825Y41341766D01*
X16959269Y41627821D01*
X16585982Y41782824D01*
X16319500Y41783056D01*
X16319500Y42862391D01*
X23806538Y42862391D01*
X23810408Y42824719D01*
X24036920Y42396526D01*
X24410053Y42087610D01*
X24873000Y41945000D01*
X25273000Y41945000D01*
X25273000Y43053000D01*
X25527000Y43053000D01*
X25527000Y41945000D01*
X25927000Y41945000D01*
X26389947Y42087610D01*
X26763080Y42396526D01*
X26989592Y42824719D01*
X26993462Y42862391D01*
X26868731Y43053000D01*
X25527000Y43053000D01*
X25273000Y43053000D01*
X23931269Y43053000D01*
X23806538Y42862391D01*
X16319500Y42862391D01*
X16319500Y43180000D01*
X41512968Y43180000D01*
X41606977Y42707386D01*
X41874691Y42306723D01*
X42275354Y42039009D01*
X42747968Y41945000D01*
X43612032Y41945000D01*
X44084646Y42039009D01*
X44485309Y42306723D01*
X44753023Y42707386D01*
X44847032Y43180000D01*
X44753023Y43652614D01*
X44485309Y44053277D01*
X44084646Y44320991D01*
X43612032Y44415000D01*
X42747968Y44415000D01*
X42275354Y44320991D01*
X41874691Y44053277D01*
X41606977Y43652614D01*
X41512968Y43180000D01*
X16319500Y43180000D01*
X16319500Y43497609D01*
X23806538Y43497609D01*
X23931269Y43307000D01*
X25273000Y43307000D01*
X25273000Y44415000D01*
X25527000Y44415000D01*
X25527000Y43307000D01*
X26868731Y43307000D01*
X26993462Y43497609D01*
X26989592Y43535281D01*
X26763080Y43963474D01*
X26389947Y44272390D01*
X25927000Y44415000D01*
X25527000Y44415000D01*
X25273000Y44415000D01*
X24873000Y44415000D01*
X24410053Y44272390D01*
X24036920Y43963474D01*
X23810408Y43535281D01*
X23806538Y43497609D01*
X16319500Y43497609D01*
X16319500Y44006520D01*
X16246995Y44371026D01*
X16040519Y44680039D01*
X13933337Y46787221D01*
X13624324Y46993697D01*
X13259818Y47066202D01*
X12113702Y47066202D01*
X11749196Y46993697D01*
X11691282Y46955000D01*
X11440183Y46787222D01*
X8421199Y43768237D01*
X8401890Y43781431D01*
X8150000Y43832440D01*
X7704285Y43832440D01*
X7857707Y44032688D01*
X5080000Y46810395D01*
X2302293Y44032688D01*
X2705762Y43506076D01*
X4219730Y42862693D01*
X5864666Y42847654D01*
X6757182Y43207822D01*
X6752560Y43185000D01*
X6752560Y42385000D01*
X6796838Y42149683D01*
X6870620Y42035022D01*
X6861449Y42021600D01*
X5511800Y42021600D01*
X5229915Y41965530D01*
X4990945Y41805855D01*
X2809145Y39624055D01*
X2757952Y39547440D01*
X2205000Y39547440D01*
X1969683Y39503162D01*
X1753559Y39364090D01*
X1608569Y39151890D01*
X1557560Y38900000D01*
X1557560Y36650000D01*
X1601838Y36414683D01*
X1740910Y36198559D01*
X1953110Y36053569D01*
X2205000Y36002560D01*
X2902203Y36002560D01*
X2334343Y35767925D01*
X1838815Y35273261D01*
X1570307Y34626621D01*
X1569696Y33926450D01*
X1837075Y33279343D01*
X2331739Y32783815D01*
X2955772Y32524694D01*
X2334343Y32267925D01*
X1838815Y31773261D01*
X1570307Y31126621D01*
X1569696Y30426450D01*
X1837075Y29779343D01*
X2331739Y29283815D01*
X2955772Y29024694D01*
X2334343Y28767925D01*
X1838815Y28273261D01*
X1570307Y27626621D01*
X1569696Y26926450D01*
X1837075Y26279343D01*
X2331739Y25783815D01*
X2955772Y25524694D01*
X2334343Y25267925D01*
X1838815Y24773261D01*
X1570307Y24126621D01*
X1569696Y23426450D01*
X1837075Y22779343D01*
X2331739Y22283815D01*
X2955772Y22024694D01*
X2334343Y21767925D01*
X1838815Y21273261D01*
X1570307Y20626621D01*
X1569696Y19926450D01*
X1837075Y19279343D01*
X2331739Y18783815D01*
X2955772Y18524694D01*
X2334343Y18267925D01*
X1838815Y17773261D01*
X1570307Y17126621D01*
X1569696Y16426450D01*
X1837075Y15779343D01*
X2331739Y15283815D01*
X2955772Y15024694D01*
X2334343Y14767925D01*
X1838815Y14273261D01*
X1570307Y13626621D01*
X1569696Y12926450D01*
X1837075Y12279343D01*
X2331739Y11783815D01*
X2978379Y11515307D01*
X3678550Y11514696D01*
X3989881Y11643335D01*
X4018115Y11624470D01*
X4300000Y11568400D01*
X6862012Y11568400D01*
X6863329Y11566354D01*
X6861673Y11564698D01*
X6765000Y11331309D01*
X6765000Y11090750D01*
X6923750Y10932000D01*
X7648000Y10932000D01*
X7648000Y10952000D01*
X7902000Y10952000D01*
X7902000Y10932000D01*
X8626250Y10932000D01*
X8785000Y11090750D01*
X8785000Y11306103D01*
X8913110Y11218569D01*
X9165000Y11167560D01*
X9965000Y11167560D01*
X10200317Y11211838D01*
X10314978Y11285620D01*
X10413110Y11218569D01*
X10665000Y11167560D01*
X11465000Y11167560D01*
X11700317Y11211838D01*
X11832560Y11296934D01*
X11832560Y10635000D01*
X11876838Y10399683D01*
X11943329Y10296354D01*
X11941673Y10294698D01*
X11845000Y10061309D01*
X11845000Y9820750D01*
X12003750Y9662000D01*
X12728000Y9662000D01*
X12728000Y9682000D01*
X12982000Y9682000D01*
X12982000Y9662000D01*
X13706250Y9662000D01*
X13865000Y9820750D01*
X13865000Y10061309D01*
X13768327Y10294698D01*
X13766957Y10296068D01*
X13826431Y10383110D01*
X13877440Y10635000D01*
X13877440Y11435000D01*
X13833162Y11670317D01*
X13825548Y11682149D01*
X14199208Y11681824D01*
X14414500Y11770781D01*
X14414500Y9833500D01*
X14193673Y9503008D01*
X14097000Y9017000D01*
X14193673Y8530992D01*
X14468974Y8118974D01*
X14880992Y7843673D01*
X15367000Y7747000D01*
X19050000Y7747000D01*
X19003841Y7738315D01*
X18961447Y7711035D01*
X18933006Y7669410D01*
X18923000Y7620000D01*
X18923000Y762000D01*
X762000Y762000D01*
X762000Y2122688D01*
X2302293Y2122688D01*
X2705762Y1596076D01*
X4219730Y952693D01*
X5864666Y937654D01*
X7390145Y1553250D01*
X7454238Y1596076D01*
X7857707Y2122688D01*
X5080000Y4900395D01*
X2302293Y2122688D01*
X762000Y2122688D01*
X762000Y4295334D01*
X937654Y4295334D01*
X1553250Y2769855D01*
X1596076Y2705762D01*
X2122688Y2302293D01*
X4900395Y5080000D01*
X5259605Y5080000D01*
X8037312Y2302293D01*
X8563924Y2705762D01*
X9207307Y4219730D01*
X9222346Y5864666D01*
X8606750Y7390145D01*
X8563924Y7454238D01*
X8037312Y7857707D01*
X5259605Y5080000D01*
X4900395Y5080000D01*
X2122688Y7857707D01*
X1596076Y7454238D01*
X952693Y5940270D01*
X937654Y4295334D01*
X762000Y4295334D01*
X762000Y8037312D01*
X2302293Y8037312D01*
X5080000Y5259605D01*
X7857707Y8037312D01*
X7454238Y8563924D01*
X5940270Y9207307D01*
X4295334Y9222346D01*
X2769855Y8606750D01*
X2705762Y8563924D01*
X2302293Y8037312D01*
X762000Y8037312D01*
X762000Y9249250D01*
X11845000Y9249250D01*
X11845000Y9008691D01*
X11941673Y8775302D01*
X12120301Y8596673D01*
X12353690Y8500000D01*
X12569250Y8500000D01*
X12728000Y8658750D01*
X12728000Y9408000D01*
X12982000Y9408000D01*
X12982000Y8658750D01*
X13140750Y8500000D01*
X13356310Y8500000D01*
X13589699Y8596673D01*
X13768327Y8775302D01*
X13865000Y9008691D01*
X13865000Y9249250D01*
X13706250Y9408000D01*
X12982000Y9408000D01*
X12728000Y9408000D01*
X12003750Y9408000D01*
X11845000Y9249250D01*
X762000Y9249250D01*
X762000Y10519250D01*
X6765000Y10519250D01*
X6765000Y10278691D01*
X6861673Y10045302D01*
X7040301Y9866673D01*
X7273690Y9770000D01*
X7489250Y9770000D01*
X7648000Y9928750D01*
X7648000Y10678000D01*
X7902000Y10678000D01*
X7902000Y9928750D01*
X8060750Y9770000D01*
X8276310Y9770000D01*
X8509699Y9866673D01*
X8688327Y10045302D01*
X8785000Y10278691D01*
X8785000Y10519250D01*
X8626250Y10678000D01*
X7902000Y10678000D01*
X7648000Y10678000D01*
X6923750Y10678000D01*
X6765000Y10519250D01*
X762000Y10519250D01*
X762000Y46205334D01*
X937654Y46205334D01*
X1553250Y44679855D01*
X1596076Y44615762D01*
X2122688Y44212293D01*
X4900395Y46990000D01*
X5259605Y46990000D01*
X8037312Y44212293D01*
X8563924Y44615762D01*
X9207307Y46129730D01*
X9222346Y47774666D01*
X8606750Y49300145D01*
X8563924Y49364238D01*
X8037312Y49767707D01*
X5259605Y46990000D01*
X4900395Y46990000D01*
X2122688Y49767707D01*
X1596076Y49364238D01*
X952693Y47850270D01*
X937654Y46205334D01*
X762000Y46205334D01*
X762000Y49947312D01*
X2302293Y49947312D01*
X5080000Y47169605D01*
X7857707Y49947312D01*
X7454238Y50473924D01*
X5940270Y51117307D01*
X4295334Y51132346D01*
X2769855Y50516750D01*
X2705762Y50473924D01*
X2302293Y49947312D01*
X762000Y49947312D01*
X762000Y51308000D01*
X18923000Y51308000D01*
X18923000Y44450000D01*
X18923000Y44450000D01*
G37*
X18923000Y44450000D02*
X18931685Y44403841D01*
X18958965Y44361447D01*
X19000590Y44333006D01*
X19050000Y44323000D01*
X21590000Y44323000D01*
X21636159Y44331685D01*
X21678553Y44358965D01*
X21706994Y44400590D01*
X21717000Y44450000D01*
X21717000Y45720000D01*
X23732968Y45720000D01*
X23826977Y45247386D01*
X24094691Y44846723D01*
X24495354Y44579009D01*
X24967968Y44485000D01*
X25832032Y44485000D01*
X26304646Y44579009D01*
X26705309Y44846723D01*
X26973023Y45247386D01*
X27067032Y45720000D01*
X26973023Y46192614D01*
X26705309Y46593277D01*
X26304646Y46860991D01*
X25832032Y46955000D01*
X24967968Y46955000D01*
X24495354Y46860991D01*
X24094691Y46593277D01*
X23826977Y46192614D01*
X23732968Y45720000D01*
X21717000Y45720000D01*
X21717000Y51308000D01*
X47498000Y51308000D01*
X47498000Y45346396D01*
X47253026Y45713026D01*
X47253023Y45713028D01*
X46348026Y46618026D01*
X45936008Y46893327D01*
X45450000Y46990001D01*
X45449995Y46990000D01*
X43180000Y46990000D01*
X43004043Y46955000D01*
X42747968Y46955000D01*
X42275354Y46860991D01*
X41874691Y46593277D01*
X41606977Y46192614D01*
X41512968Y45720000D01*
X41606977Y45247386D01*
X41874691Y44846723D01*
X42275354Y44579009D01*
X42747968Y44485000D01*
X43004043Y44485000D01*
X43180000Y44450000D01*
X44923948Y44450000D01*
X45085000Y44288949D01*
X45085000Y16020051D01*
X37954948Y8890000D01*
X35788670Y8890000D01*
X35704090Y9021441D01*
X35491890Y9166431D01*
X35240000Y9217440D01*
X33756600Y9217440D01*
X33756600Y9273638D01*
X41313266Y16830304D01*
X41472941Y17069274D01*
X41529011Y17351159D01*
X41529011Y17699347D01*
X41606977Y17307386D01*
X41874691Y16906723D01*
X42275354Y16639009D01*
X42747968Y16545000D01*
X43612032Y16545000D01*
X44084646Y16639009D01*
X44485309Y16906723D01*
X44753023Y17307386D01*
X44847032Y17780000D01*
X44753023Y18252614D01*
X44485309Y18653277D01*
X44084646Y18920991D01*
X43612032Y19015000D01*
X42747968Y19015000D01*
X42275354Y18920991D01*
X41874691Y18653277D01*
X41606977Y18252614D01*
X41529011Y17860653D01*
X41529011Y20239347D01*
X41606977Y19847386D01*
X41874691Y19446723D01*
X42275354Y19179009D01*
X42747968Y19085000D01*
X43612032Y19085000D01*
X44084646Y19179009D01*
X44485309Y19446723D01*
X44753023Y19847386D01*
X44847032Y20320000D01*
X44753023Y20792614D01*
X44485309Y21193277D01*
X44084646Y21460991D01*
X43612032Y21555000D01*
X42747968Y21555000D01*
X42275354Y21460991D01*
X41874691Y21193277D01*
X41606977Y20792614D01*
X41529011Y20400653D01*
X41529011Y21904101D01*
X41769325Y22144415D01*
X41874691Y21986723D01*
X42275354Y21719009D01*
X42747968Y21625000D01*
X43612032Y21625000D01*
X44084646Y21719009D01*
X44485309Y21986723D01*
X44753023Y22387386D01*
X44847032Y22860000D01*
X44753023Y23332614D01*
X44485309Y23733277D01*
X44084646Y24000991D01*
X43701673Y24077169D01*
X43774002Y24185417D01*
X43783096Y24199027D01*
X44084646Y24259009D01*
X44485309Y24526723D01*
X44753023Y24927386D01*
X44847032Y25400000D01*
X44753023Y25872614D01*
X44485309Y26273277D01*
X44084646Y26540991D01*
X43701673Y26617169D01*
X43745563Y26682855D01*
X43783096Y26739027D01*
X44084646Y26799009D01*
X44485309Y27066723D01*
X44753023Y27467386D01*
X44847032Y27940000D01*
X44753023Y28412614D01*
X44485309Y28813277D01*
X44084646Y29080991D01*
X43701673Y29157169D01*
X43760360Y29245000D01*
X43783096Y29279027D01*
X44084646Y29339009D01*
X44485309Y29606723D01*
X44753023Y30007386D01*
X44847032Y30480000D01*
X44753023Y30952614D01*
X44485309Y31353277D01*
X44084646Y31620991D01*
X43612032Y31715000D01*
X42747968Y31715000D01*
X42275354Y31620991D01*
X41874691Y31353277D01*
X41606977Y30952614D01*
X41512968Y30480000D01*
X41606977Y30007386D01*
X41874691Y29606723D01*
X41990699Y29529209D01*
X40233600Y27772110D01*
X40233600Y31190890D01*
X41326110Y32283400D01*
X41783367Y32283400D01*
X41874691Y32146723D01*
X42275354Y31879009D01*
X42747968Y31785000D01*
X43612032Y31785000D01*
X44084646Y31879009D01*
X44485309Y32146723D01*
X44753023Y32547386D01*
X44847032Y33020000D01*
X44753023Y33492614D01*
X44485309Y33893277D01*
X44084646Y34160991D01*
X43612032Y34255000D01*
X42747968Y34255000D01*
X42275354Y34160991D01*
X41874691Y33893277D01*
X41783367Y33756600D01*
X41021000Y33756600D01*
X40739115Y33700530D01*
X40500145Y33540855D01*
X38976145Y32016855D01*
X38816470Y31777885D01*
X38760400Y31496000D01*
X38760400Y23875868D01*
X38633732Y23875978D01*
X35826855Y26682855D01*
X35587885Y26842530D01*
X35306000Y26898600D01*
X27878273Y26898600D01*
X27754269Y27022821D01*
X27380982Y27177824D01*
X26976792Y27178176D01*
X26702480Y27064832D01*
X26705309Y27066723D01*
X26973023Y27467386D01*
X27067032Y27940000D01*
X26973023Y28412614D01*
X26705309Y28813277D01*
X26304646Y29080991D01*
X25832032Y29175000D01*
X24967968Y29175000D01*
X24495354Y29080991D01*
X24094691Y28813277D01*
X23826977Y28412614D01*
X23732968Y27940000D01*
X23826977Y27467386D01*
X24094691Y27066723D01*
X24495354Y26799009D01*
X24967968Y26705000D01*
X25832032Y26705000D01*
X26304646Y26799009D01*
X26526567Y26947291D01*
X26317179Y26738269D01*
X26240555Y26553739D01*
X25832032Y26635000D01*
X24967968Y26635000D01*
X24495354Y26540991D01*
X24094691Y26273277D01*
X24003367Y26136600D01*
X23927110Y26136600D01*
X23342600Y26721110D01*
X23342600Y30480000D01*
X23732968Y30480000D01*
X23826977Y30007386D01*
X24094691Y29606723D01*
X24495354Y29339009D01*
X24967968Y29245000D01*
X25832032Y29245000D01*
X26304646Y29339009D01*
X26705309Y29606723D01*
X26973023Y30007386D01*
X27067032Y30480000D01*
X26973023Y30952614D01*
X26705309Y31353277D01*
X26304646Y31620991D01*
X25832032Y31715000D01*
X24967968Y31715000D01*
X24495354Y31620991D01*
X24094691Y31353277D01*
X23826977Y30952614D01*
X23732968Y30480000D01*
X23342600Y30480000D01*
X23342600Y33020000D01*
X23732968Y33020000D01*
X23826977Y32547386D01*
X24094691Y32146723D01*
X24495354Y31879009D01*
X24967968Y31785000D01*
X25832032Y31785000D01*
X26304646Y31879009D01*
X26705309Y32146723D01*
X26973023Y32547386D01*
X27067032Y33020000D01*
X26973023Y33492614D01*
X26705309Y33893277D01*
X26304646Y34160991D01*
X25832032Y34255000D01*
X24967968Y34255000D01*
X24495354Y34160991D01*
X24094691Y33893277D01*
X23826977Y33492614D01*
X23732968Y33020000D01*
X23342600Y33020000D01*
X23342600Y35560000D01*
X23732968Y35560000D01*
X23826977Y35087386D01*
X24094691Y34686723D01*
X24495354Y34419009D01*
X24967968Y34325000D01*
X25832032Y34325000D01*
X26304646Y34419009D01*
X26705309Y34686723D01*
X26973023Y35087386D01*
X27067032Y35560000D01*
X41512968Y35560000D01*
X41606977Y35087386D01*
X41874691Y34686723D01*
X42275354Y34419009D01*
X42747968Y34325000D01*
X43612032Y34325000D01*
X44084646Y34419009D01*
X44485309Y34686723D01*
X44753023Y35087386D01*
X44847032Y35560000D01*
X44753023Y36032614D01*
X44485309Y36433277D01*
X44084646Y36700991D01*
X43612032Y36795000D01*
X42747968Y36795000D01*
X42275354Y36700991D01*
X41874691Y36433277D01*
X41606977Y36032614D01*
X41512968Y35560000D01*
X27067032Y35560000D01*
X26973023Y36032614D01*
X26705309Y36433277D01*
X26304646Y36700991D01*
X25832032Y36795000D01*
X24967968Y36795000D01*
X24495354Y36700991D01*
X24094691Y36433277D01*
X23826977Y36032614D01*
X23732968Y35560000D01*
X23342600Y35560000D01*
X23342600Y36703000D01*
X23286530Y36984885D01*
X23126855Y37223855D01*
X22250710Y38100000D01*
X23732968Y38100000D01*
X23826977Y37627386D01*
X24094691Y37226723D01*
X24495354Y36959009D01*
X24967968Y36865000D01*
X25832032Y36865000D01*
X26304646Y36959009D01*
X26705309Y37226723D01*
X26973023Y37627386D01*
X27003855Y37782391D01*
X41586538Y37782391D01*
X41590408Y37744719D01*
X41816920Y37316526D01*
X42190053Y37007610D01*
X42653000Y36865000D01*
X43053000Y36865000D01*
X43053000Y37973000D01*
X43307000Y37973000D01*
X43307000Y36865000D01*
X43707000Y36865000D01*
X44169947Y37007610D01*
X44543080Y37316526D01*
X44769592Y37744719D01*
X44773462Y37782391D01*
X44648731Y37973000D01*
X43307000Y37973000D01*
X43053000Y37973000D01*
X41711269Y37973000D01*
X41586538Y37782391D01*
X27003855Y37782391D01*
X27067032Y38100000D01*
X27003856Y38417609D01*
X41586538Y38417609D01*
X41711269Y38227000D01*
X43053000Y38227000D01*
X43053000Y39335000D01*
X43307000Y39335000D01*
X43307000Y38227000D01*
X44648731Y38227000D01*
X44773462Y38417609D01*
X44769592Y38455281D01*
X44543080Y38883474D01*
X44169947Y39192390D01*
X43707000Y39335000D01*
X43307000Y39335000D01*
X43053000Y39335000D01*
X42653000Y39335000D01*
X42190053Y39192390D01*
X41816920Y38883474D01*
X41590408Y38455281D01*
X41586538Y38417609D01*
X27003856Y38417609D01*
X26973023Y38572614D01*
X26705309Y38973277D01*
X26304646Y39240991D01*
X25832032Y39335000D01*
X24967968Y39335000D01*
X24495354Y39240991D01*
X24094691Y38973277D01*
X23826977Y38572614D01*
X23732968Y38100000D01*
X22250710Y38100000D01*
X21717000Y38633710D01*
X21717000Y40640000D01*
X23732968Y40640000D01*
X23826977Y40167386D01*
X24094691Y39766723D01*
X24495354Y39499009D01*
X24967968Y39405000D01*
X25832032Y39405000D01*
X26304646Y39499009D01*
X26705309Y39766723D01*
X26973023Y40167386D01*
X27067032Y40640000D01*
X41512968Y40640000D01*
X41606977Y40167386D01*
X41874691Y39766723D01*
X42275354Y39499009D01*
X42747968Y39405000D01*
X43612032Y39405000D01*
X44084646Y39499009D01*
X44485309Y39766723D01*
X44753023Y40167386D01*
X44847032Y40640000D01*
X44753023Y41112614D01*
X44485309Y41513277D01*
X44084646Y41780991D01*
X43612032Y41875000D01*
X42747968Y41875000D01*
X42275354Y41780991D01*
X41874691Y41513277D01*
X41606977Y41112614D01*
X41512968Y40640000D01*
X27067032Y40640000D01*
X26973023Y41112614D01*
X26705309Y41513277D01*
X26304646Y41780991D01*
X25832032Y41875000D01*
X24967968Y41875000D01*
X24495354Y41780991D01*
X24094691Y41513277D01*
X23826977Y41112614D01*
X23732968Y40640000D01*
X21717000Y40640000D01*
X21717000Y41910000D01*
X21708315Y41956159D01*
X21681035Y41998553D01*
X21639410Y42026994D01*
X21590000Y42037000D01*
X19050000Y42037000D01*
X19003841Y42028315D01*
X18961447Y42001035D01*
X18933006Y41959410D01*
X18923000Y41910000D01*
X18923000Y40741600D01*
X17718273Y40741600D01*
X17594269Y40865821D01*
X17399157Y40946839D01*
X17399176Y40968208D01*
X17244825Y41341766D01*
X16959269Y41627821D01*
X16585982Y41782824D01*
X16319500Y41783056D01*
X16319500Y42862391D01*
X23806538Y42862391D01*
X23810408Y42824719D01*
X24036920Y42396526D01*
X24410053Y42087610D01*
X24873000Y41945000D01*
X25273000Y41945000D01*
X25273000Y43053000D01*
X25527000Y43053000D01*
X25527000Y41945000D01*
X25927000Y41945000D01*
X26389947Y42087610D01*
X26763080Y42396526D01*
X26989592Y42824719D01*
X26993462Y42862391D01*
X26868731Y43053000D01*
X25527000Y43053000D01*
X25273000Y43053000D01*
X23931269Y43053000D01*
X23806538Y42862391D01*
X16319500Y42862391D01*
X16319500Y43180000D01*
X41512968Y43180000D01*
X41606977Y42707386D01*
X41874691Y42306723D01*
X42275354Y42039009D01*
X42747968Y41945000D01*
X43612032Y41945000D01*
X44084646Y42039009D01*
X44485309Y42306723D01*
X44753023Y42707386D01*
X44847032Y43180000D01*
X44753023Y43652614D01*
X44485309Y44053277D01*
X44084646Y44320991D01*
X43612032Y44415000D01*
X42747968Y44415000D01*
X42275354Y44320991D01*
X41874691Y44053277D01*
X41606977Y43652614D01*
X41512968Y43180000D01*
X16319500Y43180000D01*
X16319500Y43497609D01*
X23806538Y43497609D01*
X23931269Y43307000D01*
X25273000Y43307000D01*
X25273000Y44415000D01*
X25527000Y44415000D01*
X25527000Y43307000D01*
X26868731Y43307000D01*
X26993462Y43497609D01*
X26989592Y43535281D01*
X26763080Y43963474D01*
X26389947Y44272390D01*
X25927000Y44415000D01*
X25527000Y44415000D01*
X25273000Y44415000D01*
X24873000Y44415000D01*
X24410053Y44272390D01*
X24036920Y43963474D01*
X23810408Y43535281D01*
X23806538Y43497609D01*
X16319500Y43497609D01*
X16319500Y44006520D01*
X16246995Y44371026D01*
X16040519Y44680039D01*
X13933337Y46787221D01*
X13624324Y46993697D01*
X13259818Y47066202D01*
X12113702Y47066202D01*
X11749196Y46993697D01*
X11691282Y46955000D01*
X11440183Y46787222D01*
X8421199Y43768237D01*
X8401890Y43781431D01*
X8150000Y43832440D01*
X7704285Y43832440D01*
X7857707Y44032688D01*
X5080000Y46810395D01*
X2302293Y44032688D01*
X2705762Y43506076D01*
X4219730Y42862693D01*
X5864666Y42847654D01*
X6757182Y43207822D01*
X6752560Y43185000D01*
X6752560Y42385000D01*
X6796838Y42149683D01*
X6870620Y42035022D01*
X6861449Y42021600D01*
X5511800Y42021600D01*
X5229915Y41965530D01*
X4990945Y41805855D01*
X2809145Y39624055D01*
X2757952Y39547440D01*
X2205000Y39547440D01*
X1969683Y39503162D01*
X1753559Y39364090D01*
X1608569Y39151890D01*
X1557560Y38900000D01*
X1557560Y36650000D01*
X1601838Y36414683D01*
X1740910Y36198559D01*
X1953110Y36053569D01*
X2205000Y36002560D01*
X2902203Y36002560D01*
X2334343Y35767925D01*
X1838815Y35273261D01*
X1570307Y34626621D01*
X1569696Y33926450D01*
X1837075Y33279343D01*
X2331739Y32783815D01*
X2955772Y32524694D01*
X2334343Y32267925D01*
X1838815Y31773261D01*
X1570307Y31126621D01*
X1569696Y30426450D01*
X1837075Y29779343D01*
X2331739Y29283815D01*
X2955772Y29024694D01*
X2334343Y28767925D01*
X1838815Y28273261D01*
X1570307Y27626621D01*
X1569696Y26926450D01*
X1837075Y26279343D01*
X2331739Y25783815D01*
X2955772Y25524694D01*
X2334343Y25267925D01*
X1838815Y24773261D01*
X1570307Y24126621D01*
X1569696Y23426450D01*
X1837075Y22779343D01*
X2331739Y22283815D01*
X2955772Y22024694D01*
X2334343Y21767925D01*
X1838815Y21273261D01*
X1570307Y20626621D01*
X1569696Y19926450D01*
X1837075Y19279343D01*
X2331739Y18783815D01*
X2955772Y18524694D01*
X2334343Y18267925D01*
X1838815Y17773261D01*
X1570307Y17126621D01*
X1569696Y16426450D01*
X1837075Y15779343D01*
X2331739Y15283815D01*
X2955772Y15024694D01*
X2334343Y14767925D01*
X1838815Y14273261D01*
X1570307Y13626621D01*
X1569696Y12926450D01*
X1837075Y12279343D01*
X2331739Y11783815D01*
X2978379Y11515307D01*
X3678550Y11514696D01*
X3989881Y11643335D01*
X4018115Y11624470D01*
X4300000Y11568400D01*
X6862012Y11568400D01*
X6863329Y11566354D01*
X6861673Y11564698D01*
X6765000Y11331309D01*
X6765000Y11090750D01*
X6923750Y10932000D01*
X7648000Y10932000D01*
X7648000Y10952000D01*
X7902000Y10952000D01*
X7902000Y10932000D01*
X8626250Y10932000D01*
X8785000Y11090750D01*
X8785000Y11306103D01*
X8913110Y11218569D01*
X9165000Y11167560D01*
X9965000Y11167560D01*
X10200317Y11211838D01*
X10314978Y11285620D01*
X10413110Y11218569D01*
X10665000Y11167560D01*
X11465000Y11167560D01*
X11700317Y11211838D01*
X11832560Y11296934D01*
X11832560Y10635000D01*
X11876838Y10399683D01*
X11943329Y10296354D01*
X11941673Y10294698D01*
X11845000Y10061309D01*
X11845000Y9820750D01*
X12003750Y9662000D01*
X12728000Y9662000D01*
X12728000Y9682000D01*
X12982000Y9682000D01*
X12982000Y9662000D01*
X13706250Y9662000D01*
X13865000Y9820750D01*
X13865000Y10061309D01*
X13768327Y10294698D01*
X13766957Y10296068D01*
X13826431Y10383110D01*
X13877440Y10635000D01*
X13877440Y11435000D01*
X13833162Y11670317D01*
X13825548Y11682149D01*
X14199208Y11681824D01*
X14414500Y11770781D01*
X14414500Y9833500D01*
X14193673Y9503008D01*
X14097000Y9017000D01*
X14193673Y8530992D01*
X14468974Y8118974D01*
X14880992Y7843673D01*
X15367000Y7747000D01*
X19050000Y7747000D01*
X19003841Y7738315D01*
X18961447Y7711035D01*
X18933006Y7669410D01*
X18923000Y7620000D01*
X18923000Y762000D01*
X762000Y762000D01*
X762000Y2122688D01*
X2302293Y2122688D01*
X2705762Y1596076D01*
X4219730Y952693D01*
X5864666Y937654D01*
X7390145Y1553250D01*
X7454238Y1596076D01*
X7857707Y2122688D01*
X5080000Y4900395D01*
X2302293Y2122688D01*
X762000Y2122688D01*
X762000Y4295334D01*
X937654Y4295334D01*
X1553250Y2769855D01*
X1596076Y2705762D01*
X2122688Y2302293D01*
X4900395Y5080000D01*
X5259605Y5080000D01*
X8037312Y2302293D01*
X8563924Y2705762D01*
X9207307Y4219730D01*
X9222346Y5864666D01*
X8606750Y7390145D01*
X8563924Y7454238D01*
X8037312Y7857707D01*
X5259605Y5080000D01*
X4900395Y5080000D01*
X2122688Y7857707D01*
X1596076Y7454238D01*
X952693Y5940270D01*
X937654Y4295334D01*
X762000Y4295334D01*
X762000Y8037312D01*
X2302293Y8037312D01*
X5080000Y5259605D01*
X7857707Y8037312D01*
X7454238Y8563924D01*
X5940270Y9207307D01*
X4295334Y9222346D01*
X2769855Y8606750D01*
X2705762Y8563924D01*
X2302293Y8037312D01*
X762000Y8037312D01*
X762000Y9249250D01*
X11845000Y9249250D01*
X11845000Y9008691D01*
X11941673Y8775302D01*
X12120301Y8596673D01*
X12353690Y8500000D01*
X12569250Y8500000D01*
X12728000Y8658750D01*
X12728000Y9408000D01*
X12982000Y9408000D01*
X12982000Y8658750D01*
X13140750Y8500000D01*
X13356310Y8500000D01*
X13589699Y8596673D01*
X13768327Y8775302D01*
X13865000Y9008691D01*
X13865000Y9249250D01*
X13706250Y9408000D01*
X12982000Y9408000D01*
X12728000Y9408000D01*
X12003750Y9408000D01*
X11845000Y9249250D01*
X762000Y9249250D01*
X762000Y10519250D01*
X6765000Y10519250D01*
X6765000Y10278691D01*
X6861673Y10045302D01*
X7040301Y9866673D01*
X7273690Y9770000D01*
X7489250Y9770000D01*
X7648000Y9928750D01*
X7648000Y10678000D01*
X7902000Y10678000D01*
X7902000Y9928750D01*
X8060750Y9770000D01*
X8276310Y9770000D01*
X8509699Y9866673D01*
X8688327Y10045302D01*
X8785000Y10278691D01*
X8785000Y10519250D01*
X8626250Y10678000D01*
X7902000Y10678000D01*
X7648000Y10678000D01*
X6923750Y10678000D01*
X6765000Y10519250D01*
X762000Y10519250D01*
X762000Y46205334D01*
X937654Y46205334D01*
X1553250Y44679855D01*
X1596076Y44615762D01*
X2122688Y44212293D01*
X4900395Y46990000D01*
X5259605Y46990000D01*
X8037312Y44212293D01*
X8563924Y44615762D01*
X9207307Y46129730D01*
X9222346Y47774666D01*
X8606750Y49300145D01*
X8563924Y49364238D01*
X8037312Y49767707D01*
X5259605Y46990000D01*
X4900395Y46990000D01*
X2122688Y49767707D01*
X1596076Y49364238D01*
X952693Y47850270D01*
X937654Y46205334D01*
X762000Y46205334D01*
X762000Y49947312D01*
X2302293Y49947312D01*
X5080000Y47169605D01*
X7857707Y49947312D01*
X7454238Y50473924D01*
X5940270Y51117307D01*
X4295334Y51132346D01*
X2769855Y50516750D01*
X2705762Y50473924D01*
X2302293Y49947312D01*
X762000Y49947312D01*
X762000Y51308000D01*
X18923000Y51308000D01*
X18923000Y44450000D01*
G36*
X30734000Y25233476D02*
X30625450Y25217762D01*
X30609743Y25208422D01*
X30591820Y25204857D01*
X30495403Y25140433D01*
X30395722Y25081161D01*
X28915516Y23748998D01*
X28915513Y23748996D01*
X27435305Y22416831D01*
X27424368Y22402191D01*
X27409174Y22392039D01*
X27344747Y22295617D01*
X27275340Y22202714D01*
X27270838Y22185004D01*
X27260685Y22169809D01*
X27238061Y22056070D01*
X27209489Y21943679D01*
X27212107Y21925593D01*
X27208542Y21907671D01*
X27208542Y18111603D01*
X27211864Y18094904D01*
X27209364Y18078066D01*
X27237823Y17964398D01*
X27260685Y17849465D01*
X27270143Y17835310D01*
X27274278Y17818795D01*
X27344075Y17724663D01*
X27409174Y17627235D01*
X27423328Y17617778D01*
X27433469Y17604101D01*
X28913595Y16262300D01*
X30393722Y14920498D01*
X30494228Y14860243D01*
X30591657Y14795143D01*
X30608355Y14791822D01*
X30622956Y14783068D01*
X30738858Y14765863D01*
X30853795Y14743000D01*
X35089665Y14743000D01*
X35201495Y14765245D01*
X35314435Y14780927D01*
X35331921Y14791188D01*
X35351803Y14795143D01*
X35446604Y14858487D01*
X35544949Y14916198D01*
X35966389Y15291099D01*
X33603890Y12928600D01*
X29464005Y12928600D01*
X29464000Y12928601D01*
X29228883Y12881833D01*
X29182115Y12872530D01*
X29004940Y12754145D01*
X28943145Y12712855D01*
X25040592Y8810302D01*
X24974208Y8998019D01*
X24382602Y9216188D01*
X23752539Y9191352D01*
X23285792Y8998019D01*
X23193255Y8736350D01*
X24130000Y7799605D01*
X24144143Y7813747D01*
X24323748Y7634142D01*
X24309605Y7620000D01*
X24323748Y7605857D01*
X24144143Y7426252D01*
X24130000Y7440395D01*
X23193255Y6503650D01*
X23224407Y6415561D01*
X22787086Y5979003D01*
X22545276Y5396659D01*
X22544725Y4766107D01*
X22785519Y4183343D01*
X23230997Y3737086D01*
X23813341Y3495276D01*
X24443893Y3494725D01*
X25026657Y3735519D01*
X25400261Y4108471D01*
X25770997Y3737086D01*
X26353341Y3495276D01*
X26983893Y3494725D01*
X27566657Y3735519D01*
X27940261Y4108471D01*
X28310997Y3737086D01*
X28893341Y3495276D01*
X29523893Y3494725D01*
X30106657Y3735519D01*
X30480261Y4108471D01*
X30850997Y3737086D01*
X31433341Y3495276D01*
X32063893Y3494725D01*
X32646657Y3735519D01*
X32875186Y3963650D01*
X33353255Y3963650D01*
X33445792Y3701981D01*
X34037398Y3483812D01*
X34667461Y3508648D01*
X35134208Y3701981D01*
X35226745Y3963650D01*
X34290000Y4900395D01*
X33353255Y3963650D01*
X32875186Y3963650D01*
X33086116Y4174211D01*
X33173650Y4143255D01*
X34110395Y5080000D01*
X34096253Y5094142D01*
X34275858Y5273747D01*
X34290000Y5259605D01*
X34304143Y5273747D01*
X34483748Y5094142D01*
X34469605Y5080000D01*
X35406350Y4143255D01*
X35668019Y4235792D01*
X35886188Y4827398D01*
X35861352Y5457461D01*
X35668019Y5924208D01*
X35406352Y6016744D01*
X35452072Y6062464D01*
X35475317Y6066838D01*
X35691441Y6205910D01*
X35789893Y6350000D01*
X37211000Y6350000D01*
X37211000Y3320052D01*
X36938948Y3048000D01*
X23259051Y3048000D01*
X22225000Y4082052D01*
X22225000Y7872602D01*
X22533812Y7872602D01*
X22558648Y7242539D01*
X22751981Y6775792D01*
X23013650Y6683255D01*
X23950395Y7620000D01*
X23013650Y8556745D01*
X22751981Y8464208D01*
X22533812Y7872602D01*
X22225000Y7872602D01*
X22225000Y8509000D01*
X22128327Y8995008D01*
X21853026Y9407026D01*
X21853023Y9407028D01*
X21345026Y9915026D01*
X21168465Y10033000D01*
X21590000Y10033000D01*
X21636159Y10041685D01*
X21678553Y10068965D01*
X21706994Y10110590D01*
X21717000Y10160000D01*
X21717000Y16230290D01*
X22110855Y16624145D01*
X22176466Y16722339D01*
X22270530Y16863115D01*
X22326600Y17145000D01*
X22326600Y17780000D01*
X23732968Y17780000D01*
X23826977Y17307386D01*
X24094691Y16906723D01*
X24495354Y16639009D01*
X24967968Y16545000D01*
X25832032Y16545000D01*
X26304646Y16639009D01*
X26705309Y16906723D01*
X26973023Y17307386D01*
X27067032Y17780000D01*
X26973023Y18252614D01*
X26705309Y18653277D01*
X26304646Y18920991D01*
X25832032Y19015000D01*
X24967968Y19015000D01*
X24495354Y18920991D01*
X24094691Y18653277D01*
X23826977Y18252614D01*
X23732968Y17780000D01*
X22326600Y17780000D01*
X22326600Y20320000D01*
X23732968Y20320000D01*
X23826977Y19847386D01*
X24094691Y19446723D01*
X24495354Y19179009D01*
X24967968Y19085000D01*
X25832032Y19085000D01*
X26304646Y19179009D01*
X26705309Y19446723D01*
X26973023Y19847386D01*
X27067032Y20320000D01*
X26973023Y20792614D01*
X26705309Y21193277D01*
X26304646Y21460991D01*
X25832032Y21555000D01*
X24967968Y21555000D01*
X24495354Y21460991D01*
X24094691Y21193277D01*
X23826977Y20792614D01*
X23732968Y20320000D01*
X22326600Y20320000D01*
X22326600Y24491690D01*
X23770351Y23047939D01*
X23732968Y22860000D01*
X23826977Y22387386D01*
X24094691Y21986723D01*
X24495354Y21719009D01*
X24967968Y21625000D01*
X25832032Y21625000D01*
X26304646Y21719009D01*
X26705309Y21986723D01*
X26973023Y22387386D01*
X27067032Y22860000D01*
X26973023Y23332614D01*
X26705309Y23733277D01*
X26304646Y24000991D01*
X25832032Y24095000D01*
X24967968Y24095000D01*
X24833464Y24068246D01*
X24679288Y24222422D01*
X24967968Y24165000D01*
X25832032Y24165000D01*
X26304646Y24259009D01*
X26705309Y24526723D01*
X26973023Y24927386D01*
X27016536Y25146140D01*
X27379208Y25145824D01*
X27752766Y25300175D01*
X27878210Y25425400D01*
X30734000Y25425400D01*
X30734000Y25233476D01*
X30734000Y25233476D01*
G37*
X30734000Y25233476D02*
X30625450Y25217762D01*
X30609743Y25208422D01*
X30591820Y25204857D01*
X30495403Y25140433D01*
X30395722Y25081161D01*
X28915516Y23748998D01*
X28915513Y23748996D01*
X27435305Y22416831D01*
X27424368Y22402191D01*
X27409174Y22392039D01*
X27344747Y22295617D01*
X27275340Y22202714D01*
X27270838Y22185004D01*
X27260685Y22169809D01*
X27238061Y22056070D01*
X27209489Y21943679D01*
X27212107Y21925593D01*
X27208542Y21907671D01*
X27208542Y18111603D01*
X27211864Y18094904D01*
X27209364Y18078066D01*
X27237823Y17964398D01*
X27260685Y17849465D01*
X27270143Y17835310D01*
X27274278Y17818795D01*
X27344075Y17724663D01*
X27409174Y17627235D01*
X27423328Y17617778D01*
X27433469Y17604101D01*
X28913595Y16262300D01*
X30393722Y14920498D01*
X30494228Y14860243D01*
X30591657Y14795143D01*
X30608355Y14791822D01*
X30622956Y14783068D01*
X30738858Y14765863D01*
X30853795Y14743000D01*
X35089665Y14743000D01*
X35201495Y14765245D01*
X35314435Y14780927D01*
X35331921Y14791188D01*
X35351803Y14795143D01*
X35446604Y14858487D01*
X35544949Y14916198D01*
X35966389Y15291099D01*
X33603890Y12928600D01*
X29464005Y12928600D01*
X29464000Y12928601D01*
X29228883Y12881833D01*
X29182115Y12872530D01*
X29004940Y12754145D01*
X28943145Y12712855D01*
X25040592Y8810302D01*
X24974208Y8998019D01*
X24382602Y9216188D01*
X23752539Y9191352D01*
X23285792Y8998019D01*
X23193255Y8736350D01*
X24130000Y7799605D01*
X24144143Y7813747D01*
X24323748Y7634142D01*
X24309605Y7620000D01*
X24323748Y7605857D01*
X24144143Y7426252D01*
X24130000Y7440395D01*
X23193255Y6503650D01*
X23224407Y6415561D01*
X22787086Y5979003D01*
X22545276Y5396659D01*
X22544725Y4766107D01*
X22785519Y4183343D01*
X23230997Y3737086D01*
X23813341Y3495276D01*
X24443893Y3494725D01*
X25026657Y3735519D01*
X25400261Y4108471D01*
X25770997Y3737086D01*
X26353341Y3495276D01*
X26983893Y3494725D01*
X27566657Y3735519D01*
X27940261Y4108471D01*
X28310997Y3737086D01*
X28893341Y3495276D01*
X29523893Y3494725D01*
X30106657Y3735519D01*
X30480261Y4108471D01*
X30850997Y3737086D01*
X31433341Y3495276D01*
X32063893Y3494725D01*
X32646657Y3735519D01*
X32875186Y3963650D01*
X33353255Y3963650D01*
X33445792Y3701981D01*
X34037398Y3483812D01*
X34667461Y3508648D01*
X35134208Y3701981D01*
X35226745Y3963650D01*
X34290000Y4900395D01*
X33353255Y3963650D01*
X32875186Y3963650D01*
X33086116Y4174211D01*
X33173650Y4143255D01*
X34110395Y5080000D01*
X34096253Y5094142D01*
X34275858Y5273747D01*
X34290000Y5259605D01*
X34304143Y5273747D01*
X34483748Y5094142D01*
X34469605Y5080000D01*
X35406350Y4143255D01*
X35668019Y4235792D01*
X35886188Y4827398D01*
X35861352Y5457461D01*
X35668019Y5924208D01*
X35406352Y6016744D01*
X35452072Y6062464D01*
X35475317Y6066838D01*
X35691441Y6205910D01*
X35789893Y6350000D01*
X37211000Y6350000D01*
X37211000Y3320052D01*
X36938948Y3048000D01*
X23259051Y3048000D01*
X22225000Y4082052D01*
X22225000Y7872602D01*
X22533812Y7872602D01*
X22558648Y7242539D01*
X22751981Y6775792D01*
X23013650Y6683255D01*
X23950395Y7620000D01*
X23013650Y8556745D01*
X22751981Y8464208D01*
X22533812Y7872602D01*
X22225000Y7872602D01*
X22225000Y8509000D01*
X22128327Y8995008D01*
X21853026Y9407026D01*
X21853023Y9407028D01*
X21345026Y9915026D01*
X21168465Y10033000D01*
X21590000Y10033000D01*
X21636159Y10041685D01*
X21678553Y10068965D01*
X21706994Y10110590D01*
X21717000Y10160000D01*
X21717000Y16230290D01*
X22110855Y16624145D01*
X22176466Y16722339D01*
X22270530Y16863115D01*
X22326600Y17145000D01*
X22326600Y17780000D01*
X23732968Y17780000D01*
X23826977Y17307386D01*
X24094691Y16906723D01*
X24495354Y16639009D01*
X24967968Y16545000D01*
X25832032Y16545000D01*
X26304646Y16639009D01*
X26705309Y16906723D01*
X26973023Y17307386D01*
X27067032Y17780000D01*
X26973023Y18252614D01*
X26705309Y18653277D01*
X26304646Y18920991D01*
X25832032Y19015000D01*
X24967968Y19015000D01*
X24495354Y18920991D01*
X24094691Y18653277D01*
X23826977Y18252614D01*
X23732968Y17780000D01*
X22326600Y17780000D01*
X22326600Y20320000D01*
X23732968Y20320000D01*
X23826977Y19847386D01*
X24094691Y19446723D01*
X24495354Y19179009D01*
X24967968Y19085000D01*
X25832032Y19085000D01*
X26304646Y19179009D01*
X26705309Y19446723D01*
X26973023Y19847386D01*
X27067032Y20320000D01*
X26973023Y20792614D01*
X26705309Y21193277D01*
X26304646Y21460991D01*
X25832032Y21555000D01*
X24967968Y21555000D01*
X24495354Y21460991D01*
X24094691Y21193277D01*
X23826977Y20792614D01*
X23732968Y20320000D01*
X22326600Y20320000D01*
X22326600Y24491690D01*
X23770351Y23047939D01*
X23732968Y22860000D01*
X23826977Y22387386D01*
X24094691Y21986723D01*
X24495354Y21719009D01*
X24967968Y21625000D01*
X25832032Y21625000D01*
X26304646Y21719009D01*
X26705309Y21986723D01*
X26973023Y22387386D01*
X27067032Y22860000D01*
X26973023Y23332614D01*
X26705309Y23733277D01*
X26304646Y24000991D01*
X25832032Y24095000D01*
X24967968Y24095000D01*
X24833464Y24068246D01*
X24679288Y24222422D01*
X24967968Y24165000D01*
X25832032Y24165000D01*
X26304646Y24259009D01*
X26705309Y24526723D01*
X26973023Y24927386D01*
X27016536Y25146140D01*
X27379208Y25145824D01*
X27752766Y25300175D01*
X27878210Y25425400D01*
X30734000Y25425400D01*
X30734000Y25233476D01*
G36*
X6863329Y19821354D02*
X6861673Y19819698D01*
X6765000Y19586309D01*
X6765000Y19345750D01*
X6923750Y19187000D01*
X7648000Y19187000D01*
X7648000Y19207000D01*
X7902000Y19207000D01*
X7902000Y19187000D01*
X8626250Y19187000D01*
X8785000Y19345750D01*
X8785000Y19561103D01*
X8913110Y19473569D01*
X9165000Y19422560D01*
X9965000Y19422560D01*
X10200317Y19466838D01*
X10314978Y19540620D01*
X10413110Y19473569D01*
X10665000Y19422560D01*
X10679535Y19422560D01*
X10531673Y19274699D01*
X10435000Y19041310D01*
X10435000Y18825750D01*
X10593750Y18667000D01*
X11343000Y18667000D01*
X11343000Y18687000D01*
X11597000Y18687000D01*
X11597000Y18667000D01*
X11617000Y18667000D01*
X11617000Y18413000D01*
X11597000Y18413000D01*
X11597000Y18393000D01*
X11343000Y18393000D01*
X11343000Y18413000D01*
X10593750Y18413000D01*
X10435000Y18254250D01*
X10435000Y18224500D01*
X8612525Y18224500D01*
X8688327Y18300302D01*
X8785000Y18533691D01*
X8785000Y18774250D01*
X8626250Y18933000D01*
X7902000Y18933000D01*
X7902000Y18183750D01*
X8027378Y18058372D01*
X7858481Y17945519D01*
X7101481Y17188519D01*
X6895005Y16879506D01*
X6822500Y16515000D01*
X6822500Y16159596D01*
X6803569Y16131890D01*
X6752560Y15880000D01*
X6752560Y15080000D01*
X6796838Y14844683D01*
X6870620Y14730022D01*
X6861449Y14716600D01*
X6430110Y14716600D01*
X4982201Y16164509D01*
X5089693Y16423379D01*
X5090304Y17123550D01*
X4822925Y17770657D01*
X4328261Y18266185D01*
X3704228Y18525306D01*
X4306719Y18774250D01*
X6765000Y18774250D01*
X6765000Y18533691D01*
X6861673Y18300302D01*
X7040301Y18121673D01*
X7273690Y18025000D01*
X7489250Y18025000D01*
X7648000Y18183750D01*
X7648000Y18933000D01*
X6923750Y18933000D01*
X6765000Y18774250D01*
X4306719Y18774250D01*
X4325657Y18782075D01*
X4821185Y19276739D01*
X5048178Y19823400D01*
X6862012Y19823400D01*
X6863329Y19821354D01*
X6863329Y19821354D01*
G37*
X6863329Y19821354D02*
X6861673Y19819698D01*
X6765000Y19586309D01*
X6765000Y19345750D01*
X6923750Y19187000D01*
X7648000Y19187000D01*
X7648000Y19207000D01*
X7902000Y19207000D01*
X7902000Y19187000D01*
X8626250Y19187000D01*
X8785000Y19345750D01*
X8785000Y19561103D01*
X8913110Y19473569D01*
X9165000Y19422560D01*
X9965000Y19422560D01*
X10200317Y19466838D01*
X10314978Y19540620D01*
X10413110Y19473569D01*
X10665000Y19422560D01*
X10679535Y19422560D01*
X10531673Y19274699D01*
X10435000Y19041310D01*
X10435000Y18825750D01*
X10593750Y18667000D01*
X11343000Y18667000D01*
X11343000Y18687000D01*
X11597000Y18687000D01*
X11597000Y18667000D01*
X11617000Y18667000D01*
X11617000Y18413000D01*
X11597000Y18413000D01*
X11597000Y18393000D01*
X11343000Y18393000D01*
X11343000Y18413000D01*
X10593750Y18413000D01*
X10435000Y18254250D01*
X10435000Y18224500D01*
X8612525Y18224500D01*
X8688327Y18300302D01*
X8785000Y18533691D01*
X8785000Y18774250D01*
X8626250Y18933000D01*
X7902000Y18933000D01*
X7902000Y18183750D01*
X8027378Y18058372D01*
X7858481Y17945519D01*
X7101481Y17188519D01*
X6895005Y16879506D01*
X6822500Y16515000D01*
X6822500Y16159596D01*
X6803569Y16131890D01*
X6752560Y15880000D01*
X6752560Y15080000D01*
X6796838Y14844683D01*
X6870620Y14730022D01*
X6861449Y14716600D01*
X6430110Y14716600D01*
X4982201Y16164509D01*
X5089693Y16423379D01*
X5090304Y17123550D01*
X4822925Y17770657D01*
X4328261Y18266185D01*
X3704228Y18525306D01*
X4306719Y18774250D01*
X6765000Y18774250D01*
X6765000Y18533691D01*
X6861673Y18300302D01*
X7040301Y18121673D01*
X7273690Y18025000D01*
X7489250Y18025000D01*
X7648000Y18183750D01*
X7648000Y18933000D01*
X6923750Y18933000D01*
X6765000Y18774250D01*
X4306719Y18774250D01*
X4325657Y18782075D01*
X4821185Y19276739D01*
X5048178Y19823400D01*
X6862012Y19823400D01*
X6863329Y19821354D01*
G36*
X10435000Y16285750D02*
X10593750Y16127000D01*
X11343000Y16127000D01*
X11343000Y16147000D01*
X11597000Y16147000D01*
X11597000Y16127000D01*
X11617000Y16127000D01*
X11617000Y15873000D01*
X11597000Y15873000D01*
X11597000Y15853000D01*
X11343000Y15853000D01*
X11343000Y15873000D01*
X10593750Y15873000D01*
X10435000Y15714250D01*
X10435000Y15498690D01*
X10531673Y15265301D01*
X10679535Y15117440D01*
X10665000Y15117440D01*
X10429683Y15073162D01*
X10315022Y14999380D01*
X10216890Y15066431D01*
X9965000Y15117440D01*
X9165000Y15117440D01*
X8929683Y15073162D01*
X8776033Y14974291D01*
X8797440Y15080000D01*
X8797440Y15880000D01*
X8753162Y16115317D01*
X8741100Y16134062D01*
X8926538Y16319500D01*
X10435000Y16319500D01*
X10435000Y16285750D01*
X10435000Y16285750D01*
G37*
X10435000Y16285750D02*
X10593750Y16127000D01*
X11343000Y16127000D01*
X11343000Y16147000D01*
X11597000Y16147000D01*
X11597000Y16127000D01*
X11617000Y16127000D01*
X11617000Y15873000D01*
X11597000Y15873000D01*
X11597000Y15853000D01*
X11343000Y15853000D01*
X11343000Y15873000D01*
X10593750Y15873000D01*
X10435000Y15714250D01*
X10435000Y15498690D01*
X10531673Y15265301D01*
X10679535Y15117440D01*
X10665000Y15117440D01*
X10429683Y15073162D01*
X10315022Y14999380D01*
X10216890Y15066431D01*
X9965000Y15117440D01*
X9165000Y15117440D01*
X8929683Y15073162D01*
X8776033Y14974291D01*
X8797440Y15080000D01*
X8797440Y15880000D01*
X8753162Y16115317D01*
X8741100Y16134062D01*
X8926538Y16319500D01*
X10435000Y16319500D01*
X10435000Y16285750D01*
G36*
X11845000Y25290750D02*
X12003750Y25132000D01*
X12728000Y25132000D01*
X12728000Y25152000D01*
X12982000Y25152000D01*
X12982000Y25132000D01*
X13706250Y25132000D01*
X13865000Y25290750D01*
X13865000Y25463500D01*
X14414500Y25463500D01*
X14414500Y22769163D01*
X14200982Y22857824D01*
X13827451Y22858149D01*
X13877440Y23105000D01*
X13877440Y23905000D01*
X13833162Y24140317D01*
X13766671Y24243646D01*
X13768327Y24245302D01*
X13865000Y24478691D01*
X13865000Y24719250D01*
X13706250Y24878000D01*
X12982000Y24878000D01*
X12982000Y24858000D01*
X12728000Y24858000D01*
X12728000Y24878000D01*
X12003750Y24878000D01*
X11845000Y24719250D01*
X11845000Y24478691D01*
X11941673Y24245302D01*
X11943043Y24243932D01*
X11883569Y24156890D01*
X11832560Y23905000D01*
X11832560Y23242397D01*
X11716890Y23321431D01*
X11465000Y23372440D01*
X10665000Y23372440D01*
X10429683Y23328162D01*
X10315022Y23254380D01*
X10216890Y23321431D01*
X9965000Y23372440D01*
X9165000Y23372440D01*
X8929683Y23328162D01*
X8776033Y23229291D01*
X8797440Y23335000D01*
X8797440Y24135000D01*
X8753162Y24370317D01*
X8741100Y24389062D01*
X9815539Y25463500D01*
X11845000Y25463500D01*
X11845000Y25290750D01*
X11845000Y25290750D01*
G37*
X11845000Y25290750D02*
X12003750Y25132000D01*
X12728000Y25132000D01*
X12728000Y25152000D01*
X12982000Y25152000D01*
X12982000Y25132000D01*
X13706250Y25132000D01*
X13865000Y25290750D01*
X13865000Y25463500D01*
X14414500Y25463500D01*
X14414500Y22769163D01*
X14200982Y22857824D01*
X13827451Y22858149D01*
X13877440Y23105000D01*
X13877440Y23905000D01*
X13833162Y24140317D01*
X13766671Y24243646D01*
X13768327Y24245302D01*
X13865000Y24478691D01*
X13865000Y24719250D01*
X13706250Y24878000D01*
X12982000Y24878000D01*
X12982000Y24858000D01*
X12728000Y24858000D01*
X12728000Y24878000D01*
X12003750Y24878000D01*
X11845000Y24719250D01*
X11845000Y24478691D01*
X11941673Y24245302D01*
X11943043Y24243932D01*
X11883569Y24156890D01*
X11832560Y23905000D01*
X11832560Y23242397D01*
X11716890Y23321431D01*
X11465000Y23372440D01*
X10665000Y23372440D01*
X10429683Y23328162D01*
X10315022Y23254380D01*
X10216890Y23321431D01*
X9965000Y23372440D01*
X9165000Y23372440D01*
X8929683Y23328162D01*
X8776033Y23229291D01*
X8797440Y23335000D01*
X8797440Y24135000D01*
X8753162Y24370317D01*
X8741100Y24389062D01*
X9815539Y25463500D01*
X11845000Y25463500D01*
X11845000Y25290750D01*
G36*
X14414500Y28168482D02*
X14351176Y28015982D01*
X14350824Y27611792D01*
X14414500Y27457684D01*
X14414500Y27368500D01*
X9421000Y27368500D01*
X9056494Y27295995D01*
X8970049Y27238234D01*
X8747481Y27089520D01*
X7101481Y25443519D01*
X6895005Y25134506D01*
X6822500Y24770000D01*
X6822500Y24414596D01*
X6803569Y24386890D01*
X6752560Y24135000D01*
X6752560Y23335000D01*
X6796838Y23099683D01*
X6870620Y22985022D01*
X6861449Y22971600D01*
X5175110Y22971600D01*
X4982201Y23164509D01*
X5089693Y23423379D01*
X5090304Y24123550D01*
X4822925Y24770657D01*
X4328261Y25266185D01*
X3704228Y25525306D01*
X4325657Y25782075D01*
X4821185Y26276739D01*
X5089693Y26923379D01*
X5090304Y27623550D01*
X4982110Y27885400D01*
X5395960Y28299250D01*
X11845000Y28299250D01*
X11845000Y28058691D01*
X11941673Y27825302D01*
X12120301Y27646673D01*
X12353690Y27550000D01*
X12569250Y27550000D01*
X12728000Y27708750D01*
X12728000Y28458000D01*
X12982000Y28458000D01*
X12982000Y27708750D01*
X13140750Y27550000D01*
X13356310Y27550000D01*
X13589699Y27646673D01*
X13768327Y27825302D01*
X13865000Y28058691D01*
X13865000Y28299250D01*
X13706250Y28458000D01*
X12982000Y28458000D01*
X12728000Y28458000D01*
X12003750Y28458000D01*
X11845000Y28299250D01*
X5395960Y28299250D01*
X6108855Y29012145D01*
X6136077Y29052885D01*
X6268530Y29251115D01*
X6324600Y29533000D01*
X6324600Y29569250D01*
X6765000Y29569250D01*
X6765000Y29328691D01*
X6861673Y29095302D01*
X7040301Y28916673D01*
X7273690Y28820000D01*
X7489250Y28820000D01*
X7648000Y28978750D01*
X7648000Y29728000D01*
X7902000Y29728000D01*
X7902000Y28978750D01*
X8060750Y28820000D01*
X8276310Y28820000D01*
X8509699Y28916673D01*
X8688327Y29095302D01*
X8785000Y29328691D01*
X8785000Y29569250D01*
X8626250Y29728000D01*
X7902000Y29728000D01*
X7648000Y29728000D01*
X6923750Y29728000D01*
X6765000Y29569250D01*
X6324600Y29569250D01*
X6324600Y30174890D01*
X6768110Y30618400D01*
X6862012Y30618400D01*
X6863329Y30616354D01*
X6861673Y30614698D01*
X6765000Y30381309D01*
X6765000Y30140750D01*
X6923750Y29982000D01*
X7648000Y29982000D01*
X7648000Y30002000D01*
X7902000Y30002000D01*
X7902000Y29982000D01*
X8626250Y29982000D01*
X8785000Y30140750D01*
X8785000Y30356103D01*
X8913110Y30268569D01*
X9165000Y30217560D01*
X9965000Y30217560D01*
X10200317Y30261838D01*
X10314978Y30335620D01*
X10413110Y30268569D01*
X10665000Y30217560D01*
X11465000Y30217560D01*
X11700317Y30261838D01*
X11832560Y30346934D01*
X11832560Y29685000D01*
X11876838Y29449683D01*
X11943329Y29346354D01*
X11941673Y29344698D01*
X11845000Y29111309D01*
X11845000Y28870750D01*
X12003750Y28712000D01*
X12728000Y28712000D01*
X12728000Y28732000D01*
X12982000Y28732000D01*
X12982000Y28712000D01*
X13706250Y28712000D01*
X13865000Y28870750D01*
X13865000Y29111309D01*
X13768327Y29344698D01*
X13766957Y29346068D01*
X13826431Y29433110D01*
X13877440Y29685000D01*
X13877440Y30485000D01*
X13833162Y30720317D01*
X13824276Y30734126D01*
X14171208Y30733824D01*
X14414500Y30834350D01*
X14414500Y28168482D01*
X14414500Y28168482D01*
G37*
X14414500Y28168482D02*
X14351176Y28015982D01*
X14350824Y27611792D01*
X14414500Y27457684D01*
X14414500Y27368500D01*
X9421000Y27368500D01*
X9056494Y27295995D01*
X8970049Y27238234D01*
X8747481Y27089520D01*
X7101481Y25443519D01*
X6895005Y25134506D01*
X6822500Y24770000D01*
X6822500Y24414596D01*
X6803569Y24386890D01*
X6752560Y24135000D01*
X6752560Y23335000D01*
X6796838Y23099683D01*
X6870620Y22985022D01*
X6861449Y22971600D01*
X5175110Y22971600D01*
X4982201Y23164509D01*
X5089693Y23423379D01*
X5090304Y24123550D01*
X4822925Y24770657D01*
X4328261Y25266185D01*
X3704228Y25525306D01*
X4325657Y25782075D01*
X4821185Y26276739D01*
X5089693Y26923379D01*
X5090304Y27623550D01*
X4982110Y27885400D01*
X5395960Y28299250D01*
X11845000Y28299250D01*
X11845000Y28058691D01*
X11941673Y27825302D01*
X12120301Y27646673D01*
X12353690Y27550000D01*
X12569250Y27550000D01*
X12728000Y27708750D01*
X12728000Y28458000D01*
X12982000Y28458000D01*
X12982000Y27708750D01*
X13140750Y27550000D01*
X13356310Y27550000D01*
X13589699Y27646673D01*
X13768327Y27825302D01*
X13865000Y28058691D01*
X13865000Y28299250D01*
X13706250Y28458000D01*
X12982000Y28458000D01*
X12728000Y28458000D01*
X12003750Y28458000D01*
X11845000Y28299250D01*
X5395960Y28299250D01*
X6108855Y29012145D01*
X6136077Y29052885D01*
X6268530Y29251115D01*
X6324600Y29533000D01*
X6324600Y29569250D01*
X6765000Y29569250D01*
X6765000Y29328691D01*
X6861673Y29095302D01*
X7040301Y28916673D01*
X7273690Y28820000D01*
X7489250Y28820000D01*
X7648000Y28978750D01*
X7648000Y29728000D01*
X7902000Y29728000D01*
X7902000Y28978750D01*
X8060750Y28820000D01*
X8276310Y28820000D01*
X8509699Y28916673D01*
X8688327Y29095302D01*
X8785000Y29328691D01*
X8785000Y29569250D01*
X8626250Y29728000D01*
X7902000Y29728000D01*
X7648000Y29728000D01*
X6923750Y29728000D01*
X6765000Y29569250D01*
X6324600Y29569250D01*
X6324600Y30174890D01*
X6768110Y30618400D01*
X6862012Y30618400D01*
X6863329Y30616354D01*
X6861673Y30614698D01*
X6765000Y30381309D01*
X6765000Y30140750D01*
X6923750Y29982000D01*
X7648000Y29982000D01*
X7648000Y30002000D01*
X7902000Y30002000D01*
X7902000Y29982000D01*
X8626250Y29982000D01*
X8785000Y30140750D01*
X8785000Y30356103D01*
X8913110Y30268569D01*
X9165000Y30217560D01*
X9965000Y30217560D01*
X10200317Y30261838D01*
X10314978Y30335620D01*
X10413110Y30268569D01*
X10665000Y30217560D01*
X11465000Y30217560D01*
X11700317Y30261838D01*
X11832560Y30346934D01*
X11832560Y29685000D01*
X11876838Y29449683D01*
X11943329Y29346354D01*
X11941673Y29344698D01*
X11845000Y29111309D01*
X11845000Y28870750D01*
X12003750Y28712000D01*
X12728000Y28712000D01*
X12728000Y28732000D01*
X12982000Y28732000D01*
X12982000Y28712000D01*
X13706250Y28712000D01*
X13865000Y28870750D01*
X13865000Y29111309D01*
X13768327Y29344698D01*
X13766957Y29346068D01*
X13826431Y29433110D01*
X13877440Y29685000D01*
X13877440Y30485000D01*
X13833162Y30720317D01*
X13824276Y30734126D01*
X14171208Y30733824D01*
X14414500Y30834350D01*
X14414500Y28168482D01*
G36*
X8913110Y38523569D02*
X9165000Y38472560D01*
X9965000Y38472560D01*
X10200317Y38516838D01*
X10314978Y38590620D01*
X10413110Y38523569D01*
X10665000Y38472560D01*
X10679535Y38472560D01*
X10531673Y38324699D01*
X10435000Y38091310D01*
X10435000Y37875750D01*
X10593750Y37717000D01*
X11343000Y37717000D01*
X11343000Y37737000D01*
X11597000Y37737000D01*
X11597000Y37717000D01*
X11617000Y37717000D01*
X11617000Y37463000D01*
X11597000Y37463000D01*
X11597000Y37443000D01*
X11343000Y37443000D01*
X11343000Y37463000D01*
X10593750Y37463000D01*
X10435000Y37304250D01*
X10435000Y37274500D01*
X9542000Y37274500D01*
X9177494Y37201995D01*
X8868481Y36995519D01*
X7450402Y35577440D01*
X7400000Y35577440D01*
X7164683Y35533162D01*
X6948559Y35394090D01*
X6803569Y35181890D01*
X6752560Y34930000D01*
X6752560Y34130000D01*
X6796838Y33894683D01*
X6870620Y33780022D01*
X6861449Y33766600D01*
X5585000Y33766600D01*
X5303115Y33710530D01*
X5104022Y33577500D01*
X5064145Y33550855D01*
X4843309Y33330019D01*
X5089693Y33923379D01*
X5090304Y34623550D01*
X4982110Y34885400D01*
X6489855Y36393145D01*
X6527176Y36449000D01*
X6649530Y36632115D01*
X6705600Y36914000D01*
X6705600Y37824250D01*
X6765000Y37824250D01*
X6765000Y37583691D01*
X6861673Y37350302D01*
X7040301Y37171673D01*
X7273690Y37075000D01*
X7489250Y37075000D01*
X7648000Y37233750D01*
X7648000Y37983000D01*
X7902000Y37983000D01*
X7902000Y37233750D01*
X8060750Y37075000D01*
X8276310Y37075000D01*
X8509699Y37171673D01*
X8688327Y37350302D01*
X8785000Y37583691D01*
X8785000Y37824250D01*
X8626250Y37983000D01*
X7902000Y37983000D01*
X7648000Y37983000D01*
X6923750Y37983000D01*
X6765000Y37824250D01*
X6705600Y37824250D01*
X6705600Y38077090D01*
X6894630Y38266120D01*
X6923750Y38237000D01*
X7648000Y38237000D01*
X7648000Y38257000D01*
X7902000Y38257000D01*
X7902000Y38237000D01*
X8626250Y38237000D01*
X8785000Y38395750D01*
X8785000Y38611103D01*
X8913110Y38523569D01*
X8913110Y38523569D01*
G37*
X8913110Y38523569D02*
X9165000Y38472560D01*
X9965000Y38472560D01*
X10200317Y38516838D01*
X10314978Y38590620D01*
X10413110Y38523569D01*
X10665000Y38472560D01*
X10679535Y38472560D01*
X10531673Y38324699D01*
X10435000Y38091310D01*
X10435000Y37875750D01*
X10593750Y37717000D01*
X11343000Y37717000D01*
X11343000Y37737000D01*
X11597000Y37737000D01*
X11597000Y37717000D01*
X11617000Y37717000D01*
X11617000Y37463000D01*
X11597000Y37463000D01*
X11597000Y37443000D01*
X11343000Y37443000D01*
X11343000Y37463000D01*
X10593750Y37463000D01*
X10435000Y37304250D01*
X10435000Y37274500D01*
X9542000Y37274500D01*
X9177494Y37201995D01*
X8868481Y36995519D01*
X7450402Y35577440D01*
X7400000Y35577440D01*
X7164683Y35533162D01*
X6948559Y35394090D01*
X6803569Y35181890D01*
X6752560Y34930000D01*
X6752560Y34130000D01*
X6796838Y33894683D01*
X6870620Y33780022D01*
X6861449Y33766600D01*
X5585000Y33766600D01*
X5303115Y33710530D01*
X5104022Y33577500D01*
X5064145Y33550855D01*
X4843309Y33330019D01*
X5089693Y33923379D01*
X5090304Y34623550D01*
X4982110Y34885400D01*
X6489855Y36393145D01*
X6527176Y36449000D01*
X6649530Y36632115D01*
X6705600Y36914000D01*
X6705600Y37824250D01*
X6765000Y37824250D01*
X6765000Y37583691D01*
X6861673Y37350302D01*
X7040301Y37171673D01*
X7273690Y37075000D01*
X7489250Y37075000D01*
X7648000Y37233750D01*
X7648000Y37983000D01*
X7902000Y37983000D01*
X7902000Y37233750D01*
X8060750Y37075000D01*
X8276310Y37075000D01*
X8509699Y37171673D01*
X8688327Y37350302D01*
X8785000Y37583691D01*
X8785000Y37824250D01*
X8626250Y37983000D01*
X7902000Y37983000D01*
X7648000Y37983000D01*
X6923750Y37983000D01*
X6765000Y37824250D01*
X6705600Y37824250D01*
X6705600Y38077090D01*
X6894630Y38266120D01*
X6923750Y38237000D01*
X7648000Y38237000D01*
X7648000Y38257000D01*
X7902000Y38257000D01*
X7902000Y38237000D01*
X8626250Y38237000D01*
X8785000Y38395750D01*
X8785000Y38611103D01*
X8913110Y38523569D01*
G36*
X10435000Y35335750D02*
X10593750Y35177000D01*
X11343000Y35177000D01*
X11343000Y35197000D01*
X11597000Y35197000D01*
X11597000Y35177000D01*
X11617000Y35177000D01*
X11617000Y34923000D01*
X11597000Y34923000D01*
X11597000Y34903000D01*
X11343000Y34903000D01*
X11343000Y34923000D01*
X10593750Y34923000D01*
X10435000Y34764250D01*
X10435000Y34548690D01*
X10531673Y34315301D01*
X10679535Y34167440D01*
X10665000Y34167440D01*
X10429683Y34123162D01*
X10315022Y34049380D01*
X10216890Y34116431D01*
X9965000Y34167440D01*
X9165000Y34167440D01*
X8929683Y34123162D01*
X8776033Y34024291D01*
X8797440Y34130000D01*
X8797440Y34230402D01*
X9936538Y35369500D01*
X10435000Y35369500D01*
X10435000Y35335750D01*
X10435000Y35335750D01*
G37*
X10435000Y35335750D02*
X10593750Y35177000D01*
X11343000Y35177000D01*
X11343000Y35197000D01*
X11597000Y35197000D01*
X11597000Y35177000D01*
X11617000Y35177000D01*
X11617000Y34923000D01*
X11597000Y34923000D01*
X11597000Y34903000D01*
X11343000Y34903000D01*
X11343000Y34923000D01*
X10593750Y34923000D01*
X10435000Y34764250D01*
X10435000Y34548690D01*
X10531673Y34315301D01*
X10679535Y34167440D01*
X10665000Y34167440D01*
X10429683Y34123162D01*
X10315022Y34049380D01*
X10216890Y34116431D01*
X9965000Y34167440D01*
X9165000Y34167440D01*
X8929683Y34123162D01*
X8776033Y34024291D01*
X8797440Y34130000D01*
X8797440Y34230402D01*
X9936538Y35369500D01*
X10435000Y35369500D01*
X10435000Y35335750D01*
G36*
X13038616Y44987866D02*
X12982000Y44931250D01*
X12982000Y44182000D01*
X13706250Y44182000D01*
X13775366Y44251116D01*
X14414500Y43611982D01*
X14414500Y42063537D01*
X14172982Y42163824D01*
X13877440Y42164081D01*
X13877440Y42955000D01*
X13833162Y43190317D01*
X13766671Y43293646D01*
X13768327Y43295302D01*
X13865000Y43528691D01*
X13865000Y43769250D01*
X13706250Y43928000D01*
X12982000Y43928000D01*
X12982000Y43908000D01*
X12728000Y43908000D01*
X12728000Y43928000D01*
X12003750Y43928000D01*
X11845000Y43769250D01*
X11845000Y43528691D01*
X11941673Y43295302D01*
X11943043Y43293932D01*
X11883569Y43206890D01*
X11832560Y42955000D01*
X11832560Y42292397D01*
X11716890Y42371431D01*
X11465000Y42422440D01*
X10665000Y42422440D01*
X10429683Y42378162D01*
X10315022Y42304380D01*
X10216890Y42371431D01*
X9965000Y42422440D01*
X9769478Y42422440D01*
X11845000Y44497961D01*
X11845000Y44340750D01*
X12003750Y44182000D01*
X12728000Y44182000D01*
X12728000Y44931250D01*
X12569250Y45090000D01*
X12437039Y45090000D01*
X12508241Y45161202D01*
X12865280Y45161202D01*
X13038616Y44987866D01*
X13038616Y44987866D01*
G37*
X13038616Y44987866D02*
X12982000Y44931250D01*
X12982000Y44182000D01*
X13706250Y44182000D01*
X13775366Y44251116D01*
X14414500Y43611982D01*
X14414500Y42063537D01*
X14172982Y42163824D01*
X13877440Y42164081D01*
X13877440Y42955000D01*
X13833162Y43190317D01*
X13766671Y43293646D01*
X13768327Y43295302D01*
X13865000Y43528691D01*
X13865000Y43769250D01*
X13706250Y43928000D01*
X12982000Y43928000D01*
X12982000Y43908000D01*
X12728000Y43908000D01*
X12728000Y43928000D01*
X12003750Y43928000D01*
X11845000Y43769250D01*
X11845000Y43528691D01*
X11941673Y43295302D01*
X11943043Y43293932D01*
X11883569Y43206890D01*
X11832560Y42955000D01*
X11832560Y42292397D01*
X11716890Y42371431D01*
X11465000Y42422440D01*
X10665000Y42422440D01*
X10429683Y42378162D01*
X10315022Y42304380D01*
X10216890Y42371431D01*
X9965000Y42422440D01*
X9769478Y42422440D01*
X11845000Y44497961D01*
X11845000Y44340750D01*
X12003750Y44182000D01*
X12728000Y44182000D01*
X12728000Y44931250D01*
X12569250Y45090000D01*
X12437039Y45090000D01*
X12508241Y45161202D01*
X12865280Y45161202D01*
X13038616Y44987866D01*
M02*
