G04 #@! TF.FileFunction,Legend,Top*
%FSLAX46Y46*%
G04 Gerber Fmt 4.6, Leading zero omitted, Abs format (unit mm)*
G04 Created by KiCad (PCBNEW 4.0.4-stable) date Sunday, November 27, 2016 'PMt' 03:20:47 PM*
%MOMM*%
%LPD*%
G01*
G04 APERTURE LIST*
%ADD10C,0.100000*%
%ADD11C,0.254000*%
%ADD12C,0.762000*%
%ADD13C,0.150000*%
%ADD14O,2.400000X1.600000*%
%ADD15R,3.575000X1.670000*%
%ADD16R,2.178000X2.178000*%
%ADD17R,1.543000X1.543000*%
%ADD18R,1.924000X2.178000*%
%ADD19R,1.200000X1.150000*%
%ADD20R,2.650000X2.650000*%
%ADD21C,2.650000*%
%ADD22R,0.700000X1.850000*%
%ADD23C,7.400000*%
%ADD24C,1.000000*%
%ADD25C,2.300000*%
%ADD26R,2.300000X2.300000*%
G04 APERTURE END LIST*
D10*
D11*
X11188095Y49018976D02*
X10764762Y49623738D01*
X10462381Y49018976D02*
X10462381Y50288976D01*
X10946190Y50288976D01*
X11067143Y50228500D01*
X11127619Y50168024D01*
X11188095Y50047071D01*
X11188095Y49865643D01*
X11127619Y49744690D01*
X11067143Y49684214D01*
X10946190Y49623738D01*
X10462381Y49623738D01*
X12216190Y49079452D02*
X12095238Y49018976D01*
X11853333Y49018976D01*
X11732381Y49079452D01*
X11671905Y49200405D01*
X11671905Y49684214D01*
X11732381Y49805167D01*
X11853333Y49865643D01*
X12095238Y49865643D01*
X12216190Y49805167D01*
X12276667Y49684214D01*
X12276667Y49563262D01*
X11671905Y49442310D01*
X12820952Y49018976D02*
X12820952Y49865643D01*
X12820952Y49744690D02*
X12881428Y49805167D01*
X13002381Y49865643D01*
X13183809Y49865643D01*
X13304761Y49805167D01*
X13365238Y49684214D01*
X13365238Y49018976D01*
X13365238Y49684214D02*
X13425714Y49805167D01*
X13546666Y49865643D01*
X13728095Y49865643D01*
X13849047Y49805167D01*
X13909523Y49684214D01*
X13909523Y49018976D01*
X14695714Y49018976D02*
X14574761Y49079452D01*
X14514285Y49139929D01*
X14453809Y49260881D01*
X14453809Y49623738D01*
X14514285Y49744690D01*
X14574761Y49805167D01*
X14695714Y49865643D01*
X14877142Y49865643D01*
X14998094Y49805167D01*
X15058571Y49744690D01*
X15119047Y49623738D01*
X15119047Y49260881D01*
X15058571Y49139929D01*
X14998094Y49079452D01*
X14877142Y49018976D01*
X14695714Y49018976D01*
X15481904Y49865643D02*
X15965714Y49865643D01*
X15663333Y50288976D02*
X15663333Y49200405D01*
X15723809Y49079452D01*
X15844762Y49018976D01*
X15965714Y49018976D01*
X16872856Y49079452D02*
X16751904Y49018976D01*
X16509999Y49018976D01*
X16389047Y49079452D01*
X16328571Y49200405D01*
X16328571Y49684214D01*
X16389047Y49805167D01*
X16509999Y49865643D01*
X16751904Y49865643D01*
X16872856Y49805167D01*
X16933333Y49684214D01*
X16933333Y49563262D01*
X16328571Y49442310D01*
X10280952Y48129976D02*
X11006667Y48129976D01*
X10643810Y46859976D02*
X10643810Y48129976D01*
X11430000Y46859976D02*
X11430000Y48129976D01*
X11974286Y46859976D02*
X11974286Y47525214D01*
X11913809Y47646167D01*
X11792857Y47706643D01*
X11611429Y47706643D01*
X11490476Y47646167D01*
X11430000Y47585690D01*
X13062857Y46920452D02*
X12941905Y46859976D01*
X12700000Y46859976D01*
X12579048Y46920452D01*
X12518572Y47041405D01*
X12518572Y47525214D01*
X12579048Y47646167D01*
X12700000Y47706643D01*
X12941905Y47706643D01*
X13062857Y47646167D01*
X13123334Y47525214D01*
X13123334Y47404262D01*
X12518572Y47283310D01*
X13667619Y46859976D02*
X13667619Y47706643D01*
X13667619Y47464738D02*
X13728095Y47585690D01*
X13788571Y47646167D01*
X13909524Y47706643D01*
X14030476Y47706643D01*
X14453809Y46859976D02*
X14453809Y47706643D01*
X14453809Y47585690D02*
X14514285Y47646167D01*
X14635238Y47706643D01*
X14816666Y47706643D01*
X14937618Y47646167D01*
X14998095Y47525214D01*
X14998095Y46859976D01*
X14998095Y47525214D02*
X15058571Y47646167D01*
X15179523Y47706643D01*
X15360952Y47706643D01*
X15481904Y47646167D01*
X15542380Y47525214D01*
X15542380Y46859976D01*
X16328571Y46859976D02*
X16207618Y46920452D01*
X16147142Y46980929D01*
X16086666Y47101881D01*
X16086666Y47464738D01*
X16147142Y47585690D01*
X16207618Y47646167D01*
X16328571Y47706643D01*
X16509999Y47706643D01*
X16630951Y47646167D01*
X16691428Y47585690D01*
X16751904Y47464738D01*
X16751904Y47101881D01*
X16691428Y46980929D01*
X16630951Y46920452D01*
X16509999Y46859976D01*
X16328571Y46859976D01*
X17296190Y47343786D02*
X18263809Y47343786D01*
X11006667Y44761452D02*
X10885714Y44700976D01*
X10643810Y44700976D01*
X10522857Y44761452D01*
X10462381Y44821929D01*
X10401905Y44942881D01*
X10401905Y45305738D01*
X10462381Y45426690D01*
X10522857Y45487167D01*
X10643810Y45547643D01*
X10885714Y45547643D01*
X11006667Y45487167D01*
X11732381Y44700976D02*
X11611428Y44761452D01*
X11550952Y44821929D01*
X11490476Y44942881D01*
X11490476Y45305738D01*
X11550952Y45426690D01*
X11611428Y45487167D01*
X11732381Y45547643D01*
X11913809Y45547643D01*
X12034761Y45487167D01*
X12095238Y45426690D01*
X12155714Y45305738D01*
X12155714Y44942881D01*
X12095238Y44821929D01*
X12034761Y44761452D01*
X11913809Y44700976D01*
X11732381Y44700976D01*
X13244286Y45547643D02*
X13244286Y44700976D01*
X12700000Y45547643D02*
X12700000Y44882405D01*
X12760476Y44761452D01*
X12881429Y44700976D01*
X13062857Y44700976D01*
X13183809Y44761452D01*
X13244286Y44821929D01*
X13849048Y45547643D02*
X13849048Y44277643D01*
X13849048Y45487167D02*
X13970000Y45547643D01*
X14211905Y45547643D01*
X14332857Y45487167D01*
X14393334Y45426690D01*
X14453810Y45305738D01*
X14453810Y44942881D01*
X14393334Y44821929D01*
X14332857Y44761452D01*
X14211905Y44700976D01*
X13970000Y44700976D01*
X13849048Y44761452D01*
X15179525Y44700976D02*
X15058572Y44761452D01*
X14998096Y44882405D01*
X14998096Y45970976D01*
X16147143Y44761452D02*
X16026191Y44700976D01*
X15784286Y44700976D01*
X15663334Y44761452D01*
X15602858Y44882405D01*
X15602858Y45366214D01*
X15663334Y45487167D01*
X15784286Y45547643D01*
X16026191Y45547643D01*
X16147143Y45487167D01*
X16207620Y45366214D01*
X16207620Y45245262D01*
X15602858Y45124310D01*
X10462381Y42541976D02*
X10462381Y43811976D01*
X10885714Y42904833D01*
X11309048Y43811976D01*
X11309048Y42541976D01*
X12095239Y42541976D02*
X11974286Y42602452D01*
X11913810Y42662929D01*
X11853334Y42783881D01*
X11853334Y43146738D01*
X11913810Y43267690D01*
X11974286Y43328167D01*
X12095239Y43388643D01*
X12276667Y43388643D01*
X12397619Y43328167D01*
X12458096Y43267690D01*
X12518572Y43146738D01*
X12518572Y42783881D01*
X12458096Y42662929D01*
X12397619Y42602452D01*
X12276667Y42541976D01*
X12095239Y42541976D01*
X13062858Y43388643D02*
X13062858Y42541976D01*
X13062858Y43267690D02*
X13123334Y43328167D01*
X13244287Y43388643D01*
X13425715Y43388643D01*
X13546667Y43328167D01*
X13607144Y43207214D01*
X13607144Y42541976D01*
X14211906Y42541976D02*
X14211906Y43388643D01*
X14211906Y43811976D02*
X14151430Y43751500D01*
X14211906Y43691024D01*
X14272382Y43751500D01*
X14211906Y43811976D01*
X14211906Y43691024D01*
X14635239Y43388643D02*
X15119049Y43388643D01*
X14816668Y43811976D02*
X14816668Y42723405D01*
X14877144Y42602452D01*
X14998097Y42541976D01*
X15119049Y42541976D01*
X15723811Y42541976D02*
X15602858Y42602452D01*
X15542382Y42662929D01*
X15481906Y42783881D01*
X15481906Y43146738D01*
X15542382Y43267690D01*
X15602858Y43328167D01*
X15723811Y43388643D01*
X15905239Y43388643D01*
X16026191Y43328167D01*
X16086668Y43267690D01*
X16147144Y43146738D01*
X16147144Y42783881D01*
X16086668Y42662929D01*
X16026191Y42602452D01*
X15905239Y42541976D01*
X15723811Y42541976D01*
X16691430Y42541976D02*
X16691430Y43388643D01*
X16691430Y43146738D02*
X16751906Y43267690D01*
X16812382Y43328167D01*
X16933335Y43388643D01*
X17054287Y43388643D01*
D12*
X9806667Y17281905D02*
X12951429Y17281905D01*
X11258096Y15346667D01*
X11983810Y15346667D01*
X12467620Y15104762D01*
X12709524Y14862857D01*
X12951429Y14379048D01*
X12951429Y13169524D01*
X12709524Y12685714D01*
X12467620Y12443810D01*
X11983810Y12201905D01*
X10532382Y12201905D01*
X10048572Y12443810D01*
X9806667Y12685714D01*
X10048572Y24298095D02*
X10290477Y24540000D01*
X10774286Y24781905D01*
X11983810Y24781905D01*
X12467620Y24540000D01*
X12709524Y24298095D01*
X12951429Y23814286D01*
X12951429Y23330476D01*
X12709524Y22604762D01*
X9806667Y19701905D01*
X12951429Y19701905D01*
X12951429Y27201905D02*
X10048572Y27201905D01*
X11500001Y27201905D02*
X11500001Y32281905D01*
X11016191Y31556190D01*
X10532382Y31072381D01*
X10048572Y30830476D01*
X10758096Y39281905D02*
X11241905Y39281905D01*
X11725715Y39040000D01*
X11967620Y38798095D01*
X12209524Y38314286D01*
X12451429Y37346667D01*
X12451429Y36137143D01*
X12209524Y35169524D01*
X11967620Y34685714D01*
X11725715Y34443810D01*
X11241905Y34201905D01*
X10758096Y34201905D01*
X10274286Y34443810D01*
X10032382Y34685714D01*
X9790477Y35169524D01*
X9548572Y36137143D01*
X9548572Y37346667D01*
X9790477Y38314286D01*
X10032382Y38798095D01*
X10274286Y39040000D01*
X10758096Y39281905D01*
D11*
X7516191Y34409286D02*
X8483810Y34409286D01*
X7516191Y13409286D02*
X8483810Y13409286D01*
X7516191Y20409286D02*
X8483810Y20409286D01*
X7516191Y27409286D02*
X8483810Y27409286D01*
X7516191Y16909286D02*
X8483810Y16909286D01*
X8000000Y16425476D02*
X8000000Y17393095D01*
X7516191Y23909286D02*
X8483810Y23909286D01*
X8000000Y23425476D02*
X8000000Y24393095D01*
X7516191Y37909286D02*
X8483810Y37909286D01*
X8000000Y37425476D02*
X8000000Y38393095D01*
X7516191Y30909286D02*
X8483810Y30909286D01*
X8000000Y30425476D02*
X8000000Y31393095D01*
X24130000Y50038000D02*
X24130000Y46990000D01*
X44450000Y50038000D02*
X44450000Y46990000D01*
X30276800Y51943000D02*
X38303200Y51943000D01*
X38303200Y51943000D02*
X38303200Y50038000D01*
X38303200Y50038000D02*
X44450000Y50038000D01*
X44450000Y16510000D02*
X42926000Y13462000D01*
X42926000Y13462000D02*
X25654000Y13462000D01*
X25654000Y13462000D02*
X24130000Y16510000D01*
X24130000Y50038000D02*
X30276800Y50038000D01*
X30276800Y50038000D02*
X30276800Y51943000D01*
D13*
X15680000Y29935000D02*
X16380000Y29935000D01*
X16380000Y28735000D02*
X15680000Y28735000D01*
X15680000Y10885000D02*
X16380000Y10885000D01*
X16380000Y9685000D02*
X15680000Y9685000D01*
X15680000Y31840000D02*
X16380000Y31840000D01*
X16380000Y30640000D02*
X15680000Y30640000D01*
X15680000Y12790000D02*
X16380000Y12790000D01*
X16380000Y11590000D02*
X15680000Y11590000D01*
X330000Y40525000D02*
X330000Y10525000D01*
X6830000Y10525000D02*
X5830000Y10525000D01*
X5830000Y10525000D02*
X5830000Y9525000D01*
X5830000Y9525000D02*
X4830000Y9525000D01*
X4830000Y9525000D02*
X4830000Y10525000D01*
X4830000Y10525000D02*
X-170000Y10525000D01*
X-170000Y40525000D02*
X830000Y40525000D01*
X830000Y40525000D02*
X830000Y41525000D01*
X830000Y41525000D02*
X1830000Y41525000D01*
X1830000Y41525000D02*
X1830000Y40525000D01*
X1830000Y40525000D02*
X6830000Y40525000D01*
X6830000Y40525000D02*
X6830000Y10525000D01*
X-170000Y10525000D02*
X-170000Y40525000D01*
X17195000Y38520000D02*
G75*
G03X17195000Y38520000I-200000J0D01*
G01*
X13995000Y34720000D02*
X13795000Y34720000D01*
X13795000Y34720000D02*
X13795000Y37920000D01*
X13795000Y37920000D02*
X13995000Y37920000D01*
X16995000Y37920000D02*
X16995000Y34720000D01*
X16995000Y34720000D02*
X16795000Y34720000D01*
X16995000Y37920000D02*
X16795000Y37920000D01*
X17195000Y19470000D02*
G75*
G03X17195000Y19470000I-200000J0D01*
G01*
X13995000Y15670000D02*
X13795000Y15670000D01*
X13795000Y15670000D02*
X13795000Y18870000D01*
X13795000Y18870000D02*
X13995000Y18870000D01*
X16995000Y18870000D02*
X16995000Y15670000D01*
X16995000Y15670000D02*
X16795000Y15670000D01*
X16995000Y18870000D02*
X16795000Y18870000D01*
X30710000Y10850000D02*
X30710000Y9850000D01*
X30710000Y9850000D02*
X27710000Y9850000D01*
X27710000Y9850000D02*
X27710000Y10850000D01*
X39710000Y10850000D02*
X39710000Y1850000D01*
X39710000Y1850000D02*
X18710000Y1850000D01*
X18710000Y1850000D02*
X18710000Y10850000D01*
X18710000Y10850000D02*
X39710000Y10850000D01*
D11*
X21257381Y48955476D02*
X21257381Y47927381D01*
X21317857Y47806429D01*
X21378333Y47745952D01*
X21499286Y47685476D01*
X21741190Y47685476D01*
X21862143Y47745952D01*
X21922619Y47806429D01*
X21983095Y47927381D01*
X21983095Y48955476D01*
X22466905Y48955476D02*
X23253095Y48955476D01*
X22829762Y48471667D01*
X23011190Y48471667D01*
X23132143Y48411190D01*
X23192619Y48350714D01*
X23253095Y48229762D01*
X23253095Y47927381D01*
X23192619Y47806429D01*
X23132143Y47745952D01*
X23011190Y47685476D01*
X22648333Y47685476D01*
X22527381Y47745952D01*
X22466905Y47806429D01*
X16963571Y24946429D02*
X16903095Y24885952D01*
X16721666Y24825476D01*
X16600714Y24825476D01*
X16419286Y24885952D01*
X16298333Y25006905D01*
X16237857Y25127857D01*
X16177381Y25369762D01*
X16177381Y25551190D01*
X16237857Y25793095D01*
X16298333Y25914048D01*
X16419286Y26035000D01*
X16600714Y26095476D01*
X16721666Y26095476D01*
X16903095Y26035000D01*
X16963571Y25974524D01*
X18173095Y24825476D02*
X17447381Y24825476D01*
X17810238Y24825476D02*
X17810238Y26095476D01*
X17689286Y25914048D01*
X17568333Y25793095D01*
X17447381Y25732619D01*
X18596429Y26095476D02*
X19382619Y26095476D01*
X18959286Y25611667D01*
X19140714Y25611667D01*
X19261667Y25551190D01*
X19322143Y25490714D01*
X19382619Y25369762D01*
X19382619Y25067381D01*
X19322143Y24946429D01*
X19261667Y24885952D01*
X19140714Y24825476D01*
X18777857Y24825476D01*
X18656905Y24885952D01*
X18596429Y24946429D01*
X15693571Y5896429D02*
X15633095Y5835952D01*
X15451666Y5775476D01*
X15330714Y5775476D01*
X15149286Y5835952D01*
X15028333Y5956905D01*
X14967857Y6077857D01*
X14907381Y6319762D01*
X14907381Y6501190D01*
X14967857Y6743095D01*
X15028333Y6864048D01*
X15149286Y6985000D01*
X15330714Y7045476D01*
X15451666Y7045476D01*
X15633095Y6985000D01*
X15693571Y6924524D01*
X16903095Y5775476D02*
X16177381Y5775476D01*
X16540238Y5775476D02*
X16540238Y7045476D01*
X16419286Y6864048D01*
X16298333Y6743095D01*
X16177381Y6682619D01*
X17991667Y6622143D02*
X17991667Y5775476D01*
X17689286Y7105952D02*
X17386905Y6198810D01*
X18173095Y6198810D01*
X16963571Y26851429D02*
X16903095Y26790952D01*
X16721666Y26730476D01*
X16600714Y26730476D01*
X16419286Y26790952D01*
X16298333Y26911905D01*
X16237857Y27032857D01*
X16177381Y27274762D01*
X16177381Y27456190D01*
X16237857Y27698095D01*
X16298333Y27819048D01*
X16419286Y27940000D01*
X16600714Y28000476D01*
X16721666Y28000476D01*
X16903095Y27940000D01*
X16963571Y27879524D01*
X18173095Y26730476D02*
X17447381Y26730476D01*
X17810238Y26730476D02*
X17810238Y28000476D01*
X17689286Y27819048D01*
X17568333Y27698095D01*
X17447381Y27637619D01*
X19322143Y28000476D02*
X18717381Y28000476D01*
X18656905Y27395714D01*
X18717381Y27456190D01*
X18838333Y27516667D01*
X19140714Y27516667D01*
X19261667Y27456190D01*
X19322143Y27395714D01*
X19382619Y27274762D01*
X19382619Y26972381D01*
X19322143Y26851429D01*
X19261667Y26790952D01*
X19140714Y26730476D01*
X18838333Y26730476D01*
X18717381Y26790952D01*
X18656905Y26851429D01*
X15693571Y7801429D02*
X15633095Y7740952D01*
X15451666Y7680476D01*
X15330714Y7680476D01*
X15149286Y7740952D01*
X15028333Y7861905D01*
X14967857Y7982857D01*
X14907381Y8224762D01*
X14907381Y8406190D01*
X14967857Y8648095D01*
X15028333Y8769048D01*
X15149286Y8890000D01*
X15330714Y8950476D01*
X15451666Y8950476D01*
X15633095Y8890000D01*
X15693571Y8829524D01*
X16903095Y7680476D02*
X16177381Y7680476D01*
X16540238Y7680476D02*
X16540238Y8950476D01*
X16419286Y8769048D01*
X16298333Y8648095D01*
X16177381Y8587619D01*
X17991667Y8950476D02*
X17749762Y8950476D01*
X17628810Y8890000D01*
X17568333Y8829524D01*
X17447381Y8648095D01*
X17386905Y8406190D01*
X17386905Y7922381D01*
X17447381Y7801429D01*
X17507857Y7740952D01*
X17628810Y7680476D01*
X17870714Y7680476D01*
X17991667Y7740952D01*
X18052143Y7801429D01*
X18112619Y7922381D01*
X18112619Y8224762D01*
X18052143Y8345714D01*
X17991667Y8406190D01*
X17870714Y8466667D01*
X17628810Y8466667D01*
X17507857Y8406190D01*
X17447381Y8345714D01*
X17386905Y8224762D01*
X2751667Y42605476D02*
X2751667Y41698333D01*
X2691191Y41516905D01*
X2570239Y41395952D01*
X2388810Y41335476D01*
X2267858Y41335476D01*
X4021667Y41335476D02*
X3295953Y41335476D01*
X3658810Y41335476D02*
X3658810Y42605476D01*
X3537858Y42424048D01*
X3416905Y42303095D01*
X3295953Y42242619D01*
X17549524Y35352381D02*
X18577619Y35352381D01*
X18698571Y35412857D01*
X18759048Y35473333D01*
X18819524Y35594286D01*
X18819524Y35836190D01*
X18759048Y35957143D01*
X18698571Y36017619D01*
X18577619Y36078095D01*
X17549524Y36078095D01*
X18819524Y37348095D02*
X18819524Y36622381D01*
X18819524Y36985238D02*
X17549524Y36985238D01*
X17730952Y36864286D01*
X17851905Y36743333D01*
X17912381Y36622381D01*
X17549524Y16302381D02*
X18577619Y16302381D01*
X18698571Y16362857D01*
X18759048Y16423333D01*
X18819524Y16544286D01*
X18819524Y16786190D01*
X18759048Y16907143D01*
X18698571Y16967619D01*
X18577619Y17028095D01*
X17549524Y17028095D01*
X17670476Y17572381D02*
X17610000Y17632857D01*
X17549524Y17753809D01*
X17549524Y18056190D01*
X17610000Y18177143D01*
X17670476Y18237619D01*
X17791429Y18298095D01*
X17912381Y18298095D01*
X18093810Y18237619D01*
X18819524Y17511905D01*
X18819524Y18298095D01*
X16721667Y3235476D02*
X16721667Y2328333D01*
X16661191Y2146905D01*
X16540239Y2025952D01*
X16358810Y1965476D01*
X16237858Y1965476D01*
X17265953Y3114524D02*
X17326429Y3175000D01*
X17447381Y3235476D01*
X17749762Y3235476D01*
X17870715Y3175000D01*
X17931191Y3114524D01*
X17991667Y2993571D01*
X17991667Y2872619D01*
X17931191Y2691190D01*
X17205477Y1965476D01*
X17991667Y1965476D01*
%LPC*%
D14*
X43180000Y45720000D03*
X25400000Y45720000D03*
X43180000Y43180000D03*
X25400000Y43180000D03*
X43180000Y40640000D03*
X25400000Y40640000D03*
X43180000Y38100000D03*
X25400000Y38100000D03*
X43180000Y35560000D03*
X25400000Y35560000D03*
X43180000Y33020000D03*
X25400000Y33020000D03*
X43180000Y30480000D03*
X25400000Y30480000D03*
X43180000Y27940000D03*
X25400000Y27940000D03*
X43180000Y25400000D03*
X25400000Y25400000D03*
X43180000Y22860000D03*
X25400000Y22860000D03*
X43180000Y20320000D03*
X25400000Y20320000D03*
X43180000Y17780000D03*
X25400000Y17780000D03*
D15*
X23495000Y45720000D03*
X23495000Y43180000D03*
X23495000Y40640000D03*
X23495000Y38100000D03*
X23495000Y35560000D03*
X23495000Y33020000D03*
X23495000Y30480000D03*
X23495000Y27940000D03*
X23495000Y25400000D03*
X23495000Y22860000D03*
X23495000Y20320000D03*
X23495000Y17780000D03*
X45085000Y17780000D03*
X45085000Y20320000D03*
X45085000Y22860000D03*
X45085000Y25400000D03*
X45085000Y27940000D03*
X45085000Y30480000D03*
X45085000Y33020000D03*
X45085000Y35560000D03*
X45085000Y38100000D03*
X45085000Y40640000D03*
X45085000Y43180000D03*
X45085000Y45720000D03*
D16*
X27940000Y45720000D03*
X27940000Y38100000D03*
D17*
X27940000Y27940000D03*
X40640000Y43180000D03*
X40640000Y45720000D03*
D18*
X35306000Y48514000D03*
X33274000Y48514000D03*
D19*
X15280000Y29335000D03*
X16780000Y29335000D03*
X15280000Y10285000D03*
X16780000Y10285000D03*
X15280000Y31240000D03*
X16780000Y31240000D03*
X15280000Y12190000D03*
X16780000Y12190000D03*
D20*
X3330000Y37775000D03*
D21*
X3330000Y34275000D03*
X3330000Y30775000D03*
X3330000Y27275000D03*
X3330000Y23775000D03*
X3330000Y20275000D03*
X3330000Y16775000D03*
X3330000Y13275000D03*
D22*
X16395000Y34120000D03*
X16395000Y38520000D03*
X15895000Y34120000D03*
X15895000Y38520000D03*
X15395000Y34120000D03*
X15395000Y38520000D03*
X14895000Y34120000D03*
X14895000Y38520000D03*
X14395000Y34120000D03*
X14395000Y38520000D03*
X16395000Y15070000D03*
X16395000Y19470000D03*
X15895000Y15070000D03*
X15895000Y19470000D03*
X15395000Y15070000D03*
X15395000Y19470000D03*
X14895000Y15070000D03*
X14895000Y19470000D03*
X14395000Y15070000D03*
X14395000Y19470000D03*
D23*
X43180000Y5080000D03*
D24*
X45805000Y5080000D03*
X45036155Y3223845D03*
X43180000Y2455000D03*
X41323845Y3223845D03*
X40555000Y5080000D03*
X41323845Y6936155D03*
X43180000Y7705000D03*
X45036155Y6936155D03*
D23*
X5080000Y46990000D03*
D24*
X7705000Y46990000D03*
X6936155Y45133845D03*
X5080000Y44365000D03*
X3223845Y45133845D03*
X2455000Y46990000D03*
X3223845Y48846155D03*
X5080000Y49615000D03*
X6936155Y48846155D03*
D23*
X5080000Y5080000D03*
D24*
X7705000Y5080000D03*
X6936155Y3223845D03*
X5080000Y2455000D03*
X3223845Y3223845D03*
X2455000Y5080000D03*
X3223845Y6936155D03*
X5080000Y7705000D03*
X6936155Y6936155D03*
D25*
X34290000Y5080000D03*
D26*
X34290000Y7620000D03*
D25*
X31750000Y5080000D03*
X31750000Y7620000D03*
X29210000Y5080000D03*
X29210000Y7620000D03*
X26670000Y5080000D03*
X26670000Y7620000D03*
X24130000Y5080000D03*
X24130000Y7620000D03*
M02*
